<svg width="98" height="98" viewBox="0 0 98 98" version="1.1" xmlns="http://www.w3.org/2000/svg"><title>silicon</title><desc>Created with Sketch.</desc><g stroke="none" stroke-width="1" fill="none" fill-rule="evenodd"><g transform="translate(4.000000, 4.000000)"><path d="M45 0C20.1 0 0 20.1 0 45 0 69.9 20.1 90 45 90 69.9 90 90 69.9 90 45 90 20.1 69.9 0 45 0" stroke="#35312E" stroke-width="8" fill="#35312E"/><g transform="translate(3.000000, 3.000000)"><path d="M53.3 48.9C53.3 47.1 51.9 45.7 50.1 45.7 48.3 45.7 46.9 47.1 46.9 48.9 46.9 50.7 48.3 52.1 50.1 52.1 51.9 52.1 53.3 50.7 53.3 48.9M70 10.7L70 19.3 70 37.1 70 66.1 39.9 66.1C39 69.1 36.2 71.3 32.9 71.3 28.9 71.3 25.7 68.1 25.7 64.1 25.7 60.1 28.9 56.9 32.9 56.9 36.2 56.9 39 59.1 39.9 62.1L66 62.1 66 37.1 39.9 37.1C39 40.1 36.2 42.3 32.9 42.3 28.9 42.3 25.7 39.1 25.7 35.1 25.7 31.1 28.9 27.9 32.9 27.9 36.2 27.9 39 30.1 39.9 33.1L66 33.1 66 19.3 66 7.5C59.2 2.8 50.9 0 42 0 18.8 0 0 18.8 0 42 0 53.9 5 64.7 13 72.4L13 66.7 13 46.9 13 19.9 43.1 19.9C44 16.9 46.8 14.7 50.1 14.7 54.1 14.7 57.3 17.9 57.3 21.9 57.3 25.9 54.1 29.1 50.1 29.1 46.8 29.1 44 26.9 43.1 23.9L17 23.9 17 46.9 43.1 46.9C44 43.9 46.8 41.7 50.1 41.7 54.1 41.7 57.3 44.9 57.3 48.9 57.3 52.9 54.1 56.1 50.1 56.1 46.8 56.1 44 53.9 43.1 50.9L17 50.9 17 66.7 17 75.7C24 80.9 32.6 84 42 84 65.2 84 84 65.2 84 42 84 29.6 78.6 18.4 70 10.7M53.3 21.9C53.3 20.1 51.9 18.7 50.1 18.7 48.3 18.7 46.9 20.1 46.9 21.9 46.9 23.7 48.3 25.1 50.1 25.1 51.9 25.1 53.3 23.7 53.3 21.9M29.7 35.1C29.7 36.9 31.1 38.3 32.9 38.3 34.7 38.3 36.1 36.9 36.1 35.1 36.1 33.3 34.7 31.9 32.9 31.9 31.1 31.9 29.7 33.3 29.7 35.1M29.7 64.1C29.7 65.9 31.1 67.3 32.9 67.3 34.7 67.3 36.1 65.9 36.1 64.1 36.1 62.3 34.7 60.9 32.9 60.9 31.1 60.9 29.7 62.3 29.7 64.1" fill="#F47E33"/></g></g></g></svg>