<?xml version="1.0" encoding="UTF-8" standalone="no"?>
<svg width="98px" height="98px" viewBox="0 0 98 98" version="1.1" xmlns="http://www.w3.org/2000/svg" xmlns:xlink="http://www.w3.org/1999/xlink">
    <!-- Generator: Sketch 42 (36781) - http://www.bohemiancoding.com/sketch -->
    <title>icon-age-iron</title>
    <desc>Created with Sketch.</desc>
    <defs></defs>
    <g id="Page-1" stroke="none" stroke-width="1" fill="none" fill-rule="evenodd">
        <g id="icon-age-iron" transform="translate(4.000000, 4.000000)" fill-rule="nonzero">
            <g id="Group">
                <g id="Shape">
                    <path d="M45,0 C20.1,0 0,20.1 0,45 C0,69.9 20.1,90 45,90 C69.9,90 90,69.9 90,45 C90,20.1 69.9,0 45,0" stroke="#35312E" stroke-width="8" fill="#35312E"></path>
                    <g transform="translate(3.000000, 3.000000)" fill="#D7D1C6">
                        <path d="M46.4,34.5 L46.4,28.3 L27,28.3 L27,24.3 L35.1,24.3 C34.2,20.6 30.9,17.8 27,17.8 C22.4,17.8 18.7,21.6 18.7,26.2 C18.7,30.7 22.4,34.5 27,34.5 L46.4,34.5 Z"></path>
                        <polygon points="39.1 45.3 46.4 45.3 46.4 38.5 39.1 38.5"></polygon>
                        <path d="M29.1,38.5 L29.1,57.8 L25.1,57.8 L25.1,49.7 C21.3,50.5 18.5,53.8 18.5,57.8 C18.5,62.4 22.2,66.2 26.8,66.2 C31.4,66.2 35.1,62.4 35.1,57.8 L35.1,38.5 L29.1,38.5 Z M56.4,45.3 L56.4,26.3 L60.4,26.3 L60.4,34.5 C64.2,33.7 67,30.3 67,26.3 C67,21.8 63.3,18 58.7,18 C54.1,18 50.4,21.8 50.4,26.3 L50.4,45.3 L56.4,45.3 Z M70.8,57.7 C70.8,64.4 65.3,70 58.5,70 C52.3,70 47.1,65.3 46.3,59.3 L39,59.3 C38.3,65.4 33.1,70.2 26.8,70.2 C20,70.2 14.5,64.6 14.5,57.8 C14.5,51.6 19.1,46.5 25.1,45.7 L25.1,38.3 C19.2,37.4 14.7,32.3 14.7,26.2 C14.7,19.4 20.2,13.8 27,13.8 C33.1,13.8 38.2,18.4 39.1,24.3 L46.6,24.3 C47.6,18.5 52.6,14 58.7,14 C65.5,14 71,19.6 71,26.3 C71,32.6 66.4,37.7 60.4,38.5 L60.4,45.5 C66.3,46.4 70.8,51.5 70.8,57.7 L70.8,57.7 Z M42.7,0 C19.6,0 0.7,18.8 0.7,42 C0.7,65.2 19.6,84 42.7,84 C65.9,84 84.7,65.2 84.7,42 C84.7,18.8 65.9,0 42.7,0 L42.7,0 Z M39.1,49.3 L39.1,55.3 L60,55.3 L60,59.3 L50.4,59.3 C51.1,63.1 54.5,66 58.5,66 C63.1,66 66.8,62.2 66.8,57.7 C66.8,53.1 63.1,49.3 58.5,49.3 L39.1,49.3 Z"></path>
                    </g>
                </g>
            </g>
        </g>
    </g>
</svg>