<svg width="98" height="98" viewBox="0 0 98 98" version="1.1" xmlns="http://www.w3.org/2000/svg"><title>bronze</title><desc>Created with Sketch.</desc><g stroke="none" stroke-width="1" fill="none" fill-rule="evenodd"><g transform="translate(4.000000, 4.000000)"><path d="M45 0C20.1 0 0 20.1 0 45 0 69.9 20.1 90 45 90 69.9 90 90 69.9 90 45 90 20.1 69.9 0 45 0" stroke="#35312E" stroke-width="8" fill="#35312E"/><g transform="translate(2.000000, 3.000000)" fill="#F77E24"><path d="M34.3 42C34.3 46.7 38.2 50.5 42.9 50.5 47.6 50.5 51.4 46.7 51.4 42 51.4 37.3 47.6 33.5 42.9 33.5 38.2 33.5 34.3 37.3 34.3 42M42.9 75.2C25.8 75.2 11.7 62.3 9.9 45.6 9.9 45.6 9.9 45.6 9.9 45.6 9.8 45.1 9.8 44.5 9.7 44 9.7 43.9 9.7 43.9 9.7 43.8 9.7 43.2 9.7 42.6 9.7 42 9.7 41.4 9.7 40.8 9.7 40.2 9.7 40.1 9.7 40.1 9.7 40 9.8 39.5 9.8 38.9 9.9 38.4 9.9 38.4 9.9 38.4 9.9 38.4 11.7 21.7 25.8 8.8 42.9 8.8 58.8 8.8 72.1 20 75.4 34.9L75.4 34.9C75.6 36.1 75.8 37.2 75.9 38.3 75.9 38.4 75.9 38.4 75.9 38.4 76 38.9 76 39.4 76.1 40 76.1 40 76.1 40.1 76.1 40.2 76.1 40.8 76.1 41.4 76.1 41.9 76.1 42 76.1 42 76.1 42 76.1 42 76.1 42 76.1 42.1 76.1 42.6 76.1 43.2 76.1 43.8 76.1 43.9 76.1 44 76.1 44 76 44.6 76 45.1 75.9 45.6 75.9 45.6 75.9 45.6 75.9 45.7 75.8 46.8 75.6 47.9 75.4 49.1L75.4 49.1C72.1 64 58.8 75.2 42.9 75.2M42.9 0C19.7 0 0.9 18.8 0.9 42 0.9 65.2 19.7 84 42.9 84 66.1 84 84.9 65.2 84.9 42 84.9 18.8 66.1 0 42.9 0M19.9 37.7C21.9 26.7 31.6 18.6 42.9 18.6 51.4 18.6 59.3 23.2 63.4 30.7L59.9 32.6C56.5 26.4 50 22.6 42.9 22.6 33.4 22.6 25.3 29.5 23.8 38.9L30.4 40.8C31 34.4 36.4 29.5 42.9 29.5 49.4 29.5 54.8 34.4 55.4 40.8L71.5 36.1C68.8 22.8 57 12.8 42.9 12.8 28.8 12.8 17 22.8 14.3 36.1L19.9 37.7ZM42.9 65.4C33.9 65.4 25.8 60.4 21.9 52.3L25.5 50.5C28.7 57.2 35.4 61.4 42.9 61.4 52.4 61.4 60.5 54.5 62 45.1L55.4 43.2C54.8 49.6 49.4 54.5 42.9 54.5 36.4 54.5 31 49.6 30.4 43.2L14.3 47.9C17 61.2 28.8 71.2 42.9 71.2 57 71.2 68.8 61.2 71.5 47.9L65.9 46.3C63.9 57.3 54.2 65.4 42.9 65.4"/></g></g></g></svg>