<svg width="98" height="98" viewBox="0 0 98 98" version="1.1" xmlns="http://www.w3.org/2000/svg"><title>iron</title><desc>Created with Sketch.</desc><g stroke="none" stroke-width="1" fill="none" fill-rule="evenodd"><g transform="translate(4.000000, 4.000000)"><path d="M45 0C20.1 0 0 20.1 0 45 0 69.9 20.1 90 45 90 69.9 90 90 69.9 90 45 90 20.1 69.9 0 45 0" stroke="#35312E" stroke-width="8" fill="#35312E"/><g transform="translate(3.000000, 3.000000)" fill="#F77E24"><path d="M46.4 34.5L46.4 28.3 27 28.3 27 24.3 35.1 24.3C34.2 20.6 30.9 17.8 27 17.8 22.4 17.8 18.7 21.6 18.7 26.2 18.7 30.7 22.4 34.5 27 34.5L46.4 34.5Z"/><polygon points="39.1 45.3 46.4 45.3 46.4 38.5 39.1 38.5"/><path d="M29.1 38.5L29.1 57.8 25.1 57.8 25.1 49.7C21.3 50.5 18.5 53.8 18.5 57.8 18.5 62.4 22.2 66.2 26.8 66.2 31.4 66.2 35.1 62.4 35.1 57.8L35.1 38.5 29.1 38.5ZM56.4 45.3L56.4 26.3 60.4 26.3 60.4 34.5C64.2 33.7 67 30.3 67 26.3 67 21.8 63.3 18 58.7 18 54.1 18 50.4 21.8 50.4 26.3L50.4 45.3 56.4 45.3ZM70.8 57.7C70.8 64.4 65.3 70 58.5 70 52.3 70 47.1 65.3 46.3 59.3L39 59.3C38.3 65.4 33.1 70.2 26.8 70.2 20 70.2 14.5 64.6 14.5 57.8 14.5 51.6 19.1 46.5 25.1 45.7L25.1 38.3C19.2 37.4 14.7 32.3 14.7 26.2 14.7 19.4 20.2 13.8 27 13.8 33.1 13.8 38.2 18.4 39.1 24.3L46.6 24.3C47.6 18.5 52.6 14 58.7 14 65.5 14 71 19.6 71 26.3 71 32.6 66.4 37.7 60.4 38.5L60.4 45.5C66.3 46.4 70.8 51.5 70.8 57.7M42.7 0C19.6 0 0.7 18.8 0.7 42 0.7 65.2 19.6 84 42.7 84 65.9 84 84.7 65.2 84.7 42 84.7 18.8 65.9 0 42.7 0M39.1 49.3L39.1 55.3 60 55.3 60 59.3 50.4 59.3C51.1 63.1 54.5 66 58.5 66 63.1 66 66.8 62.2 66.8 57.7 66.8 53.1 63.1 49.3 58.5 49.3L39.1 49.3Z"/></g></g></g></svg>