<svg width="69" height="76" viewBox="0 0 69 76" version="1.1" xmlns="http://www.w3.org/2000/svg" xmlns:xlink="http://www.w3.org/1999/xlink"><title>Group 8</title><desc>Created with Sketch.</desc><defs><polygon id="path-1" points="43.99 50.48 43.99 0.85 0.83 0.85 0.83 50.48"/></defs><g id="Page-1" stroke="none" stroke-width="1" fill="none" fill-rule="evenodd"><g id="Group-8"><path d="M27.14 50.77C14.25 50.77 3.77 40.28 3.77 27.39 3.77 14.5 14.25 4.02 27.14 4.02 40.03 4.02 50.52 14.5 50.52 27.39 50.52 40.28 40.03 50.77 27.14 50.77" id="Fill-15" fill="#D7D1C6"/><path d="M27.14 0.52C12.3 0.52 0.27 12.55 0.27 27.39 0.27 42.24 12.3 54.27 27.14 54.27 41.99 54.27 54.02 42.24 54.02 27.39 54.02 12.55 41.99 0.52 27.14 0.52M27.14 7.52C38.1 7.52 47.02 16.43 47.02 27.39 47.02 38.35 38.1 47.27 27.14 47.27 16.18 47.27 7.27 38.35 7.27 27.39 7.27 16.43 16.18 7.52 27.14 7.52" id="Fill-17" fill="#000000"/><g id="Group-21" transform="translate(25.000000, 24.765700)"><mask id="mask-2" fill="white"><use xlink:href="#path-1"/></mask><g id="Clip-20"/><polygon id="Fill-19" fill="#000000" mask="url(#mask-2)" points="40.82 25.92 0.83 0.85 11.69 26.71 18.93 43.95 25.81 38.28 35.86 50.48 43.99 43.79 33.94 31.59"/></g></g></g></svg>