<svg width="88" height="71" viewBox="0 0 88 71" version="1.1" xmlns="http://www.w3.org/2000/svg"><title>Group 7</title><desc>Created with Sketch.</desc><g stroke="none" stroke-width="1" fill="none" fill-rule="evenodd"><polygon fill="#D7D1C6" points="3.5 67.3 84.5 67.3 84.5 4.4 3.5 4.4"/><path d="M0 70.8L88 70.8 88 0.9 0 0.9 0 70.8ZM7 63.8L81 63.8 81 7.9 7 7.9 7 63.8ZM17.9 17.6C17.7 17.6 17.5 17.4 17.5 17.2 17.5 17 17.7 16.8 17.9 16.8 18.1 16.8 18.2 17 18.2 17.2 18.2 17.4 18.1 17.6 17.9 17.6M17.9 12.8C15.5 12.8 13.5 14.8 13.5 17.2 13.5 19.6 15.5 21.6 17.9 21.6 20.3 21.6 22.2 19.6 22.2 17.2 22.2 14.8 20.3 12.8 17.9 12.8M29 17.6C28.8 17.6 28.6 17.4 28.6 17.2 28.6 17 28.8 16.8 29 16.8 29.2 16.8 29.4 17 29.4 17.2 29.4 17.4 29.2 17.6 29 17.6M29 12.8C26.6 12.8 24.6 14.8 24.6 17.2 24.6 19.6 26.6 21.6 29 21.6 31.4 21.6 33.4 19.6 33.4 17.2 33.4 14.8 31.4 12.8 29 12.8M40.1 17.6C39.9 17.6 39.8 17.4 39.8 17.2 39.8 17 39.9 16.8 40.1 16.8 40.3 16.8 40.5 17 40.5 17.2 40.5 17.4 40.3 17.6 40.1 17.6M40.1 12.8C37.7 12.8 35.8 14.8 35.8 17.2 35.8 19.6 37.7 21.6 40.1 21.6 42.5 21.6 44.5 19.6 44.5 17.2 44.5 14.8 42.5 12.8 40.1 12.8" fill="#000000"/></g></svg>