<svg width="98" height="98" viewBox="0 0 98 98" version="1.1" xmlns="http://www.w3.org/2000/svg"><title>stone</title><desc>Created with Sketch.</desc><g stroke="none" stroke-width="1" fill="none" fill-rule="evenodd"><g transform="translate(4.000000, 4.000000)"><path d="M45 0C20.1 0 0 20.1 0 45 0 69.9 20.1 90 45 90 69.9 90 90 69.9 90 45 90 20.1 69.9 0 45 0" stroke="#35312E" stroke-width="8" fill="#35312E"/><g transform="translate(3.000000, 3.000000)" fill="#F77E24"><path d="M40.6 21.5C40.8 4.3 27.3 9.8 21.9 5.1 27.9 1.9 34.7 0 42 0 61.3 0 77.6 13.1 82.5 30.9 69.7 27.1 55.9 21.1 43.4 22.4 43 21.6 45.7 16.5 43.2 16.7 42.5 17.8 41.6 19.6 40.6 21.5ZM34.2 18.7C36.6 9.7 22.9 11.9 20.6 5.8 19 6.8 17.5 7.9 16 9 17.1 19 27.5 16.2 34.2 18.7M67.2 66.1C63.7 66.1 48 56.4 44.6 73 43.2 73.4 42.5 74.8 41.3 74.7 39.7 73.9 42.5 64.7 46.3 61 43.4 50.9 29.3 64 26.5 67 19.5 59.2 46.7 54.2 39 35.6 28.4 37.5 28.6 40.2 23.6 33.5 23.6 33.5 30.4 24.9 29.9 23.5 29 21.2 12 20.7 13.5 11.2 5.2 18.9 0 29.8 0 42 0 65.2 18.8 84 42 84 57.4 84 70.9 75.7 78.2 63.3 73.6 64.7 68.9 66.1 67.2 66.1"/></g></g></g></svg>