<svg width="99" height="86" viewBox="0 0 99 86" version="1.1" xmlns="http://www.w3.org/2000/svg" xmlns:xlink="http://www.w3.org/1999/xlink"><title>Group 6</title><desc>Created with Sketch.</desc><g id="Page-1" stroke="none" stroke-width="1" fill="none" fill-rule="evenodd"><g id="Group-6"><path d="M73.9 27.5C73.9 18.26 66.44 10.46 56.08 7.68 52.08 6.12 48.94 3.9 47.83 0 46.72 3.9 43.58 6.12 39.58 7.68 29.22 10.46 21.76 18.26 21.76 27.5 21.76 30.18 23.42 35.82 36.19 37.93 40.3 38.6 43.27 42.22 43.27 46.39L43.27 67.44C43.27 69.96 45.31 72 47.83 72 50.35 72 52.39 75.53 52.39 73.01L52.39 46.39C52.39 42.22 55.36 38.6 59.47 37.93 72.24 35.82 73.9 30.18 73.9 27.5" id="Fill-22" fill="#000000"/><path d="M99 49.32C99 40.08 91.54 32.28 81.19 29.5 77.18 27.94 74.04 25.72 72.93 21.82 71.82 25.72 68.69 27.94 64.68 29.5 54.32 32.28 46.86 40.08 46.86 49.32 46.86 52.01 48.52 57.65 61.29 59.75 65.4 60.43 68.37 64.05 68.37 68.21L68.37 78.13C68.37 80.65 70.41 82.69 72.93 82.69 75.45 82.69 77.49 80.65 77.49 78.13L77.49 68.21C77.49 64.05 80.46 60.43 84.57 59.75 97.34 57.65 99 52.01 99 49.32" id="Fill-24" fill="#000000"/><path d="M34.65 54.7C30.64 53.14 27.51 50.92 26.39 47.02 25.28 50.92 22.15 53.14 18.14 54.7 7.79 57.49 0.33 65.28 0.33 74.52 0.33 77.86 2.89 85.77 26.16 85.77L26.63 85.77C49.9 85.77 52.46 77.86 52.46 74.52 52.46 65.28 45 57.49 34.65 54.7" id="Fill-26" fill="#000000"/><path d="M26.39 61.54C17.49 61.54 9.92 66.66 9.47 72.89 11.03 74.01 16.82 75.79 26.39 75.79 35.97 75.79 41.76 74.01 43.32 72.89 42.87 66.66 35.3 61.54 26.39 61.54" id="Fill-28" fill="#D7D1C6"/><path d="M47.83 14.94C38.92 14.94 31.35 20.06 30.91 26.29 32.47 27.41 38.25 29.19 47.83 29.19 57.4 29.19 63.19 27.41 64.75 26.29 64.31 20.06 56.74 14.94 47.83 14.94" id="Fill-30" fill="#D7D1C6"/><path d="M72.93 37.2C64.02 37.2 56.45 42.33 56.01 48.56 57.57 49.67 63.36 51.46 72.93 51.46 82.51 51.46 88.3 49.67 89.85 48.56 89.41 42.33 81.84 37.2 72.93 37.2" id="Fill-32" fill="#D7D1C6"/></g></g></svg>