<?xml version="1.0" encoding="UTF-8" standalone="no"?>
<svg width="92px" height="64px" viewBox="0 0 92 64" version="1.1" xmlns="http://www.w3.org/2000/svg" xmlns:xlink="http://www.w3.org/1999/xlink">
    <!-- Generator: Sketch 43.1 (39012) - http://www.bohemiancoding.com/sketch -->
    <title>Page 1</title>
    <desc>Created with Sketch.</desc>
    <defs></defs>
    <g id="Page-1" stroke="none" stroke-width="1" fill="none" fill-rule="evenodd" stroke-linecap="round" stroke-linejoin="round">
        <g id="Desktop-Token-UI" transform="translate(-930.000000, -1165.000000)" stroke-width="2">
            <g id="Why-decentralized?" transform="translate(350.000000, 1017.000000)">
                <g id="cont">
                    <g id="Group-4" transform="translate(510.000000, 101.000000)">
                        <g id="cont" transform="translate(25.000000, 48.000000)">
                            <g id="Page-1" transform="translate(45.000000, 0.000000)">
                                <g id="Group-13" transform="translate(0.000000, 21.333300)" stroke="#E0E7ED">
                                    <polygon id="Stroke-1" points="37.9375 8.5 19.4375 0 1.0625 8.313 0.9995 31.625 19.5625 40 37.8125 31.625"></polygon>
                                    <polyline id="Stroke-3" points="1.2917 8.6458 19.5417 16.6458 37.4587 8.9788"></polyline>
                                    <path d="M19.5417,16.4792 L19.5417,39.4792" id="Stroke-5"></path>
                                    <polygon id="Stroke-7" points="90.2708 8.5 71.7708 0 53.3958 8.313 53.3328 31.625 71.8958 40 90.1458 31.625"></polygon>
                                    <polyline id="Stroke-9" points="53.625 8.6458 71.875 16.6458 89.792 8.9788"></polyline>
                                    <path d="M71.875,16.4792 L71.875,39.4792" id="Stroke-11"></path>
                                </g>
                                <polyline id="Stroke-14" stroke="#3E396B" points="27.625 8.6458 45.875 16.6458 63.792 8.9788"></polyline>
                                <polyline id="Stroke-15" stroke="#3E396B" points="34.875 35.1458 45.896 39.9998 56.146 35.6248"></polyline>
                                <polyline id="Stroke-16" stroke="#3E396B" points="64.1458 31.8333 64.2708 8.5003 45.7708 0.0003 27.3958 8.3123 27.3328 31.6253"></polyline>
                                <path d="M45.875,16.4791 L45.875,39.4791" id="Stroke-18" stroke="#3E396B"></path>
                            </g>
                        </g>
                    </g>
                </g>
            </g>
        </g>
    </g>
</svg>