<?xml version="1.0" encoding="UTF-8" standalone="no"?>
<svg width="286px" height="70px" viewBox="0 0 286 70" version="1.1" xmlns="http://www.w3.org/2000/svg" xmlns:xlink="http://www.w3.org/1999/xlink">
    <!-- Generator: Sketch 43.1 (39012) - http://www.bohemiancoding.com/sketch -->
    <title>Group</title>
    <desc>Created with Sketch.</desc>
    <defs></defs>
    <g id="Page-1" stroke="none" stroke-width="1" fill="none" fill-rule="evenodd">
        <g id="assets" transform="translate(-480.000000, -673.000000)">
            <g id="Group" transform="translate(480.000000, 674.000000)">
                <g id="Page-1" transform="translate(97.000000, 0.000000)">
                    <polygon id="Fill-1" fill="#FEFEFE" points="28.4994 14.0233 0.9994 37.8053 80.6764 37.8053 53.1764 14.0233"></polygon>
                    <polygon id="Stroke-2" stroke="#E0E7ED" stroke-width="2" stroke-linecap="round" stroke-linejoin="round" points="80.6764 37.8046 1.0004 37.8046 28.4994 14.0226 53.1764 14.0226"></polygon>
                    <path d="M21.0987,37.6006 L35.4487,14.1496" id="Stroke-4" stroke="#E0E7ED" stroke-width="2" stroke-linecap="round" stroke-linejoin="round"></path>
                    <path d="M59.8617,37.5686 L46.1837,14.2456" id="Stroke-5" stroke="#E0E7ED" stroke-width="2" stroke-linecap="round" stroke-linejoin="round"></path>
                    <path d="M41.8617,37.5686 L41.1837,14.2456" id="Stroke-6" stroke="#E0E7ED" stroke-width="2" stroke-linecap="round" stroke-linejoin="round"></path>
                    <path d="M22.5876,19.5562 L58.8526,19.5562" id="Stroke-7" stroke="#E0E7ED" stroke-width="2" stroke-linecap="round" stroke-linejoin="round"></path>
                    <path d="M13.4851,27.6186 L68.1471,27.6186" id="Stroke-8" stroke="#E0E7ED" stroke-width="2" stroke-linecap="round" stroke-linejoin="round"></path>
                    <g id="Group-23" transform="translate(1.000000, 0.945700)">
                        <path d="M31.6353,12.9231 C30.9863,11.6991 30.6183,10.3031 30.6183,8.8201 C30.6183,3.9791 34.5423,0.0541 39.3843,0.0541 C44.2253,0.0541 48.1503,3.9791 48.1503,8.8201 C48.1503,10.2351 47.8153,11.5711 47.2203,12.7541" id="Stroke-9" stroke="#E0E7ED" stroke-width="2" stroke-linecap="round" stroke-linejoin="round"></path>
                        <path d="M67.8316,26.5115 L60.6956,1.8665 L53.7746,26.5115 L53.9806,26.5115 C54.1136,27.7045 57.1026,28.6585 60.7806,28.6585 C64.4586,28.6585 67.4476,27.7045 67.5806,26.5115 L67.8316,26.5115 Z" id="Fill-11" fill="#FEFEFE"></path>
                        <path d="M67.8316,26.5115 L60.6956,1.8665 L53.7746,26.5115 L53.9806,26.5115 C54.1136,27.7045 57.1026,28.6585 60.7806,28.6585 C64.4586,28.6585 67.4476,27.7045 67.5806,26.5115 L67.8316,26.5115 Z" id="Stroke-13" stroke="#E0E7ED" stroke-width="2" stroke-linecap="round" stroke-linejoin="round"></path>
                        <path d="M30.2483,18.1971 L26.3803,5.7271 L22.6293,18.1971 L22.7403,18.1971 C22.8133,18.8011 24.4333,19.2831 26.4263,19.2831 C28.4193,19.2831 30.0403,18.8011 30.1123,18.1971 L30.2483,18.1971 Z" id="Fill-15" fill="#FEFEFE"></path>
                        <path d="M30.2483,18.1971 L26.3803,5.7271 L22.6293,18.1971 L22.7403,18.1971 C22.8133,18.8011 24.4333,19.2831 26.4263,19.2831 C28.4193,19.2831 30.0403,18.8011 30.1123,18.1971 L30.2483,18.1971 Z" id="Stroke-17" stroke="#E0E7ED" stroke-width="2" stroke-linecap="round" stroke-linejoin="round"></path>
                        <path d="M11.1852,48.5563 C12.4332,48.5563 13.4452,49.5683 13.4452,50.8163 C13.4452,52.0653 12.4332,53.0763 11.1852,53.0763 C9.9372,53.0763 8.9252,52.0653 8.9252,50.8163 C8.9252,49.5683 9.9372,48.5563 11.1852,48.5563 M11.3412,59.0003 C17.2382,59.0003 22.0182,54.2193 22.0182,48.3223 C22.0182,43.7143 19.0942,39.8003 15.0042,38.3033 L15.0042,33.7483 L12.5102,31.4103 L15.0042,29.2273 L15.0042,26.4223 L12.5102,24.7073 L15.0042,22.9923 L15.0042,20.3423 L12.5102,18.4723 L15.0042,16.6023 L15.0042,12.0813 L9.7042,7.0933 L7.3662,12.0813 L7.3662,38.4173 C3.4392,39.9953 0.6632,43.8313 0.6632,48.3223 C0.6632,54.2193 5.4442,59.0003 11.3412,59.0003" id="Fill-19" fill="#FEFEFE"></path>
                        <path d="M11.1852,48.5563 C12.4332,48.5563 13.4452,49.5683 13.4452,50.8163 C13.4452,52.0653 12.4332,53.0763 11.1852,53.0763 C9.9372,53.0763 8.9252,52.0653 8.9252,50.8163 C8.9252,49.5683 9.9372,48.5563 11.1852,48.5563 Z M11.3412,59.0003 C17.2382,59.0003 22.0182,54.2193 22.0182,48.3223 C22.0182,43.7143 19.0942,39.8003 15.0042,38.3033 L15.0042,33.7483 L12.5102,31.4103 L15.0042,29.2273 L15.0042,26.4223 L12.5102,24.7073 L15.0042,22.9923 L15.0042,20.3423 L12.5102,18.4723 L15.0042,16.6023 L15.0042,12.0813 L9.7042,7.0933 L7.3662,12.0813 L7.3662,38.4173 C3.4392,39.9953 0.6632,43.8313 0.6632,48.3223 C0.6632,54.2193 5.4442,59.0003 11.3412,59.0003 Z" id="Stroke-21" stroke="#3E396B" stroke-width="2" stroke-linecap="round" stroke-linejoin="round"></path>
                    </g>
                </g>
                <g id="Page-1">
                    <polygon id="Stroke-2" stroke="#E0E7ED" stroke-width="2" stroke-linecap="round" stroke-linejoin="round" points="80.6764 37.8045 1.0004 37.8045 28.4994 14.0225 53.1764 14.0225"></polygon>
                    <path d="M21.0987,37.6005 L35.4487,14.1495" id="Stroke-4" stroke="#E0E7ED" stroke-width="2" stroke-linecap="round" stroke-linejoin="round"></path>
                    <path d="M59.8617,37.5685 L46.1837,14.2455" id="Stroke-5" stroke="#E0E7ED" stroke-width="2" stroke-linecap="round" stroke-linejoin="round"></path>
                    <path d="M41.8617,37.5685 L41.1837,14.2455" id="Stroke-6" stroke="#E0E7ED" stroke-width="2" stroke-linecap="round" stroke-linejoin="round"></path>
                    <path d="M22.5876,19.5562 L58.8526,19.5562" id="Stroke-7" stroke="#E0E7ED" stroke-width="2" stroke-linecap="round" stroke-linejoin="round"></path>
                    <path d="M13.4851,27.6185 L68.1471,27.6185" id="Stroke-8" stroke="#E0E7ED" stroke-width="2" stroke-linecap="round" stroke-linejoin="round"></path>
                    <g id="Group-27" transform="translate(11.000000, 0.834700)">
                        <path d="M21.6353,13.0341 C20.9863,11.8101 20.6183,10.4141 20.6183,8.9311 C20.6183,4.0901 24.5423,0.1651 29.3843,0.1651 C34.2253,0.1651 38.1503,4.0901 38.1503,8.9311 C38.1503,10.3461 37.8153,11.6821 37.2203,12.8651" id="Stroke-9" stroke="#E0E7ED" stroke-width="2" stroke-linecap="round" stroke-linejoin="round"></path>
                        <path d="M57.8316,26.6224 L50.6956,1.9774 L43.7746,26.6224 L43.9806,26.6224 C44.1136,27.8154 47.1026,28.7694 50.7806,28.7694 C54.4586,28.7694 57.4476,27.8154 57.5806,26.6224 L57.8316,26.6224 Z" id="Fill-11" fill="#FEFEFE"></path>
                        <path d="M57.8316,26.6224 L50.6956,1.9774 L43.7746,26.6224 L43.9806,26.6224 C44.1136,27.8154 47.1026,28.7694 50.7806,28.7694 C54.4586,28.7694 57.4476,27.8154 57.5806,26.6224 L57.8316,26.6224 Z" id="Stroke-13" stroke="#E0E7ED" stroke-width="2" stroke-linecap="round" stroke-linejoin="round"></path>
                        <path d="M20.2483,18.308 L16.3803,5.838 L12.6293,18.308 L12.7403,18.308 C12.8133,18.912 14.4333,19.394 16.4263,19.394 C18.4193,19.394 20.0403,18.912 20.1123,18.308 L20.2483,18.308 Z" id="Fill-15" fill="#FEFEFE"></path>
                        <path d="M20.2483,18.308 L16.3803,5.838 L12.6293,18.308 L12.7403,18.308 C12.8133,18.912 14.4333,19.394 16.4263,19.394 C18.4193,19.394 20.0403,18.912 20.1123,18.308 L20.2483,18.308 Z" id="Stroke-17" stroke="#E0E7ED" stroke-width="2" stroke-linecap="round" stroke-linejoin="round"></path>
                        <g id="Group-26" transform="translate(0.000000, 46.000000)">
                            <path d="M33.7309,9.0188 L46.4499,5.9388 C47.7099,5.6288 48.9839,6.3948 49.3839,7.7028 C49.7799,9.0008 49.1829,10.4058 48.0059,10.9498 L27.9589,20.3078 C26.1179,21.1108 24.0719,21.2188 22.1649,20.6118 L5.7669,14.6418 L0.6189,14.6418" id="Fill-19" fill="#FEFEFE"></path>
                            <path d="M33.7309,9.0188 L46.4499,5.9388 C47.7099,5.6288 48.9839,6.3948 49.3839,7.7028 C49.7799,9.0008 49.1829,10.4058 48.0059,10.9498 L27.9589,20.3078 C26.1179,21.1108 24.0719,21.2188 22.1649,20.6118 L5.7669,14.6418 L0.6189,14.6418" id="Stroke-21" stroke="#3E396B" stroke-width="2" stroke-linecap="round" stroke-linejoin="round"></path>
                            <path d="M0.6185,0.9979 L10.7015,0.9979 C12.3085,0.9979 13.8985,1.3279 15.3725,1.9689 L22.7415,5.1709 L30.6885,5.1709 C32.3685,5.1709 33.7305,6.5329 33.7305,8.2129 C33.7305,9.8929 32.3685,11.2549 30.6885,11.2549 L17.1165,11.2549" id="Fill-23" fill="#FEFEFE"></path>
                            <path d="M0.6185,0.9979 L10.7015,0.9979 C12.3085,0.9979 13.8985,1.3279 15.3725,1.9689 L22.7415,5.1709 L30.6885,5.1709 C32.3685,5.1709 33.7305,6.5329 33.7305,8.2129 C33.7305,9.8929 32.3685,11.2549 30.6885,11.2549 L17.1165,11.2549" id="Stroke-25" stroke="#3E396B" stroke-width="2" stroke-linecap="round" stroke-linejoin="round"></path>
                        </g>
                    </g>
                </g>
                <g id="Page-1" transform="translate(194.000000, 0.000000)" stroke-width="2" stroke-linecap="round" stroke-linejoin="round">
                    <g id="Group-13" transform="translate(0.000000, 21.333300)" stroke="#E0E7ED">
                        <polygon id="Stroke-1" points="37.9375 8.5 19.4375 0 1.0625 8.313 0.9995 31.625 19.5625 40 37.8125 31.625"></polygon>
                        <polyline id="Stroke-3" points="1.2917 8.6458 19.5417 16.6458 37.4587 8.9788"></polyline>
                        <path d="M19.5417,16.4792 L19.5417,39.4792" id="Stroke-5"></path>
                        <polygon id="Stroke-7" points="90.2708 8.5 71.7708 0 53.3958 8.313 53.3328 31.625 71.8958 40 90.1458 31.625"></polygon>
                        <polyline id="Stroke-9" points="53.625 8.6458 71.875 16.6458 89.792 8.9788"></polyline>
                        <path d="M71.875,16.4792 L71.875,39.4792" id="Stroke-11"></path>
                    </g>
                    <polyline id="Stroke-14" stroke="#3E396B" points="27.625 8.6458 45.875 16.6458 63.792 8.9788"></polyline>
                    <polyline id="Stroke-15" stroke="#3E396B" points="34.875 35.1458 45.896 39.9998 56.146 35.6248"></polyline>
                    <polyline id="Stroke-16" stroke="#3E396B" points="64.1458 31.8333 64.2708 8.5003 45.7708 0.0003 27.3958 8.3123 27.3328 31.6253"></polyline>
                    <path d="M45.875,16.4791 L45.875,39.4791" id="Stroke-18" stroke="#3E396B"></path>
                </g>
            </g>
        </g>
    </g>
</svg>