<?xml version="1.0" encoding="UTF-8" standalone="no"?>
<svg width="82px" height="61px" viewBox="0 0 82 61" version="1.1" xmlns="http://www.w3.org/2000/svg" xmlns:xlink="http://www.w3.org/1999/xlink">
    <!-- Generator: Sketch 43.1 (39012) - http://www.bohemiancoding.com/sketch -->
    <title>Page 1</title>
    <desc>Created with Sketch.</desc>
    <defs></defs>
    <g id="Page-1" stroke="none" stroke-width="1" fill="none" fill-rule="evenodd">
        <g id="Desktop-Token-UI" transform="translate(-679.000000, -1164.000000)">
            <g id="Why-decentralized?" transform="translate(350.000000, 1017.000000)">
                <g id="cont">
                    <g id="Group-3" transform="translate(255.000000, 101.000000)">
                        <g id="cont" transform="translate(25.000000, 46.000000)">
                            <g id="Page-1" transform="translate(49.000000, 0.000000)">
                                <polygon id="Fill-1" fill="#FEFEFE" points="28.4994 14.0233 0.9994 37.8053 80.6764 37.8053 53.1764 14.0233"></polygon>
                                <polygon id="Stroke-2" stroke="#E0E7ED" stroke-width="2" stroke-linecap="round" stroke-linejoin="round" points="80.6764 37.8046 1.0004 37.8046 28.4994 14.0226 53.1764 14.0226"></polygon>
                                <path d="M21.0987,37.6006 L35.4487,14.1496" id="Stroke-4" stroke="#E0E7ED" stroke-width="2" stroke-linecap="round" stroke-linejoin="round"></path>
                                <path d="M59.8617,37.5686 L46.1837,14.2456" id="Stroke-5" stroke="#E0E7ED" stroke-width="2" stroke-linecap="round" stroke-linejoin="round"></path>
                                <path d="M41.8617,37.5686 L41.1837,14.2456" id="Stroke-6" stroke="#E0E7ED" stroke-width="2" stroke-linecap="round" stroke-linejoin="round"></path>
                                <path d="M22.5876,19.5562 L58.8526,19.5562" id="Stroke-7" stroke="#E0E7ED" stroke-width="2" stroke-linecap="round" stroke-linejoin="round"></path>
                                <path d="M13.4851,27.6186 L68.1471,27.6186" id="Stroke-8" stroke="#E0E7ED" stroke-width="2" stroke-linecap="round" stroke-linejoin="round"></path>
                                <g id="Group-23" transform="translate(1.000000, 0.945700)">
                                    <path d="M31.6353,12.9231 C30.9863,11.6991 30.6183,10.3031 30.6183,8.8201 C30.6183,3.9791 34.5423,0.0541 39.3843,0.0541 C44.2253,0.0541 48.1503,3.9791 48.1503,8.8201 C48.1503,10.2351 47.8153,11.5711 47.2203,12.7541" id="Stroke-9" stroke="#E0E7ED" stroke-width="2" stroke-linecap="round" stroke-linejoin="round"></path>
                                    <path d="M67.8316,26.5115 L60.6956,1.8665 L53.7746,26.5115 L53.9806,26.5115 C54.1136,27.7045 57.1026,28.6585 60.7806,28.6585 C64.4586,28.6585 67.4476,27.7045 67.5806,26.5115 L67.8316,26.5115 Z" id="Fill-11" fill="#FEFEFE"></path>
                                    <path d="M67.8316,26.5115 L60.6956,1.8665 L53.7746,26.5115 L53.9806,26.5115 C54.1136,27.7045 57.1026,28.6585 60.7806,28.6585 C64.4586,28.6585 67.4476,27.7045 67.5806,26.5115 L67.8316,26.5115 Z" id="Stroke-13" stroke="#E0E7ED" stroke-width="2" stroke-linecap="round" stroke-linejoin="round"></path>
                                    <path d="M30.2483,18.1971 L26.3803,5.7271 L22.6293,18.1971 L22.7403,18.1971 C22.8133,18.8011 24.4333,19.2831 26.4263,19.2831 C28.4193,19.2831 30.0403,18.8011 30.1123,18.1971 L30.2483,18.1971 Z" id="Fill-15" fill="#FEFEFE"></path>
                                    <path d="M30.2483,18.1971 L26.3803,5.7271 L22.6293,18.1971 L22.7403,18.1971 C22.8133,18.8011 24.4333,19.2831 26.4263,19.2831 C28.4193,19.2831 30.0403,18.8011 30.1123,18.1971 L30.2483,18.1971 Z" id="Stroke-17" stroke="#E0E7ED" stroke-width="2" stroke-linecap="round" stroke-linejoin="round"></path>
                                    <path d="M11.1852,48.5563 C12.4332,48.5563 13.4452,49.5683 13.4452,50.8163 C13.4452,52.0653 12.4332,53.0763 11.1852,53.0763 C9.9372,53.0763 8.9252,52.0653 8.9252,50.8163 C8.9252,49.5683 9.9372,48.5563 11.1852,48.5563 M11.3412,59.0003 C17.2382,59.0003 22.0182,54.2193 22.0182,48.3223 C22.0182,43.7143 19.0942,39.8003 15.0042,38.3033 L15.0042,33.7483 L12.5102,31.4103 L15.0042,29.2273 L15.0042,26.4223 L12.5102,24.7073 L15.0042,22.9923 L15.0042,20.3423 L12.5102,18.4723 L15.0042,16.6023 L15.0042,12.0813 L9.7042,7.0933 L7.3662,12.0813 L7.3662,38.4173 C3.4392,39.9953 0.6632,43.8313 0.6632,48.3223 C0.6632,54.2193 5.4442,59.0003 11.3412,59.0003" id="Fill-19" fill="#FEFEFE"></path>
                                    <path d="M11.1852,48.5563 C12.4332,48.5563 13.4452,49.5683 13.4452,50.8163 C13.4452,52.0653 12.4332,53.0763 11.1852,53.0763 C9.9372,53.0763 8.9252,52.0653 8.9252,50.8163 C8.9252,49.5683 9.9372,48.5563 11.1852,48.5563 Z M11.3412,59.0003 C17.2382,59.0003 22.0182,54.2193 22.0182,48.3223 C22.0182,43.7143 19.0942,39.8003 15.0042,38.3033 L15.0042,33.7483 L12.5102,31.4103 L15.0042,29.2273 L15.0042,26.4223 L12.5102,24.7073 L15.0042,22.9923 L15.0042,20.3423 L12.5102,18.4723 L15.0042,16.6023 L15.0042,12.0813 L9.7042,7.0933 L7.3662,12.0813 L7.3662,38.4173 C3.4392,39.9953 0.6632,43.8313 0.6632,48.3223 C0.6632,54.2193 5.4442,59.0003 11.3412,59.0003 Z" id="Stroke-21" stroke="#3E396B" stroke-width="2" stroke-linecap="round" stroke-linejoin="round"></path>
                                </g>
                            </g>
                        </g>
                    </g>
                </g>
            </g>
        </g>
    </g>
</svg>