<?xml version="1.0" encoding="UTF-8" standalone="no"?>
<svg width="227px" height="90px" viewBox="0 0 227 90" version="1.1" xmlns="http://www.w3.org/2000/svg" xmlns:xlink="http://www.w3.org/1999/xlink">
    <!-- Generator: Sketch 43.1 (39012) - http://www.bohemiancoding.com/sketch -->
    <title>social</title>
    <desc>Created with Sketch.</desc>
    <defs></defs>
    <g id="Page-1" stroke="none" stroke-width="1" fill="none" fill-rule="evenodd">
        <g id="assets" transform="translate(-415.000000, -258.000000)">
            <g id="social" transform="translate(415.000000, 257.000000)">
                <g id="W" transform="translate(0.000000, 68.076796)" fill="#FFFFFF">
                    <path d="M208.28125,5.73518825 C208.28125,4.63333087 209.173873,3.74009896 210.276339,3.74009896 L224.286161,3.74009896 C225.388018,3.74009896 226.28125,4.63272176 226.28125,5.73518825 L226.28125,19.7450097 C226.28125,20.8468671 225.388627,21.740099 224.286161,21.740099 L210.276339,21.740099 C209.174482,21.740099 208.28125,20.8474762 208.28125,19.7450097 L208.28125,5.73518825 Z M220.890876,11.344377 L220.890876,10.1892968 C220.890876,9.61175671 221.275902,9.51550003 221.468416,9.51550003 L223.201036,9.51550003 L223.201036,6.91656955 L220.890876,6.91656955 C218.291945,6.91656955 217.714405,8.84170324 217.714405,9.99678345 L217.714405,11.344377 L216.270555,11.344377 L216.270555,13.173254 L216.270555,14.3283343 L217.810662,14.3283343 L217.810662,21.740099 L220.698362,21.740099 L220.698362,14.3283343 L222.912266,14.3283343 L223.008523,13.173254 L223.201036,11.344377 L220.890876,11.344377 Z" id="Combined-Shape" fill-rule="nonzero"></path>
                    <path d="M192.640625,11.9232045 C192.640625,12.3823981 192.523847,12.8000268 192.290292,13.1760906 C192.056736,13.5521543 191.742031,13.8391503 191.346174,14.0370786 C191.44118,14.4012667 191.488682,14.781289 191.488682,15.1771456 C191.488682,16.404301 191.067095,17.5404094 190.22392,18.5854708 C189.380746,19.6305322 188.230783,20.4558932 186.77403,21.0615537 C185.317278,21.6672143 183.733852,21.9700446 182.023751,21.9700446 C180.313651,21.9700446 178.732204,21.6672143 177.27941,21.0615537 C175.826617,20.4558932 174.678632,19.6305322 173.835458,18.5854708 C172.992283,17.5404094 172.570696,16.404301 172.570696,15.1771456 C172.570696,14.8050404 172.61424,14.4329352 172.701329,14.06083 C172.297555,13.8629017 171.972953,13.5719471 171.727522,13.1879663 C171.482091,12.8039854 171.359375,12.3823981 171.359375,11.9232045 C171.359375,11.2739996 171.588972,10.7178211 172.048165,10.2546689 C172.507359,9.79151672 173.065517,9.55994062 173.722639,9.55994062 C174.395595,9.55994062 174.969587,9.80933027 175.444615,10.3081096 C177.17055,9.10470554 179.209211,8.46341788 181.560599,8.38424656 L182.93818,2.19700814 C182.961931,2.09408543 183.02131,2.01095555 183.116316,1.94761849 C183.211321,1.88428144 183.314244,1.86448861 183.425084,1.88824001 L187.807216,2.8501715 C187.949725,2.55723764 188.163487,2.32170297 188.448504,2.1435675 C188.73352,1.96543204 189.046247,1.87636431 189.386684,1.87636431 C189.877546,1.87636431 190.297154,2.04856192 190.645508,2.39295715 C190.993862,2.73735238 191.168038,3.15498107 191.168038,3.64584324 C191.168038,4.13670541 190.993862,4.55631339 190.645508,4.90466718 C190.297154,5.25302097 189.877546,5.42719787 189.386684,5.42719787 C188.895822,5.42719787 188.478193,5.25500026 188.133798,4.91060503 C187.789403,4.5662098 187.617205,4.1485811 187.617205,3.65771894 L183.650722,2.77891732 L182.415649,8.38424656 C184.790789,8.45550075 186.845285,9.08887128 188.579136,10.2843582 C189.03833,9.80141313 189.604405,9.55994062 190.277361,9.55994062 C190.934483,9.55994062 191.492641,9.79151672 191.951834,10.2546689 C192.411028,10.7178211 192.640625,11.2739996 192.640625,11.9232045 Z M176.323417,14.2864683 C176.323417,14.7773304 176.495614,15.1969384 176.840009,15.5452922 C177.184405,15.893646 177.602033,16.0678229 178.092896,16.0678229 C178.583758,16.0678229 179.003366,15.893646 179.351719,15.5452922 C179.700073,15.1969384 179.87425,14.7773304 179.87425,14.2864683 C179.87425,13.7956061 179.700073,13.3779774 179.351719,13.0335822 C179.003366,12.689187 178.583758,12.5169893 178.092896,12.5169893 C177.60995,12.5169893 177.194301,12.6911662 176.845947,13.03952 C176.497593,13.3878738 176.323417,13.8035232 176.323417,14.2864683 Z M185.942732,18.5023409 C186.02982,18.4152525 186.073364,18.3123297 186.073364,18.1935728 C186.073364,18.0748158 186.02982,17.9718931 185.942732,17.8848046 C185.86356,17.8056333 185.764596,17.7660477 185.645839,17.7660477 C185.527082,17.7660477 185.42416,17.8056333 185.337071,17.8848046 C185.012469,18.2173242 184.533482,18.4627553 183.900112,18.6210979 C183.266741,18.7794405 182.633371,18.8586118 182,18.8586118 C181.366629,18.8586118 180.733259,18.7794405 180.099888,18.6210979 C179.466518,18.4627553 178.987531,18.2173242 178.662929,17.8848046 C178.575841,17.8056333 178.472918,17.7660477 178.354161,17.7660477 C178.235404,17.7660477 178.13644,17.8056333 178.057268,17.8848046 C177.97018,17.963976 177.926636,18.0649194 177.926636,18.1876349 C177.926636,18.3103505 177.97018,18.4152525 178.057268,18.5023409 C178.397705,18.8427776 178.866795,19.11196 179.464539,19.3098883 C180.062282,19.5078166 180.547206,19.6245943 180.919312,19.6602214 C181.291417,19.6958485 181.651646,19.7136621 182,19.7136621 C182.348354,19.7136621 182.708583,19.6958485 183.080689,19.6602214 C183.452794,19.6245943 183.937718,19.5078166 184.535461,19.3098883 C185.133205,19.11196 185.602295,18.8427776 185.942732,18.5023409 Z M185.907105,16.0678229 C186.397967,16.0678229 186.815595,15.893646 187.159991,15.5452922 C187.504386,15.1969384 187.676583,14.7773304 187.676583,14.2864683 C187.676583,13.8035232 187.502407,13.3878738 187.154053,13.03952 C186.805699,12.6911662 186.39005,12.5169893 185.907105,12.5169893 C185.416242,12.5169893 184.996634,12.689187 184.648281,13.0335822 C184.299927,13.3779774 184.12575,13.7956061 184.12575,14.2864683 C184.12575,14.7773304 184.299927,15.1969384 184.648281,15.5452922 C184.996634,15.893646 185.416242,16.0678229 185.907105,16.0678229 Z" id="Shape" fill-rule="nonzero"></path>
                    <path d="M114.326667,18.5 L119.331883,18.5 C121.534951,18.5 123.326667,16.7110864 123.326667,14.5043496 L123.326667,8.9956504 C123.326667,6.79269577 121.538141,5 119.331883,5 L109.32145,5 C107.118382,5 105.326667,6.78891362 105.326667,8.9956504 L105.326667,14.5043496 C105.326667,16.7073042 107.115192,18.5 109.32145,18.5 L109.826667,18.5 L109.826667,21.2 L114.326667,18.5 Z" id="msj-v"></path>
                    <g id="b-v" transform="translate(138.000000, 0.000000)">
                        <path d="M13.9721042,19.9393166 L13.9721042,19.7589351 C13.9721042,19.1230581 13.9721896,18.4871526 13.9721042,17.8512472 C13.9720757,17.6437301 13.9718764,17.6433599 14.1845757,17.6432175 C14.8123377,17.642762 15.4358571,17.6023007 16.0406122,17.4179613 C16.8317284,17.1767882 17.4626509,16.7344476 17.8220188,15.963918 C18.0803047,15.410131 18.1512329,14.8209795 18.1356008,14.2176481 C18.1252363,13.8168508 18.0242113,13.4404556 17.810914,13.0984282 C17.4720757,12.5551196 16.9731293,12.2213781 16.3801054,12.0118394 C16.3357147,11.9961788 16.2932887,11.9749943 16.247873,11.9554613 C16.2620245,11.9331948 16.263676,11.9279556 16.2672352,11.9254499 C16.3097751,11.8954954 16.3526851,11.8660535 16.3953388,11.8362699 C16.9315006,11.461697 17.2939436,10.9668793 17.399012,10.3139749 C17.5473605,9.39222096 17.2912386,8.65181663 16.4919505,8.10107631 C15.7885051,7.61639522 14.9842341,7.43256834 14.1525997,7.34307517 C14.0142454,7.32818337 13.9677192,7.28698178 13.9691429,7.14541002 C13.9757773,6.49535308 13.9719334,5.84518223 13.9711361,5.19506834 C13.9710792,5.14526765 13.9653844,5.09549544 13.9624231,5.04748861 L12.6193707,5.04748861 L12.6193707,5.21431663 C12.6192568,5.85494875 12.6160393,6.49560934 12.6216771,7.13621298 C12.6227876,7.26297836 12.5796213,7.30324032 12.4579812,7.29982346 C12.2351167,7.29355923 12.0116828,7.29133827 11.7890177,7.30056378 C11.6551908,7.30611617 11.6226167,7.25620159 11.6237557,7.12841116 C11.6294789,6.49259112 11.6259482,5.85665718 11.6256634,5.22075171 C11.625635,5.16542711 11.6256634,5.11010251 11.6256634,5.04541002 L10.268545,5.04541002 C10.2657261,5.10073462 10.2613411,5.14708998 10.2613126,5.1934738 C10.2608855,5.81986902 10.2610564,6.44629271 10.2611418,7.07268793 C10.2611418,7.29754556 10.2611987,7.29774487 10.0421213,7.29777335 C9.24012813,7.29788724 8.43813497,7.2978303 7.63617027,7.2978303 L7.44915433,7.2978303 L7.44915433,8.70494875 C7.5135336,8.70494875 7.56928531,8.70469248 7.62500854,8.70500569 C7.96663724,8.70697039 8.30866458,8.69959567 8.64980923,8.71357631 C9.03767938,8.72949317 9.20558941,8.91662301 9.20553246,9.30150342 C9.2052762,11.3278417 9.20510535,13.3541515 9.20467825,15.3804613 C9.20464977,15.4611276 9.20726936,15.5421355 9.20072039,15.6223462 C9.16806093,16.0218622 8.97933656,16.2036674 8.58050399,16.2121526 C8.30063497,16.2181036 8.02056663,16.2136333 7.74058371,16.2149431 C7.69072608,16.2151993 7.64089692,16.2209795 7.58132973,16.2248235 C7.56789009,16.6475456 7.55675683,17.0548064 7.54109624,17.4618964 C7.53417711,17.642164 7.53004841,17.6429613 7.70775342,17.6430467 C8.49548121,17.6434169 9.28323747,17.6429328 10.0709937,17.6436446 C10.1307318,17.6437016 10.1904698,17.6506777 10.2635336,17.655262 L10.2635336,19.9377221 C10.3330382,19.9410251 10.3888183,19.9458087 10.4445985,19.9459226 C10.781529,19.9466913 11.1186589,19.939459 11.4552762,19.9497665 C11.5962215,19.9540945 11.6301054,19.9064579 11.6289095,19.7728303 C11.6230154,19.1132631 11.6289949,18.4536105 11.6238981,17.7940148 C11.6229584,17.6749943 11.6598035,17.6370103 11.7773149,17.6409396 C12.0048206,17.6485991 12.2329243,17.6479727 12.4605154,17.6415091 C12.5818423,17.6380638 12.6236133,17.6752506 12.6222751,17.8036674 C12.6154983,18.4442141 12.6191145,19.0849032 12.619086,19.7255353 L12.619086,19.9393166 L13.9721042,19.9393166 Z M3.52631834,12.4812016 C3.52196185,7.57117882 7.54539579,3.54458428 12.445111,3.526959 C17.4213354,3.5090205 21.4480723,7.51998292 21.4595757,12.4394305 C21.47125,17.442705 17.4715063,21.4584795 12.4952819,21.4592768 C7.5433172,21.4601025 3.53067483,17.4433599 3.52631834,12.4812016 L3.52631834,12.4812016 Z" id="Fill-4"></path>
                        <path d="M11.6380923,13.0113781 C12.2722323,13.0113781 12.8928759,13.0098121 13.5134909,13.0119476 C13.9009909,13.0132859 14.275877,13.0860649 14.6358428,13.2301993 C15.3091344,13.4997608 15.5724601,13.9874601 15.431287,14.69959 C15.2906264,15.4091572 14.8024146,15.8753588 14.0252506,15.9893679 C13.6194989,16.0489066 13.205262,16.0571071 12.7942711,16.0723405 C12.4485706,16.0851538 12.1019875,16.0733656 11.7558314,16.0753588 C11.6712927,16.0758428 11.6246526,16.056623 11.6249374,15.9572494 C11.6275569,15.0040604 11.6265888,14.0508998 11.6271298,13.0977107 C11.6271583,13.0748747 11.6327677,13.0520103 11.6380923,13.0113781" id="Fill-6"></path>
                        <path d="M11.632594,11.6049174 L11.632594,8.81237756 C11.6643992,8.80710991 11.6954926,8.79708713 11.7264151,8.79762813 C12.2284368,8.80651196 12.7309994,8.80534453 13.2322238,8.83065774 C13.56457,8.84745729 13.8854698,8.93695046 14.1820814,9.09611902 C14.5823662,9.31095387 14.7806293,9.65056093 14.7821384,10.1009311 C14.7847295,10.870578 14.3481122,11.4285222 13.622258,11.5927022 C13.5764721,11.6030666 13.5288639,11.6106691 13.4821099,11.610783 C12.8942397,11.6120928 12.3063696,11.6118935 11.7185279,11.6117227 C11.6954072,11.6116942 11.6723149,11.6081634 11.632594,11.6049174" id="Fill-8"></path>
                    </g>
                    <path d="M82.615175,16.3461837 C82.610622,16.5649149 82.606069,16.7836461 82.606069,17.0023773 C82.606069,18.155273 82.6015159,19.3081688 82.610622,20.4610645 C82.610622,20.6387836 82.5787507,20.711694 82.378417,20.7071371 C80.9760809,20.6980233 79.5737448,20.6980233 78.1714087,20.7071371 C77.9938401,20.7071371 77.9346506,20.6570112 77.9392037,20.4747352 C77.9483097,19.8367692 77.9437567,19.1988032 77.9392037,18.565394 C77.9392037,18.5061543 78.0120523,18.3922318 77.861802,18.3876749 C77.8299307,18.3876749 77.8026125,18.3922318 77.7707412,18.3922318 C77.7115517,18.3648904 77.6569152,18.3694473 77.6204909,18.4332439 C77.055914,18.4924836 76.4867841,18.5380526 75.9267603,18.3967887 C74.9341977,18.1461592 74.2239236,17.5583191 73.7868318,16.6241546 C73.5045434,16.0135299 73.1311941,15.4484743 72.6986554,14.9289877 C72.5620642,14.7649393 72.3435183,14.7011427 72.1978211,14.5370943 C72.1431846,14.4732977 72.0521238,14.4231718 72.0794421,14.3365907 C72.1067603,14.231782 72.2205863,14.2363389 72.3116471,14.2272251 C73.2222549,14.1497578 73.8687865,14.5826633 74.3195374,15.3299949 C74.733864,16.0135299 75.2756757,16.5193459 76.0587984,16.7244064 C76.6142692,16.8702272 77.16974,16.8383289 77.7161047,16.6697236 C77.8435898,16.6287115 77.9118854,16.5740287 77.9255445,16.4190941 C77.9665219,15.8540384 78.0849009,15.3072104 78.4764623,14.8287359 C78.326212,14.8013945 78.207833,14.7740531 78.0849009,14.7558255 C77.1196566,14.6100047 76.2227078,14.277351 75.4441381,13.6803971 C74.5745076,13.0150896 74.0326959,12.1264941 73.8642335,11.037395 C73.7185362,10.0850028 73.7731727,9.1280538 73.8961048,8.17566167 C73.9917186,7.44200074 74.1966053,6.74479502 74.7247579,6.197967 C74.9114325,6.00657719 74.9250916,5.85164258 74.8431369,5.61012688 C74.5654015,4.79899865 74.6428032,3.98331352 74.8932204,3.17218529 C74.9387508,3.02180758 75.0070463,2.97623858 75.1709558,3.01725068 C75.7856161,3.16762839 76.2591322,3.5276235 76.6871179,3.96508592 C76.8965577,4.17470332 77.0741262,4.41166213 77.2471417,4.64862094 C77.2972251,4.71697444 77.3336494,4.75342965 77.4201572,4.68507614 C77.747976,4.42533283 78.1440904,4.34330863 78.5402049,4.28406893 C79.6875708,4.12002052 80.8394897,4.11546362 81.9868556,4.27951203 C82.3693109,4.33419483 82.7563193,4.40254833 83.075032,4.64406404 C83.2252823,4.75798655 83.2844718,4.69418994 83.3664265,4.57571054 C83.6714802,4.12913432 84.0448294,3.74635471 84.4819212,3.4319286 C84.7596566,3.23142499 85.0692632,3.09471799 85.4061881,3.01269378 C85.5518854,2.97623858 85.6110749,3.01725068 85.6566053,3.14940079 C85.966212,4.02432562 86.0117424,4.89925045 85.6657114,5.77417528 C85.624734,5.88354089 85.5974158,5.96100819 85.6975827,6.05670309 C86.2576065,6.58530351 86.5216828,7.25972473 86.6309557,8.00249946 C86.7629939,8.90476569 86.8403955,9.81158882 86.7356756,10.7275258 C86.5626601,12.267758 85.7795374,13.3887554 84.4227316,14.1224164 C84.3726482,14.1178595 84.3316709,14.1315302 84.3134587,14.1816561 C84.2770344,14.1998837 84.2406101,14.2181113 84.2087388,14.231782 C84.0903598,14.2363389 83.9901929,14.2864648 83.9082382,14.3639321 C83.8718139,14.3776028 83.8308365,14.3867166 83.7944122,14.4003873 C83.7397758,14.3867166 83.7033514,14.4095011 83.6805862,14.4550701 C83.657821,14.459627 83.6305028,14.4687408 83.6077376,14.4732977 C83.425616,14.5006391 83.2434945,14.5234236 83.0886911,14.6327892 C83.0659259,14.6373461 83.0386077,14.641903 83.0158425,14.6464599 C82.8838044,14.641903 82.7517662,14.6510168 82.6379402,14.733041 C82.5377734,14.7467117 82.4421595,14.7603824 82.3419927,14.7740531 C82.264591,14.77861 82.1780833,14.7694962 82.1097877,14.7968376 C82.036939,14.8287359 82.0688103,14.8743049 82.1325529,14.8925325 L82.1371059,14.8970894 C82.141659,14.960886 82.1735302,15.006455 82.2327197,15.0246826 C82.2691441,15.097593 82.3055684,15.1705034 82.3419927,15.2388569 C82.3510988,15.3345518 82.3693109,15.4256898 82.4512656,15.4894864 C82.4603717,15.5304985 82.4694778,15.5669537 82.4785839,15.6079658 C82.5013491,15.735559 82.5013491,15.8631522 82.5741977,15.9770747 C82.5787507,16.0044161 82.5833038,16.0317575 82.5878568,16.054542 C82.5605386,16.1092248 82.5741977,16.1593507 82.615175,16.2049197 C82.610622,16.2550456 82.610622,16.3006147 82.615175,16.3461837 Z" id="github-v" fill-rule="nonzero"></path>
                    <path d="M51.9637124,11.3942308 C52.4108278,11.3942308 52.7840249,11.5402644 53.0833037,11.8323317 C53.3825826,12.124399 53.532222,12.4903846 53.532222,12.9302885 C53.532222,13.6298077 53.1968855,14.0985577 52.5262124,14.3365385 L50.6656355,14.9747596 L51.2714047,16.78125 C51.3218855,16.9326923 51.3471259,17.1021635 51.3471259,17.2896635 C51.3471259,17.7151442 51.1956835,18.0829327 50.8927989,18.3930288 C50.5899143,18.703125 50.2257316,18.8581731 49.8002509,18.8581731 C49.4613085,18.8581731 49.1530153,18.7608173 48.875371,18.5661058 C48.5977268,18.3713942 48.4048182,18.1117788 48.2966451,17.7872596 L47.7016932,16.0024038 L44.3483278,17.1490385 L44.9432797,18.9230769 C45.000972,19.0961538 45.0298182,19.265625 45.0298182,19.4314904 C45.0298182,19.8569712 44.8783759,20.2247596 44.5754912,20.5348558 C44.2726066,20.8449519 43.9048182,21 43.4721259,21 C43.1331835,21 42.8266932,20.9026442 42.5526547,20.7079327 C42.2786162,20.5132212 42.0875105,20.2536058 41.9793374,19.9290865 L41.3843855,18.1658654 L39.7293374,18.7391827 C39.5202028,18.8040865 39.3399143,18.8365385 39.188472,18.8365385 C38.7485682,18.8365385 38.3825826,18.6923077 38.0905153,18.4038462 C37.798448,18.1153846 37.6524143,17.7512019 37.6524143,17.3112981 C37.6524143,16.9723558 37.751573,16.6658654 37.9498903,16.3918269 C38.1482076,16.1177885 38.4060201,15.9266827 38.7233278,15.8185096 L40.4108278,15.2451923 L39.2750105,11.859375 L37.5875105,12.4435096 C37.4000105,12.5012019 37.2269335,12.5300481 37.0682797,12.5300481 C36.6355874,12.5300481 36.2714047,12.3840144 35.9757316,12.0919471 C35.6800585,11.7998798 35.532222,11.4375 35.532222,11.0048077 C35.532222,10.6658654 35.6313807,10.359375 35.829698,10.0853365 C36.0280153,9.81129808 36.2858278,9.62019231 36.6031355,9.51201923 L38.3014528,8.93870192 L37.7281355,7.21875 C37.6704432,7.04567308 37.641597,6.87620192 37.641597,6.71033654 C37.641597,6.27764423 37.7930393,5.90805288 38.0959239,5.6015625 C38.3988085,5.29507212 38.766597,5.14182692 39.1992893,5.14182692 C39.5382316,5.14182692 39.844722,5.23918269 40.1187605,5.43389423 C40.3927989,5.62860577 40.5839047,5.88822115 40.6920778,6.21274038 L41.2762124,7.94350962 L44.6295778,6.80769231 L44.0454432,5.07692308 C43.9877509,4.90384615 43.9589047,4.734375 43.9589047,4.56850962 C43.9589047,4.14302885 44.1121499,3.77524038 44.4186403,3.46514423 C44.7251307,3.15504808 45.0911162,3 45.516597,3 C45.8555393,3 46.1638326,3.09915865 46.4414768,3.29747596 C46.719121,3.49579327 46.9120297,3.75360577 47.0202028,4.07091346 L47.5935201,5.8125 L49.3459239,5.21754808 C49.4973662,5.17427885 49.6524143,5.15264423 49.8110682,5.15264423 C50.2437605,5.15264423 50.6133518,5.29507212 50.9198422,5.57992788 C51.2263326,5.86478365 51.3795778,6.21995192 51.3795778,6.64543269 C51.3795778,6.96995192 51.2714047,7.26382212 51.0550585,7.52704327 C50.8387124,7.79026442 50.5718855,7.97596154 50.2545778,8.08413462 L48.5562605,8.66826923 L49.6920778,12.0865385 L51.4661162,11.4807692 C51.6391932,11.4230769 51.8050585,11.3942308 51.9637124,11.3942308 Z M43.3747701,14.2283654 L46.7281355,13.0925481 L45.5923182,9.68509615 L42.2389528,10.8425481 L43.3747701,14.2283654 Z" id="slack-v" fill-rule="nonzero"></path>
                    <path d="M16.9899998,8.63443761 C16.3649301,8.9122442 15.6936573,9.09975036 14.9878649,9.18314546 C15.7074651,8.75182816 16.2603092,8.06873203 16.5210647,7.25496589 C15.8471366,7.65388128 15.1015139,7.94496734 14.3075639,8.10060277 C13.6713417,7.42334962 12.7653358,7 11.7621441,7 C9.83701443,7 8.27726108,8.56060374 8.27726108,10.4861274 C8.27726108,10.7591534 8.30753208,11.0258052 8.36701195,11.2807711 C5.47002368,11.1352281 2.9017679,9.74725749 1.1821624,7.63794591 C0.882638773,8.15318949 0.710572008,8.75182816 0.710572008,9.39083642 C0.710572008,10.6008621 1.32608244,11.6674694 2.2607661,12.2931982 C1.68986557,12.2746069 1.15242247,12.1184403 0.682425285,11.8571003 C0.681894214,11.8714421 0.681894214,11.8868463 0.681894214,11.9006569 C0.681894214,13.5903372 1.88317514,14.9995549 3.47797914,15.3198558 C3.18589049,15.3990015 2.87786974,15.4420269 2.55975866,15.4420269 C2.33458486,15.4420269 2.11684606,15.4202486 1.90441795,15.379879 C2.34733055,16.7641313 3.63517593,17.772309 5.15987865,17.8009926 C3.96762592,18.7358676 2.46469708,19.2941366 0.831656028,19.2941366 C0.55018879,19.2941366 0.272439044,19.2776701 0,19.2452682 C1.54222804,20.233261 3.37442043,20.8106525 5.34309789,20.8106525 C11.7541781,20.8106525 15.260835,15.4983319 15.260835,10.8908858 C15.260835,10.7400309 15.2565864,10.5891761 15.2502136,10.4393837 C15.9315767,9.94804314 16.5221269,9.33453146 16.9899998,8.63443761 Z" id="twitter-v" fill-rule="nonzero"></path>
                </g>
                <g id="N" transform="translate(0.000000, 34.076796)" fill="#3E396B">
                    <path d="M208.28125,5.73518825 C208.28125,4.63333087 209.173873,3.74009896 210.276339,3.74009896 L224.286161,3.74009896 C225.388018,3.74009896 226.28125,4.63272176 226.28125,5.73518825 L226.28125,19.7450097 C226.28125,20.8468671 225.388627,21.740099 224.286161,21.740099 L210.276339,21.740099 C209.174482,21.740099 208.28125,20.8474762 208.28125,19.7450097 L208.28125,5.73518825 Z M220.890876,11.344377 L220.890876,10.1892968 C220.890876,9.61175671 221.275902,9.51550003 221.468416,9.51550003 L223.201036,9.51550003 L223.201036,6.91656955 L220.890876,6.91656955 C218.291945,6.91656955 217.714405,8.84170324 217.714405,9.99678345 L217.714405,11.344377 L216.270555,11.344377 L216.270555,13.173254 L216.270555,14.3283343 L217.810662,14.3283343 L217.810662,21.740099 L220.698362,21.740099 L220.698362,14.3283343 L222.912266,14.3283343 L223.008523,13.173254 L223.201036,11.344377 L220.890876,11.344377 Z" id="Combined-Shape" fill-rule="nonzero"></path>
                    <path d="M192.640625,11.9232045 C192.640625,12.3823981 192.523847,12.8000268 192.290292,13.1760906 C192.056736,13.5521543 191.742031,13.8391503 191.346174,14.0370786 C191.44118,14.4012667 191.488682,14.781289 191.488682,15.1771456 C191.488682,16.404301 191.067095,17.5404094 190.22392,18.5854708 C189.380746,19.6305322 188.230783,20.4558932 186.77403,21.0615537 C185.317278,21.6672143 183.733852,21.9700446 182.023751,21.9700446 C180.313651,21.9700446 178.732204,21.6672143 177.27941,21.0615537 C175.826617,20.4558932 174.678632,19.6305322 173.835458,18.5854708 C172.992283,17.5404094 172.570696,16.404301 172.570696,15.1771456 C172.570696,14.8050404 172.61424,14.4329352 172.701329,14.06083 C172.297555,13.8629017 171.972953,13.5719471 171.727522,13.1879663 C171.482091,12.8039854 171.359375,12.3823981 171.359375,11.9232045 C171.359375,11.2739996 171.588972,10.7178211 172.048165,10.2546689 C172.507359,9.79151672 173.065517,9.55994062 173.722639,9.55994062 C174.395595,9.55994062 174.969587,9.80933027 175.444615,10.3081096 C177.17055,9.10470554 179.209211,8.46341788 181.560599,8.38424656 L182.93818,2.19700814 C182.961931,2.09408543 183.02131,2.01095555 183.116316,1.94761849 C183.211321,1.88428144 183.314244,1.86448861 183.425084,1.88824001 L187.807216,2.8501715 C187.949725,2.55723764 188.163487,2.32170297 188.448504,2.1435675 C188.73352,1.96543204 189.046247,1.87636431 189.386684,1.87636431 C189.877546,1.87636431 190.297154,2.04856192 190.645508,2.39295715 C190.993862,2.73735238 191.168038,3.15498107 191.168038,3.64584324 C191.168038,4.13670541 190.993862,4.55631339 190.645508,4.90466718 C190.297154,5.25302097 189.877546,5.42719787 189.386684,5.42719787 C188.895822,5.42719787 188.478193,5.25500026 188.133798,4.91060503 C187.789403,4.5662098 187.617205,4.1485811 187.617205,3.65771894 L183.650722,2.77891732 L182.415649,8.38424656 C184.790789,8.45550075 186.845285,9.08887128 188.579136,10.2843582 C189.03833,9.80141313 189.604405,9.55994062 190.277361,9.55994062 C190.934483,9.55994062 191.492641,9.79151672 191.951834,10.2546689 C192.411028,10.7178211 192.640625,11.2739996 192.640625,11.9232045 Z M176.323417,14.2864683 C176.323417,14.7773304 176.495614,15.1969384 176.840009,15.5452922 C177.184405,15.893646 177.602033,16.0678229 178.092896,16.0678229 C178.583758,16.0678229 179.003366,15.893646 179.351719,15.5452922 C179.700073,15.1969384 179.87425,14.7773304 179.87425,14.2864683 C179.87425,13.7956061 179.700073,13.3779774 179.351719,13.0335822 C179.003366,12.689187 178.583758,12.5169893 178.092896,12.5169893 C177.60995,12.5169893 177.194301,12.6911662 176.845947,13.03952 C176.497593,13.3878738 176.323417,13.8035232 176.323417,14.2864683 Z M185.942732,18.5023409 C186.02982,18.4152525 186.073364,18.3123297 186.073364,18.1935728 C186.073364,18.0748158 186.02982,17.9718931 185.942732,17.8848046 C185.86356,17.8056333 185.764596,17.7660477 185.645839,17.7660477 C185.527082,17.7660477 185.42416,17.8056333 185.337071,17.8848046 C185.012469,18.2173242 184.533482,18.4627553 183.900112,18.6210979 C183.266741,18.7794405 182.633371,18.8586118 182,18.8586118 C181.366629,18.8586118 180.733259,18.7794405 180.099888,18.6210979 C179.466518,18.4627553 178.987531,18.2173242 178.662929,17.8848046 C178.575841,17.8056333 178.472918,17.7660477 178.354161,17.7660477 C178.235404,17.7660477 178.13644,17.8056333 178.057268,17.8848046 C177.97018,17.963976 177.926636,18.0649194 177.926636,18.1876349 C177.926636,18.3103505 177.97018,18.4152525 178.057268,18.5023409 C178.397705,18.8427776 178.866795,19.11196 179.464539,19.3098883 C180.062282,19.5078166 180.547206,19.6245943 180.919312,19.6602214 C181.291417,19.6958485 181.651646,19.7136621 182,19.7136621 C182.348354,19.7136621 182.708583,19.6958485 183.080689,19.6602214 C183.452794,19.6245943 183.937718,19.5078166 184.535461,19.3098883 C185.133205,19.11196 185.602295,18.8427776 185.942732,18.5023409 Z M185.907105,16.0678229 C186.397967,16.0678229 186.815595,15.893646 187.159991,15.5452922 C187.504386,15.1969384 187.676583,14.7773304 187.676583,14.2864683 C187.676583,13.8035232 187.502407,13.3878738 187.154053,13.03952 C186.805699,12.6911662 186.39005,12.5169893 185.907105,12.5169893 C185.416242,12.5169893 184.996634,12.689187 184.648281,13.0335822 C184.299927,13.3779774 184.12575,13.7956061 184.12575,14.2864683 C184.12575,14.7773304 184.299927,15.1969384 184.648281,15.5452922 C184.996634,15.893646 185.416242,16.0678229 185.907105,16.0678229 Z" id="Shape" fill-rule="nonzero"></path>
                    <g id="b-n" transform="translate(138.000000, 0.000000)">
                        <path d="M13.9721042,19.9393166 L13.9721042,19.7589351 C13.9721042,19.1230581 13.9721896,18.4871526 13.9721042,17.8512472 C13.9720757,17.6437301 13.9718764,17.6433599 14.1845757,17.6432175 C14.8123377,17.642762 15.4358571,17.6023007 16.0406122,17.4179613 C16.8317284,17.1767882 17.4626509,16.7344476 17.8220188,15.963918 C18.0803047,15.410131 18.1512329,14.8209795 18.1356008,14.2176481 C18.1252363,13.8168508 18.0242113,13.4404556 17.810914,13.0984282 C17.4720757,12.5551196 16.9731293,12.2213781 16.3801054,12.0118394 C16.3357147,11.9961788 16.2932887,11.9749943 16.247873,11.9554613 C16.2620245,11.9331948 16.263676,11.9279556 16.2672352,11.9254499 C16.3097751,11.8954954 16.3526851,11.8660535 16.3953388,11.8362699 C16.9315006,11.461697 17.2939436,10.9668793 17.399012,10.3139749 C17.5473605,9.39222096 17.2912386,8.65181663 16.4919505,8.10107631 C15.7885051,7.61639522 14.9842341,7.43256834 14.1525997,7.34307517 C14.0142454,7.32818337 13.9677192,7.28698178 13.9691429,7.14541002 C13.9757773,6.49535308 13.9719334,5.84518223 13.9711361,5.19506834 C13.9710792,5.14526765 13.9653844,5.09549544 13.9624231,5.04748861 L12.6193707,5.04748861 L12.6193707,5.21431663 C12.6192568,5.85494875 12.6160393,6.49560934 12.6216771,7.13621298 C12.6227876,7.26297836 12.5796213,7.30324032 12.4579812,7.29982346 C12.2351167,7.29355923 12.0116828,7.29133827 11.7890177,7.30056378 C11.6551908,7.30611617 11.6226167,7.25620159 11.6237557,7.12841116 C11.6294789,6.49259112 11.6259482,5.85665718 11.6256634,5.22075171 C11.625635,5.16542711 11.6256634,5.11010251 11.6256634,5.04541002 L10.268545,5.04541002 C10.2657261,5.10073462 10.2613411,5.14708998 10.2613126,5.1934738 C10.2608855,5.81986902 10.2610564,6.44629271 10.2611418,7.07268793 C10.2611418,7.29754556 10.2611987,7.29774487 10.0421213,7.29777335 C9.24012813,7.29788724 8.43813497,7.2978303 7.63617027,7.2978303 L7.44915433,7.2978303 L7.44915433,8.70494875 C7.5135336,8.70494875 7.56928531,8.70469248 7.62500854,8.70500569 C7.96663724,8.70697039 8.30866458,8.69959567 8.64980923,8.71357631 C9.03767938,8.72949317 9.20558941,8.91662301 9.20553246,9.30150342 C9.2052762,11.3278417 9.20510535,13.3541515 9.20467825,15.3804613 C9.20464977,15.4611276 9.20726936,15.5421355 9.20072039,15.6223462 C9.16806093,16.0218622 8.97933656,16.2036674 8.58050399,16.2121526 C8.30063497,16.2181036 8.02056663,16.2136333 7.74058371,16.2149431 C7.69072608,16.2151993 7.64089692,16.2209795 7.58132973,16.2248235 C7.56789009,16.6475456 7.55675683,17.0548064 7.54109624,17.4618964 C7.53417711,17.642164 7.53004841,17.6429613 7.70775342,17.6430467 C8.49548121,17.6434169 9.28323747,17.6429328 10.0709937,17.6436446 C10.1307318,17.6437016 10.1904698,17.6506777 10.2635336,17.655262 L10.2635336,19.9377221 C10.3330382,19.9410251 10.3888183,19.9458087 10.4445985,19.9459226 C10.781529,19.9466913 11.1186589,19.939459 11.4552762,19.9497665 C11.5962215,19.9540945 11.6301054,19.9064579 11.6289095,19.7728303 C11.6230154,19.1132631 11.6289949,18.4536105 11.6238981,17.7940148 C11.6229584,17.6749943 11.6598035,17.6370103 11.7773149,17.6409396 C12.0048206,17.6485991 12.2329243,17.6479727 12.4605154,17.6415091 C12.5818423,17.6380638 12.6236133,17.6752506 12.6222751,17.8036674 C12.6154983,18.4442141 12.6191145,19.0849032 12.619086,19.7255353 L12.619086,19.9393166 L13.9721042,19.9393166 Z M3.52631834,12.4812016 C3.52196185,7.57117882 7.54539579,3.54458428 12.445111,3.526959 C17.4213354,3.5090205 21.4480723,7.51998292 21.4595757,12.4394305 C21.47125,17.442705 17.4715063,21.4584795 12.4952819,21.4592768 C7.5433172,21.4601025 3.53067483,17.4433599 3.52631834,12.4812016 L3.52631834,12.4812016 Z" id="Fill-4"></path>
                        <path d="M11.6380923,13.0113781 C12.2722323,13.0113781 12.8928759,13.0098121 13.5134909,13.0119476 C13.9009909,13.0132859 14.275877,13.0860649 14.6358428,13.2301993 C15.3091344,13.4997608 15.5724601,13.9874601 15.431287,14.69959 C15.2906264,15.4091572 14.8024146,15.8753588 14.0252506,15.9893679 C13.6194989,16.0489066 13.205262,16.0571071 12.7942711,16.0723405 C12.4485706,16.0851538 12.1019875,16.0733656 11.7558314,16.0753588 C11.6712927,16.0758428 11.6246526,16.056623 11.6249374,15.9572494 C11.6275569,15.0040604 11.6265888,14.0508998 11.6271298,13.0977107 C11.6271583,13.0748747 11.6327677,13.0520103 11.6380923,13.0113781" id="Fill-6"></path>
                        <path d="M11.632594,11.6049174 L11.632594,8.81237756 C11.6643992,8.80710991 11.6954926,8.79708713 11.7264151,8.79762813 C12.2284368,8.80651196 12.7309994,8.80534453 13.2322238,8.83065774 C13.56457,8.84745729 13.8854698,8.93695046 14.1820814,9.09611902 C14.5823662,9.31095387 14.7806293,9.65056093 14.7821384,10.1009311 C14.7847295,10.870578 14.3481122,11.4285222 13.622258,11.5927022 C13.5764721,11.6030666 13.5288639,11.6106691 13.4821099,11.610783 C12.8942397,11.6120928 12.3063696,11.6118935 11.7185279,11.6117227 C11.6954072,11.6116942 11.6723149,11.6081634 11.632594,11.6049174" id="Fill-8"></path>
                    </g>
                    <path d="M114.326667,19.5 L119.331883,19.5 C121.534951,19.5 123.326667,17.7110864 123.326667,15.5043496 L123.326667,9.9956504 C123.326667,7.79269577 121.538141,6 119.331883,6 L109.32145,6 C107.118382,6 105.326667,7.78891362 105.326667,9.9956504 L105.326667,15.5043496 C105.326667,17.7073042 107.115192,19.5 109.32145,19.5 L109.826667,19.5 L109.826667,22.2 L114.326667,19.5 Z" id="msj-n"></path>
                    <path d="M82.615175,17.3461837 C82.610622,17.5649149 82.606069,17.7836461 82.606069,18.0023773 C82.606069,19.155273 82.6015159,20.3081688 82.610622,21.4610645 C82.610622,21.6387836 82.5787507,21.711694 82.378417,21.7071371 C80.9760809,21.6980233 79.5737448,21.6980233 78.1714087,21.7071371 C77.9938401,21.7071371 77.9346506,21.6570112 77.9392037,21.4747352 C77.9483097,20.8367692 77.9437567,20.1988032 77.9392037,19.565394 C77.9392037,19.5061543 78.0120523,19.3922318 77.861802,19.3876749 C77.8299307,19.3876749 77.8026125,19.3922318 77.7707412,19.3922318 C77.7115517,19.3648904 77.6569152,19.3694473 77.6204909,19.4332439 C77.055914,19.4924836 76.4867841,19.5380526 75.9267603,19.3967887 C74.9341977,19.1461592 74.2239236,18.5583191 73.7868318,17.6241546 C73.5045434,17.0135299 73.1311941,16.4484743 72.6986554,15.9289877 C72.5620642,15.7649393 72.3435183,15.7011427 72.1978211,15.5370943 C72.1431846,15.4732977 72.0521238,15.4231718 72.0794421,15.3365907 C72.1067603,15.231782 72.2205863,15.2363389 72.3116471,15.2272251 C73.2222549,15.1497578 73.8687865,15.5826633 74.3195374,16.3299949 C74.733864,17.0135299 75.2756757,17.5193459 76.0587984,17.7244064 C76.6142692,17.8702272 77.16974,17.8383289 77.7161047,17.6697236 C77.8435898,17.6287115 77.9118854,17.5740287 77.9255445,17.4190941 C77.9665219,16.8540384 78.0849009,16.3072104 78.4764623,15.8287359 C78.326212,15.8013945 78.207833,15.7740531 78.0849009,15.7558255 C77.1196566,15.6100047 76.2227078,15.277351 75.4441381,14.6803971 C74.5745076,14.0150896 74.0326959,13.1264941 73.8642335,12.037395 C73.7185362,11.0850028 73.7731727,10.1280538 73.8961048,9.17566167 C73.9917186,8.44200074 74.1966053,7.74479502 74.7247579,7.197967 C74.9114325,7.00657719 74.9250916,6.85164258 74.8431369,6.61012688 C74.5654015,5.79899865 74.6428032,4.98331352 74.8932204,4.17218529 C74.9387508,4.02180758 75.0070463,3.97623858 75.1709558,4.01725068 C75.7856161,4.16762839 76.2591322,4.5276235 76.6871179,4.96508592 C76.8965577,5.17470332 77.0741262,5.41166213 77.2471417,5.64862094 C77.2972251,5.71697444 77.3336494,5.75342965 77.4201572,5.68507614 C77.747976,5.42533283 78.1440904,5.34330863 78.5402049,5.28406893 C79.6875708,5.12002052 80.8394897,5.11546362 81.9868556,5.27951203 C82.3693109,5.33419483 82.7563193,5.40254833 83.075032,5.64406404 C83.2252823,5.75798655 83.2844718,5.69418994 83.3664265,5.57571054 C83.6714802,5.12913432 84.0448294,4.74635471 84.4819212,4.4319286 C84.7596566,4.23142499 85.0692632,4.09471799 85.4061881,4.01269378 C85.5518854,3.97623858 85.6110749,4.01725068 85.6566053,4.14940079 C85.966212,5.02432562 86.0117424,5.89925045 85.6657114,6.77417528 C85.624734,6.88354089 85.5974158,6.96100819 85.6975827,7.05670309 C86.2576065,7.58530351 86.5216828,8.25972473 86.6309557,9.00249946 C86.7629939,9.90476569 86.8403955,10.8115888 86.7356756,11.7275258 C86.5626601,13.267758 85.7795374,14.3887554 84.4227316,15.1224164 C84.3726482,15.1178595 84.3316709,15.1315302 84.3134587,15.1816561 C84.2770344,15.1998837 84.2406101,15.2181113 84.2087388,15.231782 C84.0903598,15.2363389 83.9901929,15.2864648 83.9082382,15.3639321 C83.8718139,15.3776028 83.8308365,15.3867166 83.7944122,15.4003873 C83.7397758,15.3867166 83.7033514,15.4095011 83.6805862,15.4550701 C83.657821,15.459627 83.6305028,15.4687408 83.6077376,15.4732977 C83.425616,15.5006391 83.2434945,15.5234236 83.0886911,15.6327892 C83.0659259,15.6373461 83.0386077,15.641903 83.0158425,15.6464599 C82.8838044,15.641903 82.7517662,15.6510168 82.6379402,15.733041 C82.5377734,15.7467117 82.4421595,15.7603824 82.3419927,15.7740531 C82.264591,15.77861 82.1780833,15.7694962 82.1097877,15.7968376 C82.036939,15.8287359 82.0688103,15.8743049 82.1325529,15.8925325 L82.1371059,15.8970894 C82.141659,15.960886 82.1735302,16.006455 82.2327197,16.0246826 C82.2691441,16.097593 82.3055684,16.1705034 82.3419927,16.2388569 C82.3510988,16.3345518 82.3693109,16.4256898 82.4512656,16.4894864 C82.4603717,16.5304985 82.4694778,16.5669537 82.4785839,16.6079658 C82.5013491,16.735559 82.5013491,16.8631522 82.5741977,16.9770747 C82.5787507,17.0044161 82.5833038,17.0317575 82.5878568,17.054542 C82.5605386,17.1092248 82.5741977,17.1593507 82.615175,17.2049197 C82.610622,17.2550456 82.610622,17.3006147 82.615175,17.3461837 Z" id="github-n" fill-rule="nonzero"></path>
                    <path d="M51.9637124,12.3942308 C52.4108278,12.3942308 52.7840249,12.5402644 53.0833037,12.8323317 C53.3825826,13.124399 53.532222,13.4903846 53.532222,13.9302885 C53.532222,14.6298077 53.1968855,15.0985577 52.5262124,15.3365385 L50.6656355,15.9747596 L51.2714047,17.78125 C51.3218855,17.9326923 51.3471259,18.1021635 51.3471259,18.2896635 C51.3471259,18.7151442 51.1956835,19.0829327 50.8927989,19.3930288 C50.5899143,19.703125 50.2257316,19.8581731 49.8002509,19.8581731 C49.4613085,19.8581731 49.1530153,19.7608173 48.875371,19.5661058 C48.5977268,19.3713942 48.4048182,19.1117788 48.2966451,18.7872596 L47.7016932,17.0024038 L44.3483278,18.1490385 L44.9432797,19.9230769 C45.000972,20.0961538 45.0298182,20.265625 45.0298182,20.4314904 C45.0298182,20.8569712 44.8783759,21.2247596 44.5754912,21.5348558 C44.2726066,21.8449519 43.9048182,22 43.4721259,22 C43.1331835,22 42.8266932,21.9026442 42.5526547,21.7079327 C42.2786162,21.5132212 42.0875105,21.2536058 41.9793374,20.9290865 L41.3843855,19.1658654 L39.7293374,19.7391827 C39.5202028,19.8040865 39.3399143,19.8365385 39.188472,19.8365385 C38.7485682,19.8365385 38.3825826,19.6923077 38.0905153,19.4038462 C37.798448,19.1153846 37.6524143,18.7512019 37.6524143,18.3112981 C37.6524143,17.9723558 37.751573,17.6658654 37.9498903,17.3918269 C38.1482076,17.1177885 38.4060201,16.9266827 38.7233278,16.8185096 L40.4108278,16.2451923 L39.2750105,12.859375 L37.5875105,13.4435096 C37.4000105,13.5012019 37.2269335,13.5300481 37.0682797,13.5300481 C36.6355874,13.5300481 36.2714047,13.3840144 35.9757316,13.0919471 C35.6800585,12.7998798 35.532222,12.4375 35.532222,12.0048077 C35.532222,11.6658654 35.6313807,11.359375 35.829698,11.0853365 C36.0280153,10.8112981 36.2858278,10.6201923 36.6031355,10.5120192 L38.3014528,9.93870192 L37.7281355,8.21875 C37.6704432,8.04567308 37.641597,7.87620192 37.641597,7.71033654 C37.641597,7.27764423 37.7930393,6.90805288 38.0959239,6.6015625 C38.3988085,6.29507212 38.766597,6.14182692 39.1992893,6.14182692 C39.5382316,6.14182692 39.844722,6.23918269 40.1187605,6.43389423 C40.3927989,6.62860577 40.5839047,6.88822115 40.6920778,7.21274038 L41.2762124,8.94350962 L44.6295778,7.80769231 L44.0454432,6.07692308 C43.9877509,5.90384615 43.9589047,5.734375 43.9589047,5.56850962 C43.9589047,5.14302885 44.1121499,4.77524038 44.4186403,4.46514423 C44.7251307,4.15504808 45.0911162,4 45.516597,4 C45.8555393,4 46.1638326,4.09915865 46.4414768,4.29747596 C46.719121,4.49579327 46.9120297,4.75360577 47.0202028,5.07091346 L47.5935201,6.8125 L49.3459239,6.21754808 C49.4973662,6.17427885 49.6524143,6.15264423 49.8110682,6.15264423 C50.2437605,6.15264423 50.6133518,6.29507212 50.9198422,6.57992788 C51.2263326,6.86478365 51.3795778,7.21995192 51.3795778,7.64543269 C51.3795778,7.96995192 51.2714047,8.26382212 51.0550585,8.52704327 C50.8387124,8.79026442 50.5718855,8.97596154 50.2545778,9.08413462 L48.5562605,9.66826923 L49.6920778,13.0865385 L51.4661162,12.4807692 C51.6391932,12.4230769 51.8050585,12.3942308 51.9637124,12.3942308 Z M43.3747701,15.2283654 L46.7281355,14.0925481 L45.5923182,10.6850962 L42.2389528,11.8425481 L43.3747701,15.2283654 Z" id="slack-n" fill-rule="nonzero"></path>
                    <path d="M16.9899998,9.63443761 C16.3649301,9.9122442 15.6936573,10.0997504 14.9878649,10.1831455 C15.7074651,9.75182816 16.2603092,9.06873203 16.5210647,8.25496589 C15.8471366,8.65388128 15.1015139,8.94496734 14.3075639,9.10060277 C13.6713417,8.42334962 12.7653358,8 11.7621441,8 C9.83701443,8 8.27726108,9.56060374 8.27726108,11.4861274 C8.27726108,11.7591534 8.30753208,12.0258052 8.36701195,12.2807711 C5.47002368,12.1352281 2.9017679,10.7472575 1.1821624,8.63794591 C0.882638773,9.15318949 0.710572008,9.75182816 0.710572008,10.3908364 C0.710572008,11.6008621 1.32608244,12.6674694 2.2607661,13.2931982 C1.68986557,13.2746069 1.15242247,13.1184403 0.682425285,12.8571003 C0.681894214,12.8714421 0.681894214,12.8868463 0.681894214,12.9006569 C0.681894214,14.5903372 1.88317514,15.9995549 3.47797914,16.3198558 C3.18589049,16.3990015 2.87786974,16.4420269 2.55975866,16.4420269 C2.33458486,16.4420269 2.11684606,16.4202486 1.90441795,16.379879 C2.34733055,17.7641313 3.63517593,18.772309 5.15987865,18.8009926 C3.96762592,19.7358676 2.46469708,20.2941366 0.831656028,20.2941366 C0.55018879,20.2941366 0.272439044,20.2776701 0,20.2452682 C1.54222804,21.233261 3.37442043,21.8106525 5.34309789,21.8106525 C11.7541781,21.8106525 15.260835,16.4983319 15.260835,11.8908858 C15.260835,11.7400309 15.2565864,11.5891761 15.2502136,11.4393837 C15.9315767,10.9480431 16.5221269,10.3345315 16.9899998,9.63443761 Z" id="twitter-n" fill-rule="nonzero"></path>
                </g>
                <g id="V" transform="translate(0.000000, 0.076796)" fill="#30D7A9">
                    <path d="M208.28125,5.73518825 C208.28125,4.63333087 209.173873,3.74009896 210.276339,3.74009896 L224.286161,3.74009896 C225.388018,3.74009896 226.28125,4.63272176 226.28125,5.73518825 L226.28125,19.7450097 C226.28125,20.8468671 225.388627,21.740099 224.286161,21.740099 L210.276339,21.740099 C209.174482,21.740099 208.28125,20.8474762 208.28125,19.7450097 L208.28125,5.73518825 Z M220.890876,11.344377 L220.890876,10.1892968 C220.890876,9.61175671 221.275902,9.51550003 221.468416,9.51550003 L223.201036,9.51550003 L223.201036,6.91656955 L220.890876,6.91656955 C218.291945,6.91656955 217.714405,8.84170324 217.714405,9.99678345 L217.714405,11.344377 L216.270555,11.344377 L216.270555,13.173254 L216.270555,14.3283343 L217.810662,14.3283343 L217.810662,21.740099 L220.698362,21.740099 L220.698362,14.3283343 L222.912266,14.3283343 L223.008523,13.173254 L223.201036,11.344377 L220.890876,11.344377 Z" id="Combined-Shape" fill-rule="nonzero"></path>
                    <path d="M192.640625,11.9232045 C192.640625,12.3823981 192.523847,12.8000268 192.290292,13.1760906 C192.056736,13.5521543 191.742031,13.8391503 191.346174,14.0370786 C191.44118,14.4012667 191.488682,14.781289 191.488682,15.1771456 C191.488682,16.404301 191.067095,17.5404094 190.22392,18.5854708 C189.380746,19.6305322 188.230783,20.4558932 186.77403,21.0615537 C185.317278,21.6672143 183.733852,21.9700446 182.023751,21.9700446 C180.313651,21.9700446 178.732204,21.6672143 177.27941,21.0615537 C175.826617,20.4558932 174.678632,19.6305322 173.835458,18.5854708 C172.992283,17.5404094 172.570696,16.404301 172.570696,15.1771456 C172.570696,14.8050404 172.61424,14.4329352 172.701329,14.06083 C172.297555,13.8629017 171.972953,13.5719471 171.727522,13.1879663 C171.482091,12.8039854 171.359375,12.3823981 171.359375,11.9232045 C171.359375,11.2739996 171.588972,10.7178211 172.048165,10.2546689 C172.507359,9.79151672 173.065517,9.55994062 173.722639,9.55994062 C174.395595,9.55994062 174.969587,9.80933027 175.444615,10.3081096 C177.17055,9.10470554 179.209211,8.46341788 181.560599,8.38424656 L182.93818,2.19700814 C182.961931,2.09408543 183.02131,2.01095555 183.116316,1.94761849 C183.211321,1.88428144 183.314244,1.86448861 183.425084,1.88824001 L187.807216,2.8501715 C187.949725,2.55723764 188.163487,2.32170297 188.448504,2.1435675 C188.73352,1.96543204 189.046247,1.87636431 189.386684,1.87636431 C189.877546,1.87636431 190.297154,2.04856192 190.645508,2.39295715 C190.993862,2.73735238 191.168038,3.15498107 191.168038,3.64584324 C191.168038,4.13670541 190.993862,4.55631339 190.645508,4.90466718 C190.297154,5.25302097 189.877546,5.42719787 189.386684,5.42719787 C188.895822,5.42719787 188.478193,5.25500026 188.133798,4.91060503 C187.789403,4.5662098 187.617205,4.1485811 187.617205,3.65771894 L183.650722,2.77891732 L182.415649,8.38424656 C184.790789,8.45550075 186.845285,9.08887128 188.579136,10.2843582 C189.03833,9.80141313 189.604405,9.55994062 190.277361,9.55994062 C190.934483,9.55994062 191.492641,9.79151672 191.951834,10.2546689 C192.411028,10.7178211 192.640625,11.2739996 192.640625,11.9232045 Z M176.323417,14.2864683 C176.323417,14.7773304 176.495614,15.1969384 176.840009,15.5452922 C177.184405,15.893646 177.602033,16.0678229 178.092896,16.0678229 C178.583758,16.0678229 179.003366,15.893646 179.351719,15.5452922 C179.700073,15.1969384 179.87425,14.7773304 179.87425,14.2864683 C179.87425,13.7956061 179.700073,13.3779774 179.351719,13.0335822 C179.003366,12.689187 178.583758,12.5169893 178.092896,12.5169893 C177.60995,12.5169893 177.194301,12.6911662 176.845947,13.03952 C176.497593,13.3878738 176.323417,13.8035232 176.323417,14.2864683 Z M185.942732,18.5023409 C186.02982,18.4152525 186.073364,18.3123297 186.073364,18.1935728 C186.073364,18.0748158 186.02982,17.9718931 185.942732,17.8848046 C185.86356,17.8056333 185.764596,17.7660477 185.645839,17.7660477 C185.527082,17.7660477 185.42416,17.8056333 185.337071,17.8848046 C185.012469,18.2173242 184.533482,18.4627553 183.900112,18.6210979 C183.266741,18.7794405 182.633371,18.8586118 182,18.8586118 C181.366629,18.8586118 180.733259,18.7794405 180.099888,18.6210979 C179.466518,18.4627553 178.987531,18.2173242 178.662929,17.8848046 C178.575841,17.8056333 178.472918,17.7660477 178.354161,17.7660477 C178.235404,17.7660477 178.13644,17.8056333 178.057268,17.8848046 C177.97018,17.963976 177.926636,18.0649194 177.926636,18.1876349 C177.926636,18.3103505 177.97018,18.4152525 178.057268,18.5023409 C178.397705,18.8427776 178.866795,19.11196 179.464539,19.3098883 C180.062282,19.5078166 180.547206,19.6245943 180.919312,19.6602214 C181.291417,19.6958485 181.651646,19.7136621 182,19.7136621 C182.348354,19.7136621 182.708583,19.6958485 183.080689,19.6602214 C183.452794,19.6245943 183.937718,19.5078166 184.535461,19.3098883 C185.133205,19.11196 185.602295,18.8427776 185.942732,18.5023409 Z M185.907105,16.0678229 C186.397967,16.0678229 186.815595,15.893646 187.159991,15.5452922 C187.504386,15.1969384 187.676583,14.7773304 187.676583,14.2864683 C187.676583,13.8035232 187.502407,13.3878738 187.154053,13.03952 C186.805699,12.6911662 186.39005,12.5169893 185.907105,12.5169893 C185.416242,12.5169893 184.996634,12.689187 184.648281,13.0335822 C184.299927,13.3779774 184.12575,13.7956061 184.12575,14.2864683 C184.12575,14.7773304 184.299927,15.1969384 184.648281,15.5452922 C184.996634,15.893646 185.416242,16.0678229 185.907105,16.0678229 Z" id="Shape" fill-rule="nonzero"></path>
                    <path d="M114.326667,18.5 L119.331883,18.5 C121.534951,18.5 123.326667,16.7110864 123.326667,14.5043496 L123.326667,8.9956504 C123.326667,6.79269577 121.538141,5 119.331883,5 L109.32145,5 C107.118382,5 105.326667,6.78891362 105.326667,8.9956504 L105.326667,14.5043496 C105.326667,16.7073042 107.115192,18.5 109.32145,18.5 L109.826667,18.5 L109.826667,21.2 L114.326667,18.5 Z" id="msj-v"></path>
                    <g id="b-v" transform="translate(138.000000, 0.000000)">
                        <path d="M13.9721042,19.9393166 L13.9721042,19.7589351 C13.9721042,19.1230581 13.9721896,18.4871526 13.9721042,17.8512472 C13.9720757,17.6437301 13.9718764,17.6433599 14.1845757,17.6432175 C14.8123377,17.642762 15.4358571,17.6023007 16.0406122,17.4179613 C16.8317284,17.1767882 17.4626509,16.7344476 17.8220188,15.963918 C18.0803047,15.410131 18.1512329,14.8209795 18.1356008,14.2176481 C18.1252363,13.8168508 18.0242113,13.4404556 17.810914,13.0984282 C17.4720757,12.5551196 16.9731293,12.2213781 16.3801054,12.0118394 C16.3357147,11.9961788 16.2932887,11.9749943 16.247873,11.9554613 C16.2620245,11.9331948 16.263676,11.9279556 16.2672352,11.9254499 C16.3097751,11.8954954 16.3526851,11.8660535 16.3953388,11.8362699 C16.9315006,11.461697 17.2939436,10.9668793 17.399012,10.3139749 C17.5473605,9.39222096 17.2912386,8.65181663 16.4919505,8.10107631 C15.7885051,7.61639522 14.9842341,7.43256834 14.1525997,7.34307517 C14.0142454,7.32818337 13.9677192,7.28698178 13.9691429,7.14541002 C13.9757773,6.49535308 13.9719334,5.84518223 13.9711361,5.19506834 C13.9710792,5.14526765 13.9653844,5.09549544 13.9624231,5.04748861 L12.6193707,5.04748861 L12.6193707,5.21431663 C12.6192568,5.85494875 12.6160393,6.49560934 12.6216771,7.13621298 C12.6227876,7.26297836 12.5796213,7.30324032 12.4579812,7.29982346 C12.2351167,7.29355923 12.0116828,7.29133827 11.7890177,7.30056378 C11.6551908,7.30611617 11.6226167,7.25620159 11.6237557,7.12841116 C11.6294789,6.49259112 11.6259482,5.85665718 11.6256634,5.22075171 C11.625635,5.16542711 11.6256634,5.11010251 11.6256634,5.04541002 L10.268545,5.04541002 C10.2657261,5.10073462 10.2613411,5.14708998 10.2613126,5.1934738 C10.2608855,5.81986902 10.2610564,6.44629271 10.2611418,7.07268793 C10.2611418,7.29754556 10.2611987,7.29774487 10.0421213,7.29777335 C9.24012813,7.29788724 8.43813497,7.2978303 7.63617027,7.2978303 L7.44915433,7.2978303 L7.44915433,8.70494875 C7.5135336,8.70494875 7.56928531,8.70469248 7.62500854,8.70500569 C7.96663724,8.70697039 8.30866458,8.69959567 8.64980923,8.71357631 C9.03767938,8.72949317 9.20558941,8.91662301 9.20553246,9.30150342 C9.2052762,11.3278417 9.20510535,13.3541515 9.20467825,15.3804613 C9.20464977,15.4611276 9.20726936,15.5421355 9.20072039,15.6223462 C9.16806093,16.0218622 8.97933656,16.2036674 8.58050399,16.2121526 C8.30063497,16.2181036 8.02056663,16.2136333 7.74058371,16.2149431 C7.69072608,16.2151993 7.64089692,16.2209795 7.58132973,16.2248235 C7.56789009,16.6475456 7.55675683,17.0548064 7.54109624,17.4618964 C7.53417711,17.642164 7.53004841,17.6429613 7.70775342,17.6430467 C8.49548121,17.6434169 9.28323747,17.6429328 10.0709937,17.6436446 C10.1307318,17.6437016 10.1904698,17.6506777 10.2635336,17.655262 L10.2635336,19.9377221 C10.3330382,19.9410251 10.3888183,19.9458087 10.4445985,19.9459226 C10.781529,19.9466913 11.1186589,19.939459 11.4552762,19.9497665 C11.5962215,19.9540945 11.6301054,19.9064579 11.6289095,19.7728303 C11.6230154,19.1132631 11.6289949,18.4536105 11.6238981,17.7940148 C11.6229584,17.6749943 11.6598035,17.6370103 11.7773149,17.6409396 C12.0048206,17.6485991 12.2329243,17.6479727 12.4605154,17.6415091 C12.5818423,17.6380638 12.6236133,17.6752506 12.6222751,17.8036674 C12.6154983,18.4442141 12.6191145,19.0849032 12.619086,19.7255353 L12.619086,19.9393166 L13.9721042,19.9393166 Z M3.52631834,12.4812016 C3.52196185,7.57117882 7.54539579,3.54458428 12.445111,3.526959 C17.4213354,3.5090205 21.4480723,7.51998292 21.4595757,12.4394305 C21.47125,17.442705 17.4715063,21.4584795 12.4952819,21.4592768 C7.5433172,21.4601025 3.53067483,17.4433599 3.52631834,12.4812016 L3.52631834,12.4812016 Z" id="Fill-4"></path>
                        <path d="M11.6380923,13.0113781 C12.2722323,13.0113781 12.8928759,13.0098121 13.5134909,13.0119476 C13.9009909,13.0132859 14.275877,13.0860649 14.6358428,13.2301993 C15.3091344,13.4997608 15.5724601,13.9874601 15.431287,14.69959 C15.2906264,15.4091572 14.8024146,15.8753588 14.0252506,15.9893679 C13.6194989,16.0489066 13.205262,16.0571071 12.7942711,16.0723405 C12.4485706,16.0851538 12.1019875,16.0733656 11.7558314,16.0753588 C11.6712927,16.0758428 11.6246526,16.056623 11.6249374,15.9572494 C11.6275569,15.0040604 11.6265888,14.0508998 11.6271298,13.0977107 C11.6271583,13.0748747 11.6327677,13.0520103 11.6380923,13.0113781" id="Fill-6"></path>
                        <path d="M11.632594,11.6049174 L11.632594,8.81237756 C11.6643992,8.80710991 11.6954926,8.79708713 11.7264151,8.79762813 C12.2284368,8.80651196 12.7309994,8.80534453 13.2322238,8.83065774 C13.56457,8.84745729 13.8854698,8.93695046 14.1820814,9.09611902 C14.5823662,9.31095387 14.7806293,9.65056093 14.7821384,10.1009311 C14.7847295,10.870578 14.3481122,11.4285222 13.622258,11.5927022 C13.5764721,11.6030666 13.5288639,11.6106691 13.4821099,11.610783 C12.8942397,11.6120928 12.3063696,11.6118935 11.7185279,11.6117227 C11.6954072,11.6116942 11.6723149,11.6081634 11.632594,11.6049174" id="Fill-8"></path>
                    </g>
                    <path d="M82.615175,16.3461837 C82.610622,16.5649149 82.606069,16.7836461 82.606069,17.0023773 C82.606069,18.155273 82.6015159,19.3081688 82.610622,20.4610645 C82.610622,20.6387836 82.5787507,20.711694 82.378417,20.7071371 C80.9760809,20.6980233 79.5737448,20.6980233 78.1714087,20.7071371 C77.9938401,20.7071371 77.9346506,20.6570112 77.9392037,20.4747352 C77.9483097,19.8367692 77.9437567,19.1988032 77.9392037,18.565394 C77.9392037,18.5061543 78.0120523,18.3922318 77.861802,18.3876749 C77.8299307,18.3876749 77.8026125,18.3922318 77.7707412,18.3922318 C77.7115517,18.3648904 77.6569152,18.3694473 77.6204909,18.4332439 C77.055914,18.4924836 76.4867841,18.5380526 75.9267603,18.3967887 C74.9341977,18.1461592 74.2239236,17.5583191 73.7868318,16.6241546 C73.5045434,16.0135299 73.1311941,15.4484743 72.6986554,14.9289877 C72.5620642,14.7649393 72.3435183,14.7011427 72.1978211,14.5370943 C72.1431846,14.4732977 72.0521238,14.4231718 72.0794421,14.3365907 C72.1067603,14.231782 72.2205863,14.2363389 72.3116471,14.2272251 C73.2222549,14.1497578 73.8687865,14.5826633 74.3195374,15.3299949 C74.733864,16.0135299 75.2756757,16.5193459 76.0587984,16.7244064 C76.6142692,16.8702272 77.16974,16.8383289 77.7161047,16.6697236 C77.8435898,16.6287115 77.9118854,16.5740287 77.9255445,16.4190941 C77.9665219,15.8540384 78.0849009,15.3072104 78.4764623,14.8287359 C78.326212,14.8013945 78.207833,14.7740531 78.0849009,14.7558255 C77.1196566,14.6100047 76.2227078,14.277351 75.4441381,13.6803971 C74.5745076,13.0150896 74.0326959,12.1264941 73.8642335,11.037395 C73.7185362,10.0850028 73.7731727,9.1280538 73.8961048,8.17566167 C73.9917186,7.44200074 74.1966053,6.74479502 74.7247579,6.197967 C74.9114325,6.00657719 74.9250916,5.85164258 74.8431369,5.61012688 C74.5654015,4.79899865 74.6428032,3.98331352 74.8932204,3.17218529 C74.9387508,3.02180758 75.0070463,2.97623858 75.1709558,3.01725068 C75.7856161,3.16762839 76.2591322,3.5276235 76.6871179,3.96508592 C76.8965577,4.17470332 77.0741262,4.41166213 77.2471417,4.64862094 C77.2972251,4.71697444 77.3336494,4.75342965 77.4201572,4.68507614 C77.747976,4.42533283 78.1440904,4.34330863 78.5402049,4.28406893 C79.6875708,4.12002052 80.8394897,4.11546362 81.9868556,4.27951203 C82.3693109,4.33419483 82.7563193,4.40254833 83.075032,4.64406404 C83.2252823,4.75798655 83.2844718,4.69418994 83.3664265,4.57571054 C83.6714802,4.12913432 84.0448294,3.74635471 84.4819212,3.4319286 C84.7596566,3.23142499 85.0692632,3.09471799 85.4061881,3.01269378 C85.5518854,2.97623858 85.6110749,3.01725068 85.6566053,3.14940079 C85.966212,4.02432562 86.0117424,4.89925045 85.6657114,5.77417528 C85.624734,5.88354089 85.5974158,5.96100819 85.6975827,6.05670309 C86.2576065,6.58530351 86.5216828,7.25972473 86.6309557,8.00249946 C86.7629939,8.90476569 86.8403955,9.81158882 86.7356756,10.7275258 C86.5626601,12.267758 85.7795374,13.3887554 84.4227316,14.1224164 C84.3726482,14.1178595 84.3316709,14.1315302 84.3134587,14.1816561 C84.2770344,14.1998837 84.2406101,14.2181113 84.2087388,14.231782 C84.0903598,14.2363389 83.9901929,14.2864648 83.9082382,14.3639321 C83.8718139,14.3776028 83.8308365,14.3867166 83.7944122,14.4003873 C83.7397758,14.3867166 83.7033514,14.4095011 83.6805862,14.4550701 C83.657821,14.459627 83.6305028,14.4687408 83.6077376,14.4732977 C83.425616,14.5006391 83.2434945,14.5234236 83.0886911,14.6327892 C83.0659259,14.6373461 83.0386077,14.641903 83.0158425,14.6464599 C82.8838044,14.641903 82.7517662,14.6510168 82.6379402,14.733041 C82.5377734,14.7467117 82.4421595,14.7603824 82.3419927,14.7740531 C82.264591,14.77861 82.1780833,14.7694962 82.1097877,14.7968376 C82.036939,14.8287359 82.0688103,14.8743049 82.1325529,14.8925325 L82.1371059,14.8970894 C82.141659,14.960886 82.1735302,15.006455 82.2327197,15.0246826 C82.2691441,15.097593 82.3055684,15.1705034 82.3419927,15.2388569 C82.3510988,15.3345518 82.3693109,15.4256898 82.4512656,15.4894864 C82.4603717,15.5304985 82.4694778,15.5669537 82.4785839,15.6079658 C82.5013491,15.735559 82.5013491,15.8631522 82.5741977,15.9770747 C82.5787507,16.0044161 82.5833038,16.0317575 82.5878568,16.054542 C82.5605386,16.1092248 82.5741977,16.1593507 82.615175,16.2049197 C82.610622,16.2550456 82.610622,16.3006147 82.615175,16.3461837 Z" id="github-v" fill-rule="nonzero"></path>
                    <path d="M51.9637124,11.3942308 C52.4108278,11.3942308 52.7840249,11.5402644 53.0833037,11.8323317 C53.3825826,12.124399 53.532222,12.4903846 53.532222,12.9302885 C53.532222,13.6298077 53.1968855,14.0985577 52.5262124,14.3365385 L50.6656355,14.9747596 L51.2714047,16.78125 C51.3218855,16.9326923 51.3471259,17.1021635 51.3471259,17.2896635 C51.3471259,17.7151442 51.1956835,18.0829327 50.8927989,18.3930288 C50.5899143,18.703125 50.2257316,18.8581731 49.8002509,18.8581731 C49.4613085,18.8581731 49.1530153,18.7608173 48.875371,18.5661058 C48.5977268,18.3713942 48.4048182,18.1117788 48.2966451,17.7872596 L47.7016932,16.0024038 L44.3483278,17.1490385 L44.9432797,18.9230769 C45.000972,19.0961538 45.0298182,19.265625 45.0298182,19.4314904 C45.0298182,19.8569712 44.8783759,20.2247596 44.5754912,20.5348558 C44.2726066,20.8449519 43.9048182,21 43.4721259,21 C43.1331835,21 42.8266932,20.9026442 42.5526547,20.7079327 C42.2786162,20.5132212 42.0875105,20.2536058 41.9793374,19.9290865 L41.3843855,18.1658654 L39.7293374,18.7391827 C39.5202028,18.8040865 39.3399143,18.8365385 39.188472,18.8365385 C38.7485682,18.8365385 38.3825826,18.6923077 38.0905153,18.4038462 C37.798448,18.1153846 37.6524143,17.7512019 37.6524143,17.3112981 C37.6524143,16.9723558 37.751573,16.6658654 37.9498903,16.3918269 C38.1482076,16.1177885 38.4060201,15.9266827 38.7233278,15.8185096 L40.4108278,15.2451923 L39.2750105,11.859375 L37.5875105,12.4435096 C37.4000105,12.5012019 37.2269335,12.5300481 37.0682797,12.5300481 C36.6355874,12.5300481 36.2714047,12.3840144 35.9757316,12.0919471 C35.6800585,11.7998798 35.532222,11.4375 35.532222,11.0048077 C35.532222,10.6658654 35.6313807,10.359375 35.829698,10.0853365 C36.0280153,9.81129808 36.2858278,9.62019231 36.6031355,9.51201923 L38.3014528,8.93870192 L37.7281355,7.21875 C37.6704432,7.04567308 37.641597,6.87620192 37.641597,6.71033654 C37.641597,6.27764423 37.7930393,5.90805288 38.0959239,5.6015625 C38.3988085,5.29507212 38.766597,5.14182692 39.1992893,5.14182692 C39.5382316,5.14182692 39.844722,5.23918269 40.1187605,5.43389423 C40.3927989,5.62860577 40.5839047,5.88822115 40.6920778,6.21274038 L41.2762124,7.94350962 L44.6295778,6.80769231 L44.0454432,5.07692308 C43.9877509,4.90384615 43.9589047,4.734375 43.9589047,4.56850962 C43.9589047,4.14302885 44.1121499,3.77524038 44.4186403,3.46514423 C44.7251307,3.15504808 45.0911162,3 45.516597,3 C45.8555393,3 46.1638326,3.09915865 46.4414768,3.29747596 C46.719121,3.49579327 46.9120297,3.75360577 47.0202028,4.07091346 L47.5935201,5.8125 L49.3459239,5.21754808 C49.4973662,5.17427885 49.6524143,5.15264423 49.8110682,5.15264423 C50.2437605,5.15264423 50.6133518,5.29507212 50.9198422,5.57992788 C51.2263326,5.86478365 51.3795778,6.21995192 51.3795778,6.64543269 C51.3795778,6.96995192 51.2714047,7.26382212 51.0550585,7.52704327 C50.8387124,7.79026442 50.5718855,7.97596154 50.2545778,8.08413462 L48.5562605,8.66826923 L49.6920778,12.0865385 L51.4661162,11.4807692 C51.6391932,11.4230769 51.8050585,11.3942308 51.9637124,11.3942308 Z M43.3747701,14.2283654 L46.7281355,13.0925481 L45.5923182,9.68509615 L42.2389528,10.8425481 L43.3747701,14.2283654 Z" id="slack-v" fill-rule="nonzero"></path>
                    <path d="M16.9899998,8.63443761 C16.3649301,8.9122442 15.6936573,9.09975036 14.9878649,9.18314546 C15.7074651,8.75182816 16.2603092,8.06873203 16.5210647,7.25496589 C15.8471366,7.65388128 15.1015139,7.94496734 14.3075639,8.10060277 C13.6713417,7.42334962 12.7653358,7 11.7621441,7 C9.83701443,7 8.27726108,8.56060374 8.27726108,10.4861274 C8.27726108,10.7591534 8.30753208,11.0258052 8.36701195,11.2807711 C5.47002368,11.1352281 2.9017679,9.74725749 1.1821624,7.63794591 C0.882638773,8.15318949 0.710572008,8.75182816 0.710572008,9.39083642 C0.710572008,10.6008621 1.32608244,11.6674694 2.2607661,12.2931982 C1.68986557,12.2746069 1.15242247,12.1184403 0.682425285,11.8571003 C0.681894214,11.8714421 0.681894214,11.8868463 0.681894214,11.9006569 C0.681894214,13.5903372 1.88317514,14.9995549 3.47797914,15.3198558 C3.18589049,15.3990015 2.87786974,15.4420269 2.55975866,15.4420269 C2.33458486,15.4420269 2.11684606,15.4202486 1.90441795,15.379879 C2.34733055,16.7641313 3.63517593,17.772309 5.15987865,17.8009926 C3.96762592,18.7358676 2.46469708,19.2941366 0.831656028,19.2941366 C0.55018879,19.2941366 0.272439044,19.2776701 0,19.2452682 C1.54222804,20.233261 3.37442043,20.8106525 5.34309789,20.8106525 C11.7541781,20.8106525 15.260835,15.4983319 15.260835,10.8908858 C15.260835,10.7400309 15.2565864,10.5891761 15.2502136,10.4393837 C15.9315767,9.94804314 16.5221269,9.33453146 16.9899998,8.63443761 Z" id="twitter-v" fill-rule="nonzero"></path>
                </g>
            </g>
        </g>
    </g>
</svg>