<?xml version="1.0" encoding="UTF-8" standalone="no"?>
<svg width="261px" height="89px" viewBox="0 0 261 89" version="1.1" xmlns="http://www.w3.org/2000/svg" xmlns:xlink="http://www.w3.org/1999/xlink">
    <!-- Generator: Sketch 45.1 (43504) - http://www.bohemiancoding.com/sketch -->
    <title>social-icons</title>
    <desc>Created with Sketch.</desc>
    <defs></defs>
    <g id="Page-1" stroke="none" stroke-width="1" fill="none" fill-rule="evenodd">
        <g id="social-icons" fill-rule="nonzero">
            <g id="Page-1">
                <g id="assets">
                    <g id="social">
                        <g id="W" transform="translate(0.000000, 68.076796)" fill="#FFFFFF">
                            <path d="M208.3,4.6 C208.3,3.5 209.2,2.6 210.3,2.6 L224.3,2.6 C225.4,2.6 226.3,3.5 226.3,4.6 L226.3,18.6 C226.3,19.7 225.4,20.6 224.3,20.6 L210.3,20.6 C209.2,20.6 208.3,19.7 208.3,18.6 L208.3,4.6 Z M220.9,10.3 L220.9,9.1 C220.9,8.5 221.3,8.4 221.5,8.4 L223.2,8.4 L223.2,5.8 L220.9,5.8 C218.3,5.8 217.7,7.7 217.7,8.9 L217.7,10.2 L216.3,10.2 L216.3,12 L216.3,13.2 L217.8,13.2 L217.8,20.6 L220.7,20.6 L220.7,13.2 L222.9,13.2 L223,12 L223.2,10.2 L220.9,10.2 L220.9,10.3 Z" id="Combined-Shape"></path>
                            <path d="M192.6,10.8 C192.6,11.3 192.5,11.7 192.2,12.1 C192,12.5 191.7,12.8 191.3,13 C191.4,13.4 191.4,13.7 191.4,14.1 C191.4,15.3 191,16.5 190.1,17.5 C189.3,18.5 188.1,19.4 186.7,20 C185.3,20.6 183.7,20.9 181.9,20.9 C180.2,20.9 178.6,20.6 177.2,20 C175.7,19.4 174.6,18.6 173.8,17.5 C173,16.5 172.5,15.3 172.5,14.1 C172.5,13.7 172.5,13.4 172.6,13 C172.2,12.8 171.9,12.5 171.6,12.1 C171.4,11.7 171.2,11.3 171.2,10.8 C171.2,10.2 171.4,9.6 171.9,9.1 C172.4,8.6 172.9,8.4 173.6,8.4 C174.3,8.4 174.8,8.6 175.3,9.1 C177,7.9 179.1,7.3 181.4,7.2 L182.8,1 C182.8,0.9 182.9,0.8 183,0.8 C183.1,0.7 183.2,0.7 183.3,0.7 L187.7,1.7 C187.8,1.4 188.1,1.2 188.3,1 C188.6,0.8 188.9,0.7 189.2,0.7 C189.7,0.7 190.1,0.9 190.5,1.2 C190.8,1.5 191,2 191,2.5 C191,3 190.8,3.4 190.5,3.8 C190.2,4.2 189.7,4.3 189.2,4.3 C188.7,4.3 188.3,4.1 187.9,3.8 C187.6,3.5 187.4,3 187.4,2.5 L183.4,1.6 L182.2,7.2 C184.6,7.3 186.6,7.9 188.4,9.1 C188.9,8.6 189.4,8.4 190.1,8.4 C190.8,8.4 191.3,8.6 191.8,9.1 C192.4,9.6 192.6,10.2 192.6,10.8 Z M176.3,13.2 C176.3,13.7 176.5,14.1 176.8,14.5 C177.1,14.9 177.6,15 178.1,15 C178.6,15 179,14.8 179.4,14.5 C179.7,14.2 179.9,13.7 179.9,13.2 C179.9,12.7 179.7,12.3 179.4,11.9 C179.1,11.6 178.6,11.4 178.1,11.4 C177.6,11.4 177.2,11.6 176.9,11.9 C176.6,12.2 176.3,12.7 176.3,13.2 Z M185.9,17.4 C186,17.3 186,17.2 186,17.1 C186,17 186,16.9 185.9,16.8 C185.8,16.7 185.7,16.7 185.6,16.7 C185.5,16.7 185.4,16.7 185.3,16.8 C185,17.1 184.5,17.4 183.9,17.5 C183.3,17.7 182.6,17.7 182,17.7 C181.4,17.7 180.7,17.6 180.1,17.5 C179.5,17.3 179,17.1 178.7,16.8 C178.6,16.7 178.5,16.7 178.4,16.7 C178.3,16.7 178.2,16.7 178.1,16.8 C178,16.9 178,17 178,17.1 C178,17.2 178,17.3 178.1,17.4 C178.4,17.7 178.9,18 179.5,18.2 C180.1,18.4 180.6,18.5 181,18.6 C181.4,18.6 181.7,18.7 182.1,18.7 C182.5,18.7 182.8,18.7 183.2,18.6 C183.6,18.6 184.1,18.4 184.7,18.2 C185.1,18 185.6,17.8 185.9,17.4 Z M185.9,15 C186.4,15 186.8,14.8 187.2,14.5 C187.6,14.2 187.7,13.7 187.7,13.2 C187.7,12.7 187.5,12.3 187.2,12 C186.9,11.7 186.4,11.5 186,11.5 C185.5,11.5 185.1,11.7 184.7,12 C184.4,12.3 184.2,12.8 184.2,13.3 C184.2,13.8 184.4,14.2 184.7,14.6 C185,14.8 185.4,15 185.9,15 Z" id="Shape"></path>
                            <path d="M114.3,17.4 L119.3,17.4 C121.5,17.4 123.3,15.6 123.3,13.4 L123.3,7.9 C123.3,5.7 121.5,3.9 119.3,3.9 L109.3,3.9 C107.1,3.9 105.3,5.7 105.3,7.9 L105.3,13.4 C105.3,15.6 107.1,17.4 109.3,17.4 L109.8,17.4 L109.8,20.1 L114.3,17.4 Z" id="msj-v"></path>
                            <g id="b-v" transform="translate(141.000000, 2.000000)">
                                <path d="M11,16.8 L11,16.6 C11,16 11,15.3 11,14.7 C11,14.5 11,14.5 11.2,14.5 C11.8,14.5 12.5,14.5 13.1,14.3 C13.9,14.1 14.5,13.6 14.9,12.8 C15.2,12.2 15.2,11.7 15.2,11.1 C15.2,10.7 15.1,10.3 14.9,10 C14.6,9.5 14.1,9.1 13.5,8.9 C13.5,8.9 13.4,8.9 13.4,8.8 C13.4,8.8 13.4,8.8 13.4,8.8 C13.4,8.8 13.5,8.7 13.5,8.7 C14,8.3 14.4,7.8 14.5,7.2 C14.6,6.3 14.4,5.5 13.6,5 C12.9,4.5 12.1,4.3 11.3,4.2 C11,4.2 11,4.2 11,4.1 C11,3.4 11,2.8 11,2.1 C11,2.1 11,2 11,2 L9.6,2 L9.6,2.2 C9.6,2.8 9.6,3.5 9.6,4.1 C9.6,4.2 9.6,4.3 9.4,4.3 C9.2,4.3 9,4.3 8.7,4.3 C8.6,4.3 8.5,4.3 8.5,4.1 C8.5,3.5 8.5,2.8 8.5,2.2 C8.5,2.1 8.5,2.1 8.5,2 L7.3,2 C7.3,2.1 7.3,2.1 7.3,2.1 C7.3,2.7 7.3,3.4 7.3,4 C7.3,4.2 7.3,4.2 7.1,4.2 C6.3,4.2 5.5,4.2 4.7,4.2 L4.4,4.2 L4.4,5.6 C4.5,5.6 4.5,5.6 4.6,5.6 C4.9,5.6 5.3,5.6 5.6,5.6 C6,5.6 6.2,5.8 6.2,6.2 C6.2,8.2 6.2,10.3 6.2,12.3 C6.2,12.4 6.2,12.5 6.2,12.5 C6.2,12.9 6,13.1 5.6,13.1 C5.3,13.1 5,13.1 4.8,13.1 C4.8,13.1 4.7,13.1 4.6,13.1 C4.6,13.5 4.6,13.9 4.6,14.3 C4.6,14.5 4.6,14.5 4.8,14.5 C5.6,14.5 6.4,14.5 7.2,14.5 C7.3,14.5 7.3,14.5 7.4,14.5 L7.4,16.8 C7.5,16.8 7.5,16.8 7.6,16.8 C7.9,16.8 8.3,16.8 8.6,16.8 C8.7,16.8 8.8,16.8 8.8,16.6 C8.8,15.9 8.8,15.3 8.8,14.6 C8.8,14.5 8.8,14.4 9,14.4 C9.2,14.4 9.5,14.4 9.7,14.4 C9.8,14.4 9.9,14.4 9.9,14.6 C9.9,15.2 9.9,15.9 9.9,16.5 L9.9,16.7 L11,16.7 L11,16.8 Z M0.5,9.4 C0.5,4.5 4.5,0.5 9.4,0.4 C14.4,0.4 18.4,4.4 18.4,9.3 C18.4,14.3 14.4,18.3 9.4,18.3 C4.5,18.4 0.5,14.4 0.5,9.4 L0.5,9.4 Z" id="Fill-4"></path>
                                <path d="M8.6,9.9 C9.2,9.9 9.9,9.9 10.5,9.9 C10.9,9.9 11.3,10 11.6,10.1 C12.3,10.4 12.5,10.9 12.4,11.6 C12.3,12.3 11.8,12.8 11,12.9 C10.6,13 10.2,13 9.8,13 C9.5,13 9.1,13 8.8,13 C8.7,13 8.7,13 8.7,12.9 C8.6,11.9 8.6,11 8.6,9.9 C8.6,10 8.6,10 8.6,9.9" id="Fill-6"></path>
                                <path d="M8.6,8.5 L8.6,5.7 C8.6,5.7 8.7,5.7 8.7,5.7 C9.2,5.7 9.7,5.7 10.2,5.7 C10.5,5.7 10.9,5.8 11.1,6 C11.5,6.2 11.7,6.6 11.7,7 C11.7,7.8 11.3,8.3 10.5,8.5 C10.5,8.5 10.4,8.5 10.4,8.5 C9.9,8.5 9.3,8.5 8.6,8.5 C8.7,8.5 8.7,8.5 8.6,8.5" id="Fill-8"></path>
                            </g>
                            <path d="M82.6,15.3 C82.6,15.5 82.6,15.7 82.6,16 C82.6,17.2 82.6,18.3 82.6,19.5 C82.6,19.7 82.6,19.8 82.4,19.7 C81,19.7 79.6,19.7 78.2,19.7 C78,19.7 78,19.6 78,19.5 C78,18.9 78,18.2 78,17.6 C78,17.5 78.1,17.4 77.9,17.4 C77.9,17.4 77.8,17.4 77.8,17.4 C77.7,17.4 77.7,17.4 77.6,17.4 C77,17.5 76.5,17.5 75.9,17.4 C74.9,17.1 74.2,16.6 73.8,15.6 C73.5,15 73.1,14.4 72.7,13.9 C72.6,13.7 72.3,13.7 72.2,13.5 C72.1,13.4 72.1,13.4 72.1,13.3 C72.1,13.2 72.2,13.2 72.3,13.2 C73.2,13.1 73.9,13.6 74.3,14.3 C74.7,15 75.3,15.5 76,15.7 C76.6,15.8 77.1,15.8 77.7,15.6 C77.8,15.6 77.9,15.5 77.9,15.3 C77.9,14.7 78.1,14.2 78.5,13.7 C78.3,13.7 78.2,13.6 78.1,13.6 C77.1,13.5 76.2,13.1 75.5,12.5 C74.6,11.8 74.1,10.9 73.9,9.9 C73.8,8.9 73.8,8 73.9,7 C74,6.3 74.2,5.6 74.7,5 C74.9,4.8 74.9,4.7 74.8,4.4 C74.5,3.6 74.6,2.8 74.9,2 C74.9,1.8 75,1.8 75.2,1.8 C75.8,2 76.3,2.3 76.7,2.7 C76.9,2.9 77.1,3.1 77.3,3.4 C77.4,3.5 77.4,3.5 77.5,3.4 C77.8,3.1 78.2,3.1 78.6,3 C79.7,2.8 80.9,2.8 82,3 C82.4,3.1 82.8,3.1 83.1,3.4 C83.3,3.5 83.3,3.5 83.4,3.3 C83.7,2.9 84.1,2.5 84.5,2.2 C84.8,2 85.1,1.9 85.4,1.8 C85.5,1.8 85.6,1.8 85.7,1.9 C86,2.8 86.1,3.6 85.7,4.5 C85.7,4.6 85.6,4.7 85.7,4.8 C86.3,5.3 86.5,6 86.6,6.7 C86.7,7.6 86.8,8.5 86.7,9.4 C86.5,10.9 85.7,12.1 84.4,12.8 C84.3,12.8 84.3,12.8 84.3,12.9 C84.3,12.9 84.2,12.9 84.2,13 C84.1,13 84,13.1 83.9,13.1 C83.9,13.1 83.8,13.1 83.8,13.1 C83.7,13.1 83.7,13.1 83.7,13.2 C83.7,13.2 83.6,13.2 83.6,13.2 C83.4,13.2 83.2,13.3 83.1,13.4 C83.1,13.4 83,13.4 83,13.4 C82.9,13.4 82.7,13.4 82.6,13.5 C82.5,13.5 82.4,13.5 82.3,13.5 C82.2,13.5 82.1,13.5 82.1,13.5 C82,13.5 82.1,13.6 82.1,13.6 L82.1,13.6 C82.1,13.7 82.1,13.7 82.2,13.7 C82.2,13.8 82.3,13.8 82.3,13.9 C82.3,14 82.3,14.1 82.4,14.2 C82.4,14.2 82.4,14.3 82.4,14.3 C82.4,14.4 82.4,14.6 82.5,14.7 C82.5,14.7 82.5,14.8 82.5,14.8 C82.5,14.9 82.5,14.9 82.5,15 C82.6,15.2 82.6,15.2 82.6,15.3 Z" id="github-v"></path>
                            <path d="M52,10.3 C52.4,10.3 52.8,10.4 53.1,10.7 C53.4,11 53.5,11.4 53.5,11.8 C53.5,12.5 53.2,13 52.5,13.2 L50.6,13.8 L51.2,15.6 C51.3,15.8 51.3,15.9 51.3,16.1 C51.3,16.5 51.1,16.9 50.8,17.2 C50.5,17.5 50.1,17.7 49.7,17.7 C49.4,17.7 49.1,17.6 48.8,17.4 C48.5,17.2 48.3,16.9 48.2,16.6 L47.6,14.8 L44.2,15.9 L44.8,17.7 C45,18 45,18.2 45,18.3 C45,18.7 44.8,19.1 44.5,19.4 C44.2,19.7 43.8,19.9 43.4,19.9 C43.1,19.9 42.8,19.8 42.5,19.6 C42.2,19.4 42,19.1 41.9,18.8 L41.3,17 L39.6,17.6 C39.4,17.7 39.2,17.7 39.1,17.7 C38.7,17.7 38.3,17.6 38,17.3 C37.7,17 37.6,16.6 37.6,16.2 C37.6,15.9 37.7,15.6 37.9,15.3 C38.1,15 38.4,14.8 38.7,14.7 L40.4,14.1 L39.3,10.7 L37.6,11.3 C37.4,11.4 37.2,11.4 37.1,11.4 C36.7,11.4 36.3,11.3 36,11 C35.7,10.7 35.6,10.3 35.6,9.9 C35.6,9.6 35.7,9.3 35.9,9 C36.1,8.7 36.4,8.5 36.7,8.4 L38.4,7.8 L37.8,6.1 C37.7,5.9 37.7,5.8 37.7,5.6 C37.7,5.2 37.9,4.8 38.2,4.5 C38.5,4.2 38.9,4 39.3,4 C39.6,4 39.9,4.1 40.2,4.3 C40.5,4.5 40.7,4.8 40.8,5.1 L41.4,6.8 L44.8,5.7 L44,4 C44,3.8 44,3.6 44,3.5 C44,3.1 44.2,2.7 44.5,2.4 C44.8,2.1 45.2,1.9 45.6,1.9 C45.9,1.9 46.2,2 46.5,2.2 C46.8,2.4 47,2.7 47.1,3 L47.7,4.7 L49.5,4.1 C49.7,4.1 49.8,4 50,4 C50.4,4 50.8,4.1 51.1,4.4 C51.4,4.7 51.6,5 51.6,5.5 C51.6,5.8 51.5,6.1 51.3,6.4 C51.1,6.7 50.8,6.8 50.5,7 L48.8,7.6 L49.9,11 L51.7,10.4 C51.6,10.3 51.8,10.3 52,10.3 Z M43.4,13.1 L46.8,12 L45.7,8.6 L42.3,9.8 L43.4,13.1 Z" id="slack-v"></path>
                            <path d="M17,7.5 C16.4,7.8 15.7,8 15,8 C15.7,7.6 16.3,6.9 16.5,6.1 C15.8,6.5 15.1,6.8 14.3,6.9 C13.7,6.2 12.8,5.8 11.8,5.8 C9.9,5.8 8.3,7.4 8.3,9.3 C8.3,9.6 8.3,9.8 8.4,10.1 C5.5,10 2.9,8.6 1.2,6.5 C0.9,7 0.7,7.6 0.7,8.3 C0.7,9.5 1.3,10.6 2.3,11.2 C1.7,11.2 1.2,11 0.7,10.8 C0.7,10.8 0.7,10.8 0.7,10.8 C0.7,12.5 1.9,13.9 3.5,14.2 C3.2,14.3 2.9,14.3 2.6,14.3 C2.4,14.3 2.2,14.3 1.9,14.2 C2.3,15.6 3.6,16.6 5.2,16.6 C4,17.5 2.5,18.1 0.9,18.1 C0.6,18.1 0.3,18.1 0.1,18.1 C1.6,19.1 3.5,19.7 5.4,19.7 C11.8,19.7 15.3,14.4 15.3,9.8 C15.3,9.6 15.3,9.5 15.3,9.3 C15.9,8.9 16.5,8.2 17,7.5 Z" id="twitter-v"></path>
                        </g>
                        <g id="N" transform="translate(0.000000, 34.076796)" fill="#3E396B">
                            <path d="M208.3,4.6 C208.3,3.5 209.2,2.6 210.3,2.6 L224.3,2.6 C225.4,2.6 226.3,3.5 226.3,4.6 L226.3,18.6 C226.3,19.7 225.4,20.6 224.3,20.6 L210.3,20.6 C209.2,20.6 208.3,19.7 208.3,18.6 L208.3,4.6 Z M220.9,10.3 L220.9,9.1 C220.9,8.5 221.3,8.4 221.5,8.4 L223.2,8.4 L223.2,5.8 L220.9,5.8 C218.3,5.8 217.7,7.7 217.7,8.9 L217.7,10.2 L216.3,10.2 L216.3,12 L216.3,13.2 L217.8,13.2 L217.8,20.6 L220.7,20.6 L220.7,13.2 L222.9,13.2 L223,12 L223.2,10.2 L220.9,10.2 L220.9,10.3 Z" id="Combined-Shape_1_"></path>
                            <path d="M192.6,10.8 C192.6,11.3 192.5,11.7 192.2,12.1 C192,12.5 191.7,12.8 191.3,13 C191.4,13.4 191.4,13.7 191.4,14.1 C191.4,15.3 191,16.5 190.1,17.5 C189.3,18.5 188.1,19.4 186.7,20 C185.3,20.6 183.7,20.9 181.9,20.9 C180.2,20.9 178.6,20.6 177.2,20 C175.7,19.4 174.6,18.6 173.8,17.5 C173,16.5 172.5,15.3 172.5,14.1 C172.5,13.7 172.5,13.4 172.6,13 C172.2,12.8 171.9,12.5 171.6,12.1 C171.4,11.7 171.2,11.3 171.2,10.8 C171.2,10.2 171.4,9.6 171.9,9.1 C172.4,8.6 172.9,8.4 173.6,8.4 C174.3,8.4 174.8,8.6 175.3,9.1 C177,7.9 179.1,7.3 181.4,7.2 L182.8,1 C182.8,0.9 182.9,0.8 183,0.8 C183.1,0.7 183.2,0.7 183.3,0.7 L187.7,1.7 C187.8,1.4 188.1,1.2 188.3,1 C188.6,0.8 188.9,0.7 189.2,0.7 C189.7,0.7 190.1,0.9 190.5,1.2 C190.8,1.5 191,2 191,2.5 C191,3 190.8,3.4 190.5,3.8 C190.2,4.2 189.7,4.3 189.2,4.3 C188.7,4.3 188.3,4.1 187.9,3.8 C187.6,3.5 187.4,3 187.4,2.5 L183.4,1.6 L182.2,7.2 C184.6,7.3 186.6,7.9 188.4,9.1 C188.9,8.6 189.4,8.4 190.1,8.4 C190.8,8.4 191.3,8.6 191.8,9.1 C192.4,9.6 192.6,10.2 192.6,10.8 Z M176.3,13.2 C176.3,13.7 176.5,14.1 176.8,14.5 C177.1,14.9 177.6,15 178.1,15 C178.6,15 179,14.8 179.4,14.5 C179.7,14.2 179.9,13.7 179.9,13.2 C179.9,12.7 179.7,12.3 179.4,11.9 C179.1,11.6 178.6,11.4 178.1,11.4 C177.6,11.4 177.2,11.6 176.9,11.9 C176.6,12.2 176.3,12.7 176.3,13.2 Z M185.9,17.4 C186,17.3 186,17.2 186,17.1 C186,17 186,16.9 185.9,16.8 C185.8,16.7 185.7,16.7 185.6,16.7 C185.5,16.7 185.4,16.7 185.3,16.8 C185,17.1 184.5,17.4 183.9,17.5 C183.3,17.7 182.6,17.7 182,17.7 C181.4,17.7 180.7,17.6 180.1,17.5 C179.5,17.3 179,17.1 178.7,16.8 C178.6,16.7 178.5,16.7 178.4,16.7 C178.3,16.7 178.2,16.7 178.1,16.8 C178,16.9 178,17 178,17.1 C178,17.2 178,17.3 178.1,17.4 C178.4,17.7 178.9,18 179.5,18.2 C180.1,18.4 180.6,18.5 181,18.6 C181.4,18.6 181.7,18.7 182.1,18.7 C182.5,18.7 182.8,18.7 183.2,18.6 C183.6,18.6 184.1,18.4 184.7,18.2 C185.1,18 185.6,17.8 185.9,17.4 Z M185.9,15 C186.4,15 186.8,14.8 187.2,14.5 C187.6,14.2 187.7,13.7 187.7,13.2 C187.7,12.7 187.5,12.3 187.2,12 C186.9,11.7 186.4,11.5 186,11.5 C185.5,11.5 185.1,11.7 184.7,12 C184.4,12.3 184.2,12.8 184.2,13.3 C184.2,13.8 184.4,14.2 184.7,14.6 C185,14.8 185.4,15 185.9,15 Z" id="Shape_1_"></path>
                            <g id="b-n" transform="translate(141.000000, 2.000000)">
                                <path d="M11,16.8 L11,16.6 C11,16 11,15.3 11,14.7 C11,14.5 11,14.5 11.2,14.5 C11.8,14.5 12.5,14.5 13.1,14.3 C13.9,14.1 14.5,13.6 14.9,12.8 C15.2,12.2 15.2,11.7 15.2,11.1 C15.2,10.7 15.1,10.3 14.9,10 C14.6,9.5 14.1,9.1 13.5,8.9 C13.5,8.9 13.4,8.9 13.4,8.8 C13.4,8.8 13.4,8.8 13.4,8.8 C13.4,8.8 13.5,8.7 13.5,8.7 C14,8.3 14.4,7.8 14.5,7.2 C14.6,6.3 14.4,5.5 13.6,5 C12.9,4.5 12.1,4.3 11.3,4.2 C11,4.2 11,4.2 11,4.1 C11,3.4 11,2.8 11,2.1 C11,2.1 11,2 11,2 L9.6,2 L9.6,2.2 C9.6,2.8 9.6,3.5 9.6,4.1 C9.6,4.2 9.6,4.3 9.4,4.3 C9.2,4.3 9,4.3 8.7,4.3 C8.6,4.3 8.5,4.3 8.5,4.1 C8.5,3.5 8.5,2.8 8.5,2.2 C8.5,2.1 8.5,2.1 8.5,2 L7.3,2 C7.3,2.1 7.3,2.1 7.3,2.1 C7.3,2.7 7.3,3.4 7.3,4 C7.3,4.2 7.3,4.2 7.1,4.2 C6.3,4.2 5.5,4.2 4.7,4.2 L4.4,4.2 L4.4,5.6 C4.5,5.6 4.5,5.6 4.6,5.6 C4.9,5.6 5.3,5.6 5.6,5.6 C6,5.6 6.2,5.8 6.2,6.2 C6.2,8.2 6.2,10.3 6.2,12.3 C6.2,12.4 6.2,12.5 6.2,12.5 C6.2,12.9 6,13.1 5.6,13.1 C5.3,13.1 5,13.1 4.8,13.1 C4.8,13.1 4.7,13.1 4.6,13.1 C4.6,13.5 4.6,13.9 4.6,14.3 C4.6,14.5 4.6,14.5 4.8,14.5 C5.6,14.5 6.4,14.5 7.2,14.5 C7.3,14.5 7.3,14.5 7.4,14.5 L7.4,16.8 C7.5,16.8 7.5,16.8 7.6,16.8 C7.9,16.8 8.3,16.8 8.6,16.8 C8.7,16.8 8.8,16.8 8.8,16.6 C8.8,15.9 8.8,15.3 8.8,14.6 C8.8,14.5 8.8,14.4 9,14.4 C9.2,14.4 9.5,14.4 9.7,14.4 C9.8,14.4 9.9,14.4 9.9,14.6 C9.9,15.2 9.9,15.9 9.9,16.5 L9.9,16.7 L11,16.7 L11,16.8 Z M0.5,9.4 C0.5,4.5 4.5,0.5 9.4,0.4 C14.4,0.4 18.4,4.4 18.4,9.3 C18.4,14.3 14.4,18.3 9.4,18.3 C4.5,18.4 0.5,14.4 0.5,9.4 L0.5,9.4 Z" id="Fill-4_1_"></path>
                                <path d="M8.6,9.9 C9.2,9.9 9.9,9.9 10.5,9.9 C10.9,9.9 11.3,10 11.6,10.1 C12.3,10.4 12.5,10.9 12.4,11.6 C12.3,12.3 11.8,12.8 11,12.9 C10.6,13 10.2,13 9.8,13 C9.5,13 9.1,13 8.8,13 C8.7,13 8.7,13 8.7,12.9 C8.6,11.9 8.6,11 8.6,9.9 C8.6,10 8.6,10 8.6,9.9" id="Fill-6_1_"></path>
                                <path d="M8.6,8.5 L8.6,5.7 C8.6,5.7 8.7,5.7 8.7,5.7 C9.2,5.7 9.7,5.7 10.2,5.7 C10.5,5.7 10.9,5.8 11.1,6 C11.5,6.2 11.7,6.6 11.7,7 C11.7,7.8 11.3,8.3 10.5,8.5 C10.5,8.5 10.4,8.5 10.4,8.5 C9.9,8.5 9.3,8.5 8.6,8.5 C8.7,8.5 8.7,8.5 8.6,8.5" id="Fill-8_1_"></path>
                            </g>
                            <path d="M114.3,18.4 L119.3,18.4 C121.5,18.4 123.3,16.6 123.3,14.4 L123.3,8.9 C123.3,6.7 121.5,4.9 119.3,4.9 L109.3,4.9 C107.1,4.9 105.3,6.7 105.3,8.9 L105.3,14.4 C105.3,16.6 107.1,18.4 109.3,18.4 L109.8,18.4 L109.8,21.1 L114.3,18.4 Z" id="msj-n"></path>
                            <path d="M82.6,16.3 C82.6,16.5 82.6,16.7 82.6,17 C82.6,18.2 82.6,19.3 82.6,20.5 C82.6,20.7 82.6,20.8 82.4,20.7 C81,20.7 79.6,20.7 78.2,20.7 C78,20.7 78,20.6 78,20.5 C78,19.9 78,19.2 78,18.6 C78,18.5 78.1,18.4 77.9,18.4 C77.9,18.4 77.8,18.4 77.8,18.4 C77.7,18.4 77.7,18.4 77.6,18.4 C77,18.5 76.5,18.5 75.9,18.4 C74.9,18.1 74.2,17.6 73.8,16.6 C73.5,16 73.1,15.4 72.7,14.9 C72.6,14.7 72.3,14.7 72.2,14.5 C72.1,14.4 72.1,14.4 72.1,14.3 C72.1,14.2 72.2,14.2 72.3,14.2 C73.2,14.1 73.9,14.6 74.3,15.3 C74.7,16 75.3,16.5 76,16.7 C76.6,16.8 77.1,16.8 77.7,16.6 C77.8,16.6 77.9,16.5 77.9,16.3 C77.9,15.7 78.1,15.2 78.5,14.7 C78.3,14.7 78.2,14.6 78.1,14.6 C77.1,14.5 76.2,14.1 75.5,13.5 C74.6,12.8 74.1,11.9 73.9,10.9 C73.8,9.9 73.8,9 73.9,8 C74,7.3 74.2,6.6 74.7,6 C74.9,5.8 74.9,5.7 74.8,5.4 C74.5,4.6 74.6,3.8 74.9,3 C74.9,2.8 75,2.8 75.2,2.8 C75.8,3 76.3,3.3 76.7,3.7 C76.9,3.9 77.1,4.1 77.3,4.4 C77.4,4.5 77.4,4.5 77.5,4.4 C77.8,4.1 78.2,4.1 78.6,4 C79.7,3.8 80.9,3.8 82,4 C82.4,4.1 82.8,4.1 83.1,4.4 C83.3,4.5 83.3,4.5 83.4,4.3 C83.7,3.9 84.1,3.5 84.5,3.2 C84.8,3 85.1,2.9 85.4,2.8 C85.5,2.8 85.6,2.8 85.7,2.9 C86,3.8 86.1,4.6 85.7,5.5 C85.7,5.6 85.6,5.7 85.7,5.8 C86.3,6.3 86.5,7 86.6,7.7 C86.7,8.6 86.8,9.5 86.7,10.4 C86.5,11.9 85.7,13.1 84.4,13.8 C84.3,13.8 84.3,13.8 84.3,13.9 C84.3,13.9 84.2,13.9 84.2,14 C84.1,14 84,14.1 83.9,14.1 C83.9,14.1 83.8,14.1 83.8,14.1 C83.7,14.1 83.7,14.1 83.7,14.2 C83.7,14.2 83.6,14.2 83.6,14.2 C83.4,14.2 83.2,14.3 83.1,14.4 C83.1,14.4 83,14.4 83,14.4 C82.9,14.4 82.7,14.4 82.6,14.5 C82.5,14.5 82.4,14.5 82.3,14.5 C82.2,14.5 82.1,14.5 82.1,14.5 C82,14.5 82.1,14.6 82.1,14.6 L82.1,14.6 C82.1,14.7 82.1,14.7 82.2,14.7 C82.2,14.8 82.3,14.8 82.3,14.9 C82.3,15 82.3,15.1 82.4,15.2 C82.4,15.2 82.4,15.3 82.4,15.3 C82.4,15.4 82.4,15.6 82.5,15.7 C82.5,15.7 82.5,15.8 82.5,15.8 C82.5,15.9 82.5,15.9 82.5,16 C82.6,16.2 82.6,16.2 82.6,16.3 Z" id="github-n"></path>
                            <path d="M52,11.3 C52.4,11.3 52.8,11.4 53.1,11.7 C53.4,12 53.5,12.4 53.5,12.8 C53.5,13.5 53.2,14 52.5,14.2 L50.6,14.8 L51.2,16.6 C51.3,16.8 51.3,16.9 51.3,17.1 C51.3,17.5 51.1,17.9 50.8,18.2 C50.5,18.5 50.1,18.7 49.7,18.7 C49.4,18.7 49.1,18.6 48.8,18.4 C48.5,18.2 48.3,17.9 48.2,17.6 L47.6,15.8 L44.2,16.9 L44.8,18.7 C45,19 45,19.2 45,19.3 C45,19.7 44.8,20.1 44.5,20.4 C44.2,20.7 43.8,20.9 43.4,20.9 C43.1,20.9 42.8,20.8 42.5,20.6 C42.2,20.4 42,20.1 41.9,19.8 L41.3,18 L39.6,18.6 C39.4,18.7 39.2,18.7 39.1,18.7 C38.7,18.7 38.3,18.6 38,18.3 C37.7,18 37.6,17.6 37.6,17.2 C37.6,16.9 37.7,16.6 37.9,16.3 C38.1,16 38.4,15.8 38.7,15.7 L40.4,15.1 L39.3,11.7 L37.6,12.3 C37.4,12.4 37.2,12.4 37.1,12.4 C36.7,12.4 36.3,12.3 36,12 C35.7,11.7 35.6,11.3 35.6,10.9 C35.6,10.6 35.7,10.3 35.9,10 C36.1,9.7 36.4,9.5 36.7,9.4 L38.4,8.8 L37.8,7.1 C37.7,6.9 37.7,6.8 37.7,6.6 C37.7,6.2 37.9,5.8 38.2,5.5 C38.5,5.2 38.9,5 39.3,5 C39.6,5 39.9,5.1 40.2,5.3 C40.5,5.5 40.7,5.8 40.8,6.1 L41.4,7.8 L44.8,6.7 L44,5 C44,4.8 44,4.6 44,4.5 C44,4.1 44.2,3.7 44.5,3.4 C44.8,3.1 45.2,2.9 45.6,2.9 C45.9,2.9 46.2,3 46.5,3.2 C46.8,3.4 47,3.7 47.1,4 L47.7,5.7 L49.5,5.1 C49.7,5.1 49.8,5 50,5 C50.4,5 50.8,5.1 51.1,5.4 C51.4,5.7 51.6,6 51.6,6.5 C51.6,6.8 51.5,7.1 51.3,7.4 C51.1,7.7 50.8,7.8 50.5,8 L48.8,8.6 L49.9,12 L51.7,11.4 C51.6,11.3 51.8,11.3 52,11.3 Z M43.4,14.1 L46.8,13 L45.7,9.6 L42.3,10.8 L43.4,14.1 Z" id="slack-n"></path>
                            <path d="M17,8.5 C16.4,8.8 15.7,9 15,9 C15.7,8.6 16.3,7.9 16.5,7.1 C15.8,7.5 15.1,7.8 14.3,7.9 C13.7,7.2 12.8,6.8 11.8,6.8 C9.9,6.8 8.3,8.4 8.3,10.3 C8.3,10.6 8.3,10.8 8.4,11.1 C5.5,11 2.9,9.6 1.2,7.5 C0.9,8 0.7,8.6 0.7,9.3 C0.7,10.5 1.3,11.6 2.3,12.2 C1.7,12.2 1.2,12 0.7,11.8 C0.7,11.8 0.7,11.8 0.7,11.8 C0.7,13.5 1.9,14.9 3.5,15.2 C3.2,15.3 2.9,15.3 2.6,15.3 C2.4,15.3 2.2,15.3 1.9,15.2 C2.3,16.6 3.6,17.6 5.2,17.6 C4,18.5 2.5,19.1 0.9,19.1 C0.6,19.1 0.3,19.1 0.1,19.1 C1.6,20.1 3.5,20.7 5.4,20.7 C11.8,20.7 15.3,15.4 15.3,10.8 C15.3,10.6 15.3,10.5 15.3,10.3 C15.9,9.9 16.5,9.2 17,8.5 Z" id="twitter-n"></path>
                        </g>
                        <g id="V" transform="translate(0.000000, 0.076796)" fill="#30D7A9">
                            <path d="M208.3,4.6 C208.3,3.5 209.2,2.6 210.3,2.6 L224.3,2.6 C225.4,2.6 226.3,3.5 226.3,4.6 L226.3,18.6 C226.3,19.7 225.4,20.6 224.3,20.6 L210.3,20.6 C209.2,20.6 208.3,19.7 208.3,18.6 L208.3,4.6 Z M220.9,10.3 L220.9,9.1 C220.9,8.5 221.3,8.4 221.5,8.4 L223.2,8.4 L223.2,5.8 L220.9,5.8 C218.3,5.8 217.7,7.7 217.7,8.9 L217.7,10.2 L216.3,10.2 L216.3,12 L216.3,13.2 L217.8,13.2 L217.8,20.6 L220.7,20.6 L220.7,13.2 L222.9,13.2 L223,12 L223.2,10.2 L220.9,10.2 L220.9,10.3 Z" id="Combined-Shape_2_"></path>
                            <path d="M192.6,10.8 C192.6,11.3 192.5,11.7 192.2,12.1 C192,12.5 191.7,12.8 191.3,13 C191.4,13.4 191.4,13.7 191.4,14.1 C191.4,15.3 191,16.5 190.1,17.5 C189.3,18.5 188.1,19.4 186.7,20 C185.3,20.6 183.7,20.9 181.9,20.9 C180.2,20.9 178.6,20.6 177.2,20 C175.7,19.4 174.6,18.6 173.8,17.5 C173,16.5 172.5,15.3 172.5,14.1 C172.5,13.7 172.5,13.4 172.6,13 C172.2,12.8 171.9,12.5 171.6,12.1 C171.4,11.7 171.2,11.3 171.2,10.8 C171.2,10.2 171.4,9.6 171.9,9.1 C172.4,8.6 172.9,8.4 173.6,8.4 C174.3,8.4 174.8,8.6 175.3,9.1 C177,7.9 179.1,7.3 181.4,7.2 L182.8,1 C182.8,0.9 182.9,0.8 183,0.8 C183.1,0.7 183.2,0.7 183.3,0.7 L187.7,1.7 C187.8,1.4 188.1,1.2 188.3,1 C188.6,0.8 188.9,0.7 189.2,0.7 C189.7,0.7 190.1,0.9 190.5,1.2 C190.8,1.5 191,2 191,2.5 C191,3 190.8,3.4 190.5,3.8 C190.2,4.2 189.7,4.3 189.2,4.3 C188.7,4.3 188.3,4.1 187.9,3.8 C187.6,3.5 187.4,3 187.4,2.5 L183.4,1.6 L182.2,7.2 C184.6,7.3 186.6,7.9 188.4,9.1 C188.9,8.6 189.4,8.4 190.1,8.4 C190.8,8.4 191.3,8.6 191.8,9.1 C192.4,9.6 192.6,10.2 192.6,10.8 Z M176.3,13.2 C176.3,13.7 176.5,14.1 176.8,14.5 C177.1,14.9 177.6,15 178.1,15 C178.6,15 179,14.8 179.4,14.5 C179.7,14.2 179.9,13.7 179.9,13.2 C179.9,12.7 179.7,12.3 179.4,11.9 C179.1,11.6 178.6,11.4 178.1,11.4 C177.6,11.4 177.2,11.6 176.9,11.9 C176.6,12.2 176.3,12.7 176.3,13.2 Z M185.9,17.4 C186,17.3 186,17.2 186,17.1 C186,17 186,16.9 185.9,16.8 C185.8,16.7 185.7,16.7 185.6,16.7 C185.5,16.7 185.4,16.7 185.3,16.8 C185,17.1 184.5,17.4 183.9,17.5 C183.3,17.7 182.6,17.7 182,17.7 C181.4,17.7 180.7,17.6 180.1,17.5 C179.5,17.3 179,17.1 178.7,16.8 C178.6,16.7 178.5,16.7 178.4,16.7 C178.3,16.7 178.2,16.7 178.1,16.8 C178,16.9 178,17 178,17.1 C178,17.2 178,17.3 178.1,17.4 C178.4,17.7 178.9,18 179.5,18.2 C180.1,18.4 180.6,18.5 181,18.6 C181.4,18.6 181.7,18.7 182.1,18.7 C182.5,18.7 182.8,18.7 183.2,18.6 C183.6,18.6 184.1,18.4 184.7,18.2 C185.1,18 185.6,17.8 185.9,17.4 Z M185.9,15 C186.4,15 186.8,14.8 187.2,14.5 C187.6,14.2 187.7,13.7 187.7,13.2 C187.7,12.7 187.5,12.3 187.2,12 C186.9,11.7 186.4,11.5 186,11.5 C185.5,11.5 185.1,11.7 184.7,12 C184.4,12.3 184.2,12.8 184.2,13.3 C184.2,13.8 184.4,14.2 184.7,14.6 C185,14.8 185.4,15 185.9,15 Z" id="Shape_2_"></path>
                            <path d="M114.3,17.4 L119.3,17.4 C121.5,17.4 123.3,15.6 123.3,13.4 L123.3,7.9 C123.3,5.7 121.5,3.9 119.3,3.9 L109.3,3.9 C107.1,3.9 105.3,5.7 105.3,7.9 L105.3,13.4 C105.3,15.6 107.1,17.4 109.3,17.4 L109.8,17.4 L109.8,20.1 L114.3,17.4 Z" id="msj-v_1_"></path>
                            <g id="b-v_1_" transform="translate(141.000000, 2.000000)">
                                <path d="M11,16.8 L11,16.6 C11,16 11,15.3 11,14.7 C11,14.5 11,14.5 11.2,14.5 C11.8,14.5 12.5,14.5 13.1,14.3 C13.9,14.1 14.5,13.6 14.9,12.8 C15.2,12.2 15.2,11.7 15.2,11.1 C15.2,10.7 15.1,10.3 14.9,10 C14.6,9.5 14.1,9.1 13.5,8.9 C13.5,8.9 13.4,8.9 13.4,8.8 C13.4,8.8 13.4,8.8 13.4,8.8 C13.4,8.8 13.5,8.7 13.5,8.7 C14,8.3 14.4,7.8 14.5,7.2 C14.6,6.3 14.4,5.5 13.6,5 C12.9,4.5 12.1,4.3 11.3,4.2 C11,4.2 11,4.2 11,4.1 C11,3.4 11,2.8 11,2.1 C11,2.1 11,2 11,2 L9.6,2 L9.6,2.2 C9.6,2.8 9.6,3.5 9.6,4.1 C9.6,4.2 9.6,4.3 9.4,4.3 C9.2,4.3 9,4.3 8.7,4.3 C8.6,4.3 8.5,4.3 8.5,4.1 C8.5,3.5 8.5,2.8 8.5,2.2 C8.5,2.1 8.5,2.1 8.5,2 L7.3,2 C7.3,2.1 7.3,2.1 7.3,2.1 C7.3,2.7 7.3,3.4 7.3,4 C7.3,4.2 7.3,4.2 7.1,4.2 C6.3,4.2 5.5,4.2 4.7,4.2 L4.4,4.2 L4.4,5.6 C4.5,5.6 4.5,5.6 4.6,5.6 C4.9,5.6 5.3,5.6 5.6,5.6 C6,5.6 6.2,5.8 6.2,6.2 C6.2,8.2 6.2,10.3 6.2,12.3 C6.2,12.4 6.2,12.5 6.2,12.5 C6.2,12.9 6,13.1 5.6,13.1 C5.3,13.1 5,13.1 4.8,13.1 C4.8,13.1 4.7,13.1 4.6,13.1 C4.6,13.5 4.6,13.9 4.6,14.3 C4.6,14.5 4.6,14.5 4.8,14.5 C5.6,14.5 6.4,14.5 7.2,14.5 C7.3,14.5 7.3,14.5 7.4,14.5 L7.4,16.8 C7.5,16.8 7.5,16.8 7.6,16.8 C7.9,16.8 8.3,16.8 8.6,16.8 C8.7,16.8 8.8,16.8 8.8,16.6 C8.8,15.9 8.8,15.3 8.8,14.6 C8.8,14.5 8.8,14.4 9,14.4 C9.2,14.4 9.5,14.4 9.7,14.4 C9.8,14.4 9.9,14.4 9.9,14.6 C9.9,15.2 9.9,15.9 9.9,16.5 L9.9,16.7 L11,16.7 L11,16.8 Z M0.5,9.4 C0.5,4.5 4.5,0.5 9.4,0.4 C14.4,0.4 18.4,4.4 18.4,9.3 C18.4,14.3 14.4,18.3 9.4,18.3 C4.5,18.4 0.5,14.4 0.5,9.4 L0.5,9.4 Z" id="Fill-4_2_"></path>
                                <path d="M8.6,9.9 C9.2,9.9 9.9,9.9 10.5,9.9 C10.9,9.9 11.3,10 11.6,10.1 C12.3,10.4 12.5,10.9 12.4,11.6 C12.3,12.3 11.8,12.8 11,12.9 C10.6,13 10.2,13 9.8,13 C9.5,13 9.1,13 8.8,13 C8.7,13 8.7,13 8.7,12.9 C8.6,11.9 8.6,11 8.6,9.9 C8.6,10 8.6,10 8.6,9.9" id="Fill-6_2_"></path>
                                <path d="M8.6,8.5 L8.6,5.7 C8.6,5.7 8.7,5.7 8.7,5.7 C9.2,5.7 9.7,5.7 10.2,5.7 C10.5,5.7 10.9,5.8 11.1,6 C11.5,6.2 11.7,6.6 11.7,7 C11.7,7.8 11.3,8.3 10.5,8.5 C10.5,8.5 10.4,8.5 10.4,8.5 C9.9,8.5 9.3,8.5 8.6,8.5 C8.7,8.5 8.7,8.5 8.6,8.5" id="Fill-8_2_"></path>
                            </g>
                            <path d="M82.6,15.3 C82.6,15.5 82.6,15.7 82.6,16 C82.6,17.2 82.6,18.3 82.6,19.5 C82.6,19.7 82.6,19.8 82.4,19.7 C81,19.7 79.6,19.7 78.2,19.7 C78,19.7 78,19.6 78,19.5 C78,18.9 78,18.2 78,17.6 C78,17.5 78.1,17.4 77.9,17.4 C77.9,17.4 77.8,17.4 77.8,17.4 C77.7,17.4 77.7,17.4 77.6,17.4 C77,17.5 76.5,17.5 75.9,17.4 C74.9,17.1 74.2,16.6 73.8,15.6 C73.5,15 73.1,14.4 72.7,13.9 C72.6,13.7 72.3,13.7 72.2,13.5 C72.1,13.4 72.1,13.4 72.1,13.3 C72.1,13.2 72.2,13.2 72.3,13.2 C73.2,13.1 73.9,13.6 74.3,14.3 C74.7,15 75.3,15.5 76,15.7 C76.6,15.8 77.1,15.8 77.7,15.6 C77.8,15.6 77.9,15.5 77.9,15.3 C77.9,14.7 78.1,14.2 78.5,13.7 C78.3,13.7 78.2,13.6 78.1,13.6 C77.1,13.5 76.2,13.1 75.5,12.5 C74.6,11.8 74.1,10.9 73.9,9.9 C73.8,8.9 73.8,8 73.9,7 C74,6.3 74.2,5.6 74.7,5 C74.9,4.8 74.9,4.7 74.8,4.4 C74.5,3.6 74.6,2.8 74.9,2 C74.9,1.8 75,1.8 75.2,1.8 C75.8,2 76.3,2.3 76.7,2.7 C76.9,2.9 77.1,3.1 77.3,3.4 C77.4,3.5 77.4,3.5 77.5,3.4 C77.8,3.1 78.2,3.1 78.6,3 C79.7,2.8 80.9,2.8 82,3 C82.4,3.1 82.8,3.1 83.1,3.4 C83.3,3.5 83.3,3.5 83.4,3.3 C83.7,2.9 84.1,2.5 84.5,2.2 C84.8,2 85.1,1.9 85.4,1.8 C85.5,1.8 85.6,1.8 85.7,1.9 C86,2.8 86.1,3.6 85.7,4.5 C85.7,4.6 85.6,4.7 85.7,4.8 C86.3,5.3 86.5,6 86.6,6.7 C86.7,7.6 86.8,8.5 86.7,9.4 C86.5,10.9 85.7,12.1 84.4,12.8 C84.3,12.8 84.3,12.8 84.3,12.9 C84.3,12.9 84.2,12.9 84.2,13 C84.1,13 84,13.1 83.9,13.1 C83.9,13.1 83.8,13.1 83.8,13.1 C83.7,13.1 83.7,13.1 83.7,13.2 C83.7,13.2 83.6,13.2 83.6,13.2 C83.4,13.2 83.2,13.3 83.1,13.4 C83.1,13.4 83,13.4 83,13.4 C82.9,13.4 82.7,13.4 82.6,13.5 C82.5,13.5 82.4,13.5 82.3,13.5 C82.2,13.5 82.1,13.5 82.1,13.5 C82,13.5 82.1,13.6 82.1,13.6 L82.1,13.6 C82.1,13.7 82.1,13.7 82.2,13.7 C82.2,13.8 82.3,13.8 82.3,13.9 C82.3,14 82.3,14.1 82.4,14.2 C82.4,14.2 82.4,14.3 82.4,14.3 C82.4,14.4 82.4,14.6 82.5,14.7 C82.5,14.7 82.5,14.8 82.5,14.8 C82.5,14.9 82.5,14.9 82.5,15 C82.6,15.2 82.6,15.2 82.6,15.3 Z" id="github-v_1_"></path>
                            <path d="M52,10.3 C52.4,10.3 52.8,10.4 53.1,10.7 C53.4,11 53.5,11.4 53.5,11.8 C53.5,12.5 53.2,13 52.5,13.2 L50.6,13.8 L51.2,15.6 C51.3,15.8 51.3,15.9 51.3,16.1 C51.3,16.5 51.1,16.9 50.8,17.2 C50.5,17.5 50.1,17.7 49.7,17.7 C49.4,17.7 49.1,17.6 48.8,17.4 C48.5,17.2 48.3,16.9 48.2,16.6 L47.6,14.8 L44.2,15.9 L44.8,17.7 C45,18 45,18.2 45,18.3 C45,18.7 44.8,19.1 44.5,19.4 C44.2,19.7 43.8,19.9 43.4,19.9 C43.1,19.9 42.8,19.8 42.5,19.6 C42.2,19.4 42,19.1 41.9,18.8 L41.3,17 L39.6,17.6 C39.4,17.7 39.2,17.7 39.1,17.7 C38.7,17.7 38.3,17.6 38,17.3 C37.7,17 37.6,16.6 37.6,16.2 C37.6,15.9 37.7,15.6 37.9,15.3 C38.1,15 38.4,14.8 38.7,14.7 L40.4,14.1 L39.3,10.7 L37.6,11.3 C37.4,11.4 37.2,11.4 37.1,11.4 C36.7,11.4 36.3,11.3 36,11 C35.7,10.7 35.6,10.3 35.6,9.9 C35.6,9.6 35.7,9.3 35.9,9 C36.1,8.7 36.4,8.5 36.7,8.4 L38.4,7.8 L37.8,6.1 C37.7,5.9 37.7,5.8 37.7,5.6 C37.7,5.2 37.9,4.8 38.2,4.5 C38.5,4.2 38.9,4 39.3,4 C39.6,4 39.9,4.1 40.2,4.3 C40.5,4.5 40.7,4.8 40.8,5.1 L41.4,6.8 L44.8,5.7 L44,4 C44,3.8 44,3.6 44,3.5 C44,3.1 44.2,2.7 44.5,2.4 C44.8,2.1 45.2,1.9 45.6,1.9 C45.9,1.9 46.2,2 46.5,2.2 C46.8,2.4 47,2.7 47.1,3 L47.7,4.7 L49.5,4.1 C49.7,4.1 49.8,4 50,4 C50.4,4 50.8,4.1 51.1,4.4 C51.4,4.7 51.6,5 51.6,5.5 C51.6,5.8 51.5,6.1 51.3,6.4 C51.1,6.7 50.8,6.8 50.5,7 L48.8,7.6 L49.9,11 L51.7,10.4 C51.6,10.3 51.8,10.3 52,10.3 Z M43.4,13.1 L46.8,12 L45.7,8.6 L42.3,9.8 L43.4,13.1 Z" id="slack-v_1_"></path>
                            <path d="M17,7.5 C16.4,7.8 15.7,8 15,8 C15.7,7.6 16.3,6.9 16.5,6.1 C15.8,6.5 15.1,6.8 14.3,6.9 C13.7,6.2 12.8,5.8 11.8,5.8 C9.9,5.8 8.3,7.4 8.3,9.3 C8.3,9.6 8.3,9.8 8.4,10.1 C5.5,10 2.9,8.6 1.2,6.5 C0.9,7 0.7,7.6 0.7,8.3 C0.7,9.5 1.3,10.6 2.3,11.2 C1.7,11.2 1.2,11 0.7,10.8 C0.7,10.8 0.7,10.8 0.7,10.8 C0.7,12.5 1.9,13.9 3.5,14.2 C3.2,14.3 2.9,14.3 2.6,14.3 C2.4,14.3 2.2,14.3 1.9,14.2 C2.3,15.6 3.6,16.6 5.2,16.6 C4,17.5 2.5,18.1 0.9,18.1 C0.6,18.1 0.3,18.1 0.1,18.1 C1.6,19.1 3.5,19.7 5.4,19.7 C11.8,19.7 15.3,14.4 15.3,9.8 C15.3,9.6 15.3,9.5 15.3,9.3 C15.9,8.9 16.5,8.2 17,7.5 Z" id="twitter-v_1_"></path>
                        </g>
                    </g>
                </g>
            </g>
            <path d="M259.7,3.2 L244.2,3.2 C243.5,3.2 242.9,3.8 242.9,4.5 L242.9,20.1 C242.9,20.8 243.5,21.4 244.2,21.4 L259.7,21.4 C260.4,21.4 261,20.8 261,20.1 L261,4.5 C261,3.8 260.4,3.2 259.7,3.2 Z M248.3,18.4 L245.6,18.4 L245.6,10.2 L248.3,10.2 L248.3,18.4 Z M246.9,9.1 L246.9,9.1 C246,9.1 245.4,8.5 245.4,7.7 C245.4,6.9 246,6.3 247,6.3 C247.9,6.3 248.5,6.9 248.5,7.7 C248.5,8.5 247.9,9.1 246.9,9.1 Z M258.2,18.4 L255.5,18.4 L255.5,14 C255.5,12.9 255.1,12.1 254.1,12.1 C253.3,12.1 252.9,12.6 252.7,13.1 C252.6,13.3 252.6,13.5 252.6,13.8 L252.6,18.4 L249.9,18.4 C249.9,18.4 249.9,11 249.9,10.2 L252.6,10.2 L252.6,11.4 C253,10.8 253.6,10 255.1,10 C256.9,10 258.3,11.2 258.3,13.7 L258.2,18.4 L258.2,18.4 Z" id="LinkedIn__x28_alt_x29_" fill="#30D7A9"></path>
            <path d="M259.7,36.9 L244.2,36.9 C243.5,36.9 242.9,37.5 242.9,38.2 L242.9,53.8 C242.9,54.5 243.5,55.1 244.2,55.1 L259.7,55.1 C260.4,55.1 261,54.5 261,53.8 L261,38.2 C261,37.4 260.4,36.9 259.7,36.9 Z M248.3,52.1 L245.6,52.1 L245.6,43.9 L248.3,43.9 L248.3,52.1 Z M246.9,42.8 L246.9,42.8 C246,42.8 245.4,42.2 245.4,41.4 C245.4,40.6 246,40 247,40 C247.9,40 248.5,40.6 248.5,41.4 C248.5,42.1 247.9,42.8 246.9,42.8 Z M258.2,52.1 L255.5,52.1 L255.5,47.7 C255.5,46.6 255.1,45.8 254.1,45.8 C253.3,45.8 252.9,46.3 252.7,46.8 C252.6,47 252.6,47.2 252.6,47.5 L252.6,52.1 L249.9,52.1 C249.9,52.1 249.9,44.7 249.9,43.9 L252.6,43.9 L252.6,45 C253,44.4 253.6,43.6 255.1,43.6 C256.9,43.6 258.3,44.8 258.3,47.3 L258.2,52.1 L258.2,52.1 Z" id="LinkedIn__x28_alt_x29__1_" fill="#3E396B"></path>
            <path d="M259.7,70.7 L244.2,70.7 C243.5,70.7 242.9,71.3 242.9,72 L242.9,87.6 C242.9,88.3 243.5,88.9 244.2,88.9 L259.7,88.9 C260.4,88.9 261,88.3 261,87.6 L261,72 C261,71.3 260.4,70.7 259.7,70.7 Z M248.3,85.9 L245.6,85.9 L245.6,77.7 L248.3,77.7 L248.3,85.9 Z M246.9,76.6 L246.9,76.6 C246,76.6 245.4,76 245.4,75.2 C245.4,74.4 246,73.8 247,73.8 C247.9,73.8 248.5,74.4 248.5,75.2 C248.5,76 247.9,76.6 246.9,76.6 Z M258.2,85.9 L255.5,85.9 L255.5,81.5 C255.5,80.4 255.1,79.6 254.1,79.6 C253.3,79.6 252.9,80.1 252.7,80.6 C252.6,80.8 252.6,81 252.6,81.3 L252.6,85.9 L249.9,85.9 C249.9,85.9 249.9,78.5 249.9,77.7 L252.6,77.7 L252.6,78.9 C253,78.3 253.6,77.5 255.1,77.5 C256.9,77.5 258.3,78.7 258.3,81.2 L258.2,85.9 L258.2,85.9 Z" id="LinkedIn__x28_alt_x29__2_" fill="#FFFFFF"></path>
        </g>
    </g>
</svg>