<?xml version="1.0" encoding="UTF-8" standalone="no"?>
<svg width="82px" height="69px" viewBox="0 0 82 69" version="1.1" xmlns="http://www.w3.org/2000/svg" xmlns:xlink="http://www.w3.org/1999/xlink">
    <!-- Generator: Sketch 43.1 (39012) - http://www.bohemiancoding.com/sketch -->
    <title>Page 1</title>
    <desc>Created with Sketch.</desc>
    <defs></defs>
    <g id="Page-1" stroke="none" stroke-width="1" fill="none" fill-rule="evenodd">
        <g id="Desktop-Token-UI" transform="translate(-425.000000, -1162.000000)">
            <g id="Why-decentralized?" transform="translate(350.000000, 1017.000000)">
                <g id="cont">
                    <g id="Group-2" transform="translate(0.000000, 101.000000)">
                        <g id="cont" transform="translate(25.000000, 44.000000)">
                            <g id="Page-1" transform="translate(50.000000, 0.000000)">
                                <polygon id="Stroke-2" stroke="#E0E7ED" stroke-width="2" stroke-linecap="round" stroke-linejoin="round" points="80.6764 37.8045 1.0004 37.8045 28.4994 14.0225 53.1764 14.0225"></polygon>
                                <path d="M21.0987,37.6005 L35.4487,14.1495" id="Stroke-4" stroke="#E0E7ED" stroke-width="2" stroke-linecap="round" stroke-linejoin="round"></path>
                                <path d="M59.8617,37.5685 L46.1837,14.2455" id="Stroke-5" stroke="#E0E7ED" stroke-width="2" stroke-linecap="round" stroke-linejoin="round"></path>
                                <path d="M41.8617,37.5685 L41.1837,14.2455" id="Stroke-6" stroke="#E0E7ED" stroke-width="2" stroke-linecap="round" stroke-linejoin="round"></path>
                                <path d="M22.5876,19.5562 L58.8526,19.5562" id="Stroke-7" stroke="#E0E7ED" stroke-width="2" stroke-linecap="round" stroke-linejoin="round"></path>
                                <path d="M13.4851,27.6185 L68.1471,27.6185" id="Stroke-8" stroke="#E0E7ED" stroke-width="2" stroke-linecap="round" stroke-linejoin="round"></path>
                                <g id="Group-27" transform="translate(11.000000, 0.834700)">
                                    <path d="M21.6353,13.0341 C20.9863,11.8101 20.6183,10.4141 20.6183,8.9311 C20.6183,4.0901 24.5423,0.1651 29.3843,0.1651 C34.2253,0.1651 38.1503,4.0901 38.1503,8.9311 C38.1503,10.3461 37.8153,11.6821 37.2203,12.8651" id="Stroke-9" stroke="#E0E7ED" stroke-width="2" stroke-linecap="round" stroke-linejoin="round"></path>
                                    <path d="M57.8316,26.6224 L50.6956,1.9774 L43.7746,26.6224 L43.9806,26.6224 C44.1136,27.8154 47.1026,28.7694 50.7806,28.7694 C54.4586,28.7694 57.4476,27.8154 57.5806,26.6224 L57.8316,26.6224 Z" id="Fill-11" fill="#FEFEFE"></path>
                                    <path d="M57.8316,26.6224 L50.6956,1.9774 L43.7746,26.6224 L43.9806,26.6224 C44.1136,27.8154 47.1026,28.7694 50.7806,28.7694 C54.4586,28.7694 57.4476,27.8154 57.5806,26.6224 L57.8316,26.6224 Z" id="Stroke-13" stroke="#E0E7ED" stroke-width="2" stroke-linecap="round" stroke-linejoin="round"></path>
                                    <path d="M20.2483,18.308 L16.3803,5.838 L12.6293,18.308 L12.7403,18.308 C12.8133,18.912 14.4333,19.394 16.4263,19.394 C18.4193,19.394 20.0403,18.912 20.1123,18.308 L20.2483,18.308 Z" id="Fill-15" fill="#FEFEFE"></path>
                                    <path d="M20.2483,18.308 L16.3803,5.838 L12.6293,18.308 L12.7403,18.308 C12.8133,18.912 14.4333,19.394 16.4263,19.394 C18.4193,19.394 20.0403,18.912 20.1123,18.308 L20.2483,18.308 Z" id="Stroke-17" stroke="#E0E7ED" stroke-width="2" stroke-linecap="round" stroke-linejoin="round"></path>
                                    <g id="Group-26" transform="translate(0.000000, 46.000000)">
                                        <path d="M33.7309,9.0188 L46.4499,5.9388 C47.7099,5.6288 48.9839,6.3948 49.3839,7.7028 C49.7799,9.0008 49.1829,10.4058 48.0059,10.9498 L27.9589,20.3078 C26.1179,21.1108 24.0719,21.2188 22.1649,20.6118 L5.7669,14.6418 L0.6189,14.6418" id="Fill-19" fill="#FEFEFE"></path>
                                        <path d="M33.7309,9.0188 L46.4499,5.9388 C47.7099,5.6288 48.9839,6.3948 49.3839,7.7028 C49.7799,9.0008 49.1829,10.4058 48.0059,10.9498 L27.9589,20.3078 C26.1179,21.1108 24.0719,21.2188 22.1649,20.6118 L5.7669,14.6418 L0.6189,14.6418" id="Stroke-21" stroke="#3E396B" stroke-width="2" stroke-linecap="round" stroke-linejoin="round"></path>
                                        <path d="M0.6185,0.9979 L10.7015,0.9979 C12.3085,0.9979 13.8985,1.3279 15.3725,1.9689 L22.7415,5.1709 L30.6885,5.1709 C32.3685,5.1709 33.7305,6.5329 33.7305,8.2129 C33.7305,9.8929 32.3685,11.2549 30.6885,11.2549 L17.1165,11.2549" id="Fill-23" fill="#FEFEFE"></path>
                                        <path d="M0.6185,0.9979 L10.7015,0.9979 C12.3085,0.9979 13.8985,1.3279 15.3725,1.9689 L22.7415,5.1709 L30.6885,5.1709 C32.3685,5.1709 33.7305,6.5329 33.7305,8.2129 C33.7305,9.8929 32.3685,11.2549 30.6885,11.2549 L17.1165,11.2549" id="Stroke-25" stroke="#3E396B" stroke-width="2" stroke-linecap="round" stroke-linejoin="round"></path>
                                    </g>
                                </g>
                            </g>
                        </g>
                    </g>
                </g>
            </g>
        </g>
    </g>
</svg>