<?xml version="1.0" encoding="UTF-8" standalone="no"?>
<svg width="1440px" height="245px" viewBox="0 0 1440 245" version="1.1" xmlns="http://www.w3.org/2000/svg" xmlns:xlink="http://www.w3.org/1999/xlink">
    <!-- Generator: Sketch 43.1 (39012) - http://www.bohemiancoding.com/sketch -->
    <title>original_original_Oval 5_73078322_54695110 Group</title>
    <desc>Created with Sketch.</desc>
    <defs></defs>
    <g id="Page-1" stroke="none" stroke-width="1" fill="none" fill-rule="evenodd" opacity="0.200000003">
        <g id="Desktop-Token-UI" transform="translate(0.000000, -3253.000000)" stroke="#E0E7ED" stroke-width="2">
            <g id="Looper_Group" transform="translate(0.000000, 3253.000000)">
                <g id="original_original_Oval-5_73078322_54695110-Group" transform="translate(-456.000000, -978.000000)">
                    <path d="M1118.86268,1862.67694 C1118.86268,1862.67694 2066.65645,1531.34222 2066.65645,1085 C2066.65645,638.657783 1118.86268,307.323059 1118.86268,307.323059 C1118.86268,307.323059 171.068905,638.657783 171.068905,1085 C171.068905,1531.34222 1118.86268,1862.67694 1118.86268,1862.67694 Z" id="duplicate_100_original_original_Oval-5_73078322_54695110" transform="translate(1118.862676, 1085.000000) rotate(356.400000) translate(-1118.862676, -1085.000000) "></path>
                    <path d="M1119.0689,1854.66743 C1119.0689,1854.66743 2057.10109,1526.74522 2057.10109,1085 C2057.10109,643.254783 1119.0689,315.332566 1119.0689,315.332566 C1119.0689,315.332566 181.03672,643.254783 181.03672,1085 C181.03672,1526.74522 1119.0689,1854.66743 1119.0689,1854.66743 Z" id="duplicate_99_original_original_Oval-5_73078322_54695110" transform="translate(1119.068905, 1085.000000) rotate(352.800000) translate(-1119.068905, -1085.000000) "></path>
                    <path d="M1119.53672,1846.87978 C1119.53672,1846.87978 2048.0777,1522.27554 2048.0777,1085 C2048.0777,647.724455 1119.53672,323.120225 1119.53672,323.120225 C1119.53672,323.120225 190.995744,647.724455 190.995744,1085 C190.995744,1522.27554 1119.53672,1846.87978 1119.53672,1846.87978 Z" id="duplicate_98_original_original_Oval-5_73078322_54695110" transform="translate(1119.536720, 1085.000000) rotate(349.200000) translate(-1119.536720, -1085.000000) "></path>
                    <path d="M1119.99574,1839.37274 C1119.99574,1839.37274 2039.38752,1517.96693 2039.38752,1085 C2039.38752,652.033065 1119.99574,330.62726 1119.99574,330.62726 C1119.99574,330.62726 200.603967,652.033065 200.603967,1085 C200.603967,1517.96693 1119.99574,1839.37274 1119.99574,1839.37274 Z" id="duplicate_97_original_original_Oval-5_73078322_54695110" transform="translate(1119.995744, 1085.000000) rotate(345.600000) translate(-1119.995744, -1085.000000) "></path>
                    <path d="M1120.60397,1831.99385 C1120.60397,1831.99385 2031.00272,1513.73187 2031.00272,1085 C2031.00272,656.268129 1120.60397,338.006153 1120.60397,338.006153 C1120.60397,338.006153 210.205216,656.268129 210.205216,1085 C210.205216,1513.73187 1120.60397,1831.99385 1120.60397,1831.99385 Z" id="duplicate_96_original_original_Oval-5_73078322_54695110" transform="translate(1120.603967, 1085.000000) rotate(342.000000) translate(-1120.603967, -1085.000000) "></path>
                    <path d="M1121.20522,1824.48805 C1121.20522,1824.48805 2022.45628,1509.42397 2022.45628,1085 C2022.45628,660.576027 1121.20522,345.511947 1121.20522,345.511947 C1121.20522,345.511947 219.954151,660.576027 219.954151,1085 C219.954151,1509.42397 1121.20522,1824.48805 1121.20522,1824.48805 Z" id="duplicate_95_original_original_Oval-5_73078322_54695110" transform="translate(1121.205216, 1085.000000) rotate(338.400000) translate(-1121.205216, -1085.000000) "></path>
                    <path d="M1121.45415,1816.70205 C1121.45415,1816.70205 2013.21602,1504.95525 2013.21602,1085 C2013.21602,665.04475 1121.45415,353.297952 1121.45415,353.297952 C1121.45415,353.297952 229.69228,665.04475 229.69228,1085 C229.69228,1504.95525 1121.45415,1816.70205 1121.45415,1816.70205 Z" id="duplicate_94_original_original_Oval-5_73078322_54695110" transform="translate(1121.454151, 1085.000000) rotate(334.800000) translate(-1121.454151, -1085.000000) "></path>
                    <path d="M1121.69228,1808.6932 C1121.69228,1808.6932 2003.69337,1500.35863 2003.69337,1085 C2003.69337,669.641373 1121.69228,361.306802 1121.69228,361.306802 C1121.69228,361.306802 239.691196,669.641373 239.691196,1085 C239.691196,1500.35863 1121.69228,1808.6932 1121.69228,1808.6932 Z" id="duplicate_93_original_original_Oval-5_73078322_54695110" transform="translate(1121.692280, 1085.000000) rotate(331.200000) translate(-1121.692280, -1085.000000) "></path>
                    <path d="M1122.1912,1800.90473 C1122.1912,1800.90473 1994.70009,1495.88849 1994.70009,1085 C1994.70009,674.111508 1122.1912,369.095268 1122.1912,369.095268 C1122.1912,369.095268 249.682304,674.111508 249.682304,1085 C249.682304,1495.88849 1122.1912,1800.90473 1122.1912,1800.90473 Z" id="duplicate_92_original_original_Oval-5_73078322_54695110" transform="translate(1122.191196, 1085.000000) rotate(327.600000) translate(-1122.191196, -1085.000000) "></path>
                    <path d="M1122.6823,1793.39851 C1122.6823,1793.39851 1986.04299,1491.58035 1986.04299,1085 C1986.04299,678.419651 1122.6823,376.601489 1122.6823,376.601489 C1122.6823,376.601489 259.321618,678.419651 259.321618,1085 C259.321618,1491.58035 1122.6823,1793.39851 1122.6823,1793.39851 Z" id="duplicate_91_original_original_Oval-5_73078322_54695110" transform="translate(1122.682304, 1085.000000) rotate(324.000000) translate(-1122.682304, -1085.000000) "></path>
                    <path d="M1122.82162,1785.61303 C1122.82162,1785.61303 1976.69375,1487.11193 1976.69375,1085 C1976.69375,682.88807 1122.82162,384.386965 1122.82162,384.386965 C1122.82162,384.386965 268.949482,682.88807 268.949482,1085 C268.949482,1487.11193 1122.82162,1785.61303 1122.82162,1785.61303 Z" id="duplicate_90_original_original_Oval-5_73078322_54695110" transform="translate(1122.821618, 1085.000000) rotate(320.400000) translate(-1122.821618, -1085.000000) "></path>
                    <path d="M1122.94948,1777.6037 C1122.94948,1777.6037 1967.06024,1482.51503 1967.06024,1085 C1967.06024,687.484972 1122.94948,392.396301 1122.94948,392.396301 C1122.94948,392.396301 278.838724,687.484972 278.838724,1085 C278.838724,1482.51503 1122.94948,1777.6037 1122.94948,1777.6037 Z" id="duplicate_89_original_original_Oval-5_73078322_54695110" transform="translate(1122.949482, 1085.000000) rotate(316.800000) translate(-1122.949482, -1085.000000) "></path>
                    <path d="M1123.33872,1769.81564 C1123.33872,1769.81564 1957.95779,1478.04513 1957.95779,1085 C1957.95779,691.954873 1123.33872,400.184359 1123.33872,400.184359 C1123.33872,400.184359 288.719661,691.954873 288.719661,1085 C288.719661,1478.04513 1123.33872,1769.81564 1123.33872,1769.81564 Z" id="duplicate_88_original_original_Oval-5_73078322_54695110" transform="translate(1123.338724, 1085.000000) rotate(313.200000) translate(-1123.338724, -1085.000000) "></path>
                    <path d="M1123.71966,1762.309 C1123.71966,1762.309 1949.19,1473.73674 1949.19,1085 C1949.19,696.263259 1123.71966,407.691003 1123.71966,407.691003 C1123.71966,407.691003 298.249322,696.263259 298.249322,1085 C298.249322,1473.73674 1123.71966,1762.309 1123.71966,1762.309 Z" id="duplicate_87_original_original_Oval-5_73078322_54695110" transform="translate(1123.719661, 1085.000000) rotate(309.600000) translate(-1123.719661, -1085.000000) "></path>
                    <path d="M1124.24932,1754.92958 C1124.24932,1754.92958 1940.726,1469.50138 1940.726,1085 C1940.726,700.498622 1124.24932,415.070418 1124.24932,415.070418 C1124.24932,415.070418 307.772643,700.498622 307.772643,1085 C307.772643,1469.50138 1124.24932,1754.92958 1124.24932,1754.92958 Z" id="duplicate_86_original_original_Oval-5_73078322_54695110" transform="translate(1124.249322, 1085.000000) rotate(306.000000) translate(-1124.249322, -1085.000000) "></path>
                    <path d="M1124.77264,1747.42431 C1124.77264,1747.42431 1932.10227,1465.19378 1932.10227,1085 C1932.10227,704.806221 1124.77264,422.57569 1124.77264,422.57569 C1124.77264,422.57569 317.443016,704.806221 317.443016,1085 C317.443016,1465.19378 1124.77264,1747.42431 1124.77264,1747.42431 Z" id="duplicate_85_original_original_Oval-5_73078322_54695110" transform="translate(1124.772643, 1085.000000) rotate(302.400000) translate(-1124.772643, -1085.000000) "></path>
                    <path d="M1124.94302,1739.63812 C1124.94302,1739.63812 1922.78323,1460.72495 1922.78323,1085 C1922.78323,709.275049 1124.94302,430.361879 1124.94302,430.361879 C1124.94302,430.361879 327.102806,709.275049 327.102806,1085 C327.102806,1460.72495 1124.94302,1739.63812 1124.94302,1739.63812 Z" id="duplicate_84_original_original_Oval-5_73078322_54695110" transform="translate(1124.943016, 1085.000000) rotate(298.800000) translate(-1124.943016, -1085.000000) "></path>
                    <path d="M1125.10281,1731.62948 C1125.10281,1731.62948 1913.18249,1456.12845 1913.18249,1085 C1913.18249,713.871552 1125.10281,438.37052 1125.10281,438.37052 C1125.10281,438.37052 337.023127,713.871552 337.023127,1085 C337.023127,1456.12845 1125.10281,1731.62948 1125.10281,1731.62948 Z" id="duplicate_83_original_original_Oval-5_73078322_54695110" transform="translate(1125.102806, 1085.000000) rotate(295.200000) translate(-1125.102806, -1085.000000) "></path>
                    <path d="M1125.52313,1723.84054 C1125.52313,1723.84054 1904.11004,1451.65804 1904.11004,1085 C1904.11004,718.341958 1125.52313,446.159457 1125.52313,446.159457 C1125.52313,446.159457 346.936215,718.341958 346.936215,1085 C346.936215,1451.65804 1125.52313,1723.84054 1125.52313,1723.84054 Z" id="duplicate_82_original_original_Oval-5_73078322_54695110" transform="translate(1125.523127, 1085.000000) rotate(291.600000) translate(-1125.523127, -1085.000000) "></path>
                    <path d="M1125.93622,1716.33478 C1125.93622,1716.33478 1895.37548,1447.35016 1895.37548,1085 C1895.37548,722.649836 1125.93622,453.665216 1125.93622,453.665216 C1125.93622,453.665216 356.496947,722.649836 356.496947,1085 C356.496947,1447.35016 1125.93622,1716.33478 1125.93622,1716.33478 Z" id="duplicate_81_original_original_Oval-5_73078322_54695110" transform="translate(1125.936215, 1085.000000) rotate(288.000000) translate(-1125.936215, -1085.000000) "></path>
                    <path d="M1126.49695,1708.95438 C1126.49695,1708.95438 1886.94135,1443.11423 1886.94135,1085 C1886.94135,726.885768 1126.49695,461.045622 1126.49695,461.045622 C1126.49695,461.045622 366.052549,726.885768 366.052549,1085 C366.052549,1443.11423 1126.49695,1708.95438 1126.49695,1708.95438 Z" id="duplicate_80_original_original_Oval-5_73078322_54695110" transform="translate(1126.496947, 1085.000000) rotate(284.400000) translate(-1126.496947, -1085.000000) "></path>
                    <path d="M1127.05255,1701.45007 C1127.05255,1701.45007 1878.35107,1438.80719 1878.35107,1085 C1878.35107,731.192815 1127.05255,468.549933 1127.05255,468.549933 C1127.05255,468.549933 375.75403,731.192815 375.75403,1085 C375.75403,1438.80719 1127.05255,1701.45007 1127.05255,1701.45007 Z" id="duplicate_79_original_original_Oval-5_73078322_54695110" transform="translate(1127.052549, 1085.000000) rotate(280.800000) translate(-1127.052549, -1085.000000) "></path>
                    <path d="M1127.25403,1693.66319 C1127.25403,1693.66319 1869.06229,1434.33796 1869.06229,1085 C1869.06229,735.66204 1127.25403,476.336814 1127.25403,476.336814 C1127.25403,476.336814 385.445772,735.66204 385.445772,1085 C385.445772,1434.33796 1127.25403,1693.66319 1127.25403,1693.66319 Z" id="duplicate_78_original_original_Oval-5_73078322_54695110" transform="translate(1127.254030, 1085.000000) rotate(277.200000) translate(-1127.254030, -1085.000000) "></path>
                    <path d="M1127.44577,1685.65522 C1127.44577,1685.65522 1859.49432,1429.74184 1859.49432,1085 C1859.49432,740.258158 1127.44577,484.344783 1127.44577,484.344783 C1127.44577,484.344783 395.397227,740.258158 395.397227,1085 C395.397227,1429.74184 1127.44577,1685.65522 1127.44577,1685.65522 Z" id="duplicate_77_original_original_Oval-5_73078322_54695110" transform="translate(1127.445772, 1085.000000) rotate(273.600000) translate(-1127.445772, -1085.000000) "></path>
                    <path d="M1127.89723,1677.86539 C1127.89723,1677.86539 1850.45193,1425.27093 1850.45193,1085 C1850.45193,744.729071 1127.89723,492.134605 1127.89723,492.134605 C1127.89723,492.134605 405.342527,744.729071 405.342527,1085 C405.342527,1425.27093 1127.89723,1677.86539 1127.89723,1677.86539 Z" id="duplicate_76_original_original_Oval-5_73078322_54695110" transform="translate(1127.897227, 1085.000000) rotate(270.000000) translate(-1127.897227, -1085.000000) "></path>
                    <path d="M1128.34253,1670.36053 C1128.34253,1670.36053 1841.75067,1420.96356 1841.75067,1085 C1841.75067,749.036437 1128.34253,499.639473 1128.34253,499.639473 C1128.34253,499.639473 414.934384,749.036437 414.934384,1085 C414.934384,1420.96356 1128.34253,1670.36053 1128.34253,1670.36053 Z" id="duplicate_75_original_original_Oval-5_73078322_54695110" transform="translate(1128.342527, 1085.000000) rotate(266.400000) translate(-1128.342527, -1085.000000) "></path>
                    <path d="M1128.93438,1662.97911 C1128.93438,1662.97911 1833.34642,1416.72705 1833.34642,1085 C1833.34642,753.272953 1128.93438,507.020895 1128.93438,507.020895 C1128.93438,507.020895 424.52235,753.272953 424.52235,1085 C424.52235,1416.72705 1128.93438,1662.97911 1128.93438,1662.97911 Z" id="duplicate_74_original_original_Oval-5_73078322_54695110" transform="translate(1128.934384, 1085.000000) rotate(262.800000) translate(-1128.934384, -1085.000000) "></path>
                    <path d="M1129.52235,1655.47577 C1129.52235,1655.47577 1824.7897,1412.42056 1824.7897,1085 C1824.7897,757.579437 1129.52235,514.524227 1129.52235,514.524227 C1129.52235,514.524227 434.255001,757.579437 434.255001,1085 C434.255001,1412.42056 1129.52235,1655.47577 1129.52235,1655.47577 Z" id="duplicate_73_original_original_Oval-5_73078322_54695110" transform="translate(1129.522350, 1085.000000) rotate(259.200000) translate(-1129.522350, -1085.000000) "></path>
                    <path d="M1129.755,1647.68822 C1129.755,1647.68822 1815.53128,1407.95095 1815.53128,1085 C1815.53128,762.049046 1129.755,522.311775 1129.755,522.311775 C1129.755,522.311775 443.978727,762.049046 443.978727,1085 C443.978727,1407.95095 1129.755,1647.68822 1129.755,1647.68822 Z" id="duplicate_72_original_original_Oval-5_73078322_54695110" transform="translate(1129.755001, 1085.000000) rotate(255.600000) translate(-1129.755001, -1085.000000) "></path>
                    <path d="M1129.97873,1639.6809 C1129.97873,1639.6809 1805.99607,1403.35521 1805.99607,1085 C1805.99607,766.644795 1129.97873,530.319101 1129.97873,530.319101 C1129.97873,530.319101 453.961382,766.644795 453.961382,1085 C453.961382,1403.35521 1129.97873,1639.6809 1129.97873,1639.6809 Z" id="duplicate_71_original_original_Oval-5_73078322_54695110" transform="translate(1129.978727, 1085.000000) rotate(252.000000) translate(-1129.978727, -1085.000000) "></path>
                    <path d="M1130.46138,1631.89018 C1130.46138,1631.89018 1796.98379,1398.88378 1796.98379,1085 C1796.98379,771.116221 1130.46138,538.109817 1130.46138,538.109817 C1130.46138,538.109817 463.938971,771.116221 463.938971,1085 C463.938971,1398.88378 1130.46138,1631.89018 1130.46138,1631.89018 Z" id="duplicate_70_original_original_Oval-5_73078322_54695110" transform="translate(1130.461382, 1085.000000) rotate(248.400000) translate(-1130.461382, -1085.000000) "></path>
                    <path d="M1130.93897,1624.38621 C1130.93897,1624.38621 1788.31592,1394.57693 1788.31592,1085 C1788.31592,775.423071 1130.93897,545.613786 1130.93897,545.613786 C1130.93897,545.613786 473.562022,775.423071 473.562022,1085 C473.562022,1394.57693 1130.93897,1624.38621 1130.93897,1624.38621 Z" id="duplicate_69_original_original_Oval-5_73078322_54695110" transform="translate(1130.938971, 1085.000000) rotate(244.800000) translate(-1130.938971, -1085.000000) "></path>
                    <path d="M1131.06202,1616.59949 C1131.06202,1616.59949 1778.9489,1390.10779 1778.9489,1085 C1778.9489,779.892208 1131.06202,553.400511 1131.06202,553.400511 C1131.06202,553.400511 483.175145,779.892208 483.175145,1085 C483.175145,1390.10779 1131.06202,1616.59949 1131.06202,1616.59949 Z" id="duplicate_68_original_original_Oval-5_73078322_54695110" transform="translate(1131.062022, 1085.000000) rotate(241.200000) translate(-1131.062022, -1085.000000) "></path>
                    <path d="M1131.17515,1608.5914 C1131.17515,1608.5914 1769.30217,1385.51161 1769.30217,1085 C1769.30217,784.488391 1131.17515,561.408596 1131.17515,561.408596 C1131.17515,561.408596 493.048121,784.488391 493.048121,1085 C493.048121,1385.51161 1131.17515,1608.5914 1131.17515,1608.5914 Z" id="duplicate_67_original_original_Oval-5_73078322_54695110" transform="translate(1131.175145, 1085.000000) rotate(237.600000) translate(-1131.175145, -1085.000000) "></path>
                    <path d="M1131.54812,1600.8013 C1131.54812,1600.8013 1760.18096,1381.04053 1760.18096,1085 C1760.18096,788.959466 1131.54812,569.198698 1131.54812,569.198698 C1131.54812,569.198698 502.915284,788.959466 502.915284,1085 C502.915284,1381.04053 1131.54812,1600.8013 1131.54812,1600.8013 Z" id="duplicate_66_original_original_Oval-5_73078322_54695110" transform="translate(1131.548121, 1085.000000) rotate(234.000000) translate(-1131.548121, -1085.000000) "></path>
                    <path d="M1131.91528,1593.29671 C1131.91528,1593.29671 1751.40189,1376.73332 1751.40189,1085 C1751.40189,793.266677 1131.91528,576.703294 1131.91528,576.703294 C1131.91528,576.703294 512.428674,793.266677 512.428674,1085 C512.428674,1376.73332 1131.91528,1593.29671 1131.91528,1593.29671 Z" id="duplicate_65_original_original_Oval-5_73078322_54695110" transform="translate(1131.915284, 1085.000000) rotate(230.400000) translate(-1131.915284, -1085.000000) "></path>
                    <path d="M1132.42867,1585.91478 C1132.42867,1585.91478 1742.91856,1372.49652 1742.91856,1085 C1742.91856,797.50348 1132.42867,584.085218 1132.42867,584.085218 C1132.42867,584.085218 521.938784,797.50348 521.938784,1085 C521.938784,1372.49652 1132.42867,1585.91478 1132.42867,1585.91478 Z" id="duplicate_64_original_original_Oval-5_73078322_54695110" transform="translate(1132.428674, 1085.000000) rotate(226.800000) translate(-1132.428674, -1085.000000) "></path>
                    <path d="M1132.93878,1578.41194 C1132.93878,1578.41194 1734.28458,1368.19032 1734.28458,1085 C1734.28458,801.809684 1132.93878,591.588062 1132.93878,591.588062 C1132.93878,591.588062 531.592984,801.809684 531.592984,1085 C531.592984,1368.19032 1132.93878,1578.41194 1132.93878,1578.41194 Z" id="duplicate_63_original_original_Oval-5_73078322_54695110" transform="translate(1132.938784, 1085.000000) rotate(223.200000) translate(-1132.938784, -1085.000000) "></path>
                    <path d="M1133.09298,1570.62449 C1133.09298,1570.62449 1724.94784,1363.72077 1724.94784,1085 C1724.94784,806.279233 1133.09298,599.375505 1133.09298,599.375505 C1133.09298,599.375505 541.238131,806.279233 541.238131,1085 C541.238131,1363.72077 1133.09298,1570.62449 1133.09298,1570.62449 Z" id="duplicate_62_original_original_Oval-5_73078322_54695110" transform="translate(1133.092984, 1085.000000) rotate(219.600000) translate(-1133.092984, -1085.000000) "></path>
                    <path d="M1133.23813,1562.6171 C1133.23813,1562.6171 1715.33398,1359.12498 1715.33398,1085 C1715.33398,810.875019 1133.23813,607.382897 1133.23813,607.382897 C1133.23813,607.382897 551.142287,810.875019 551.142287,1085 C551.142287,1359.12498 1133.23813,1562.6171 1133.23813,1562.6171 Z" id="duplicate_61_original_original_Oval-5_73078322_54695110" transform="translate(1133.238131, 1085.000000) rotate(216.000000) translate(-1133.238131, -1085.000000) "></path>
                    <path d="M1133.64229,1554.82598 C1133.64229,1554.82598 1706.2427,1354.65332 1706.2427,1085 C1706.2427,815.34668 1133.64229,615.174021 1133.64229,615.174021 C1133.64229,615.174021 561.041875,815.34668 561.041875,1085 C561.041875,1354.65332 1133.64229,1554.82598 1133.64229,1554.82598 Z" id="duplicate_60_original_original_Oval-5_73078322_54695110" transform="translate(1133.642287, 1085.000000) rotate(212.400000) translate(-1133.642287, -1085.000000) "></path>
                    <path d="M1134.04188,1547.32241 C1134.04188,1547.32241 1697.49731,1350.3467 1697.49731,1085 C1697.49731,819.653303 1134.04188,622.677595 1134.04188,622.677595 C1134.04188,622.677595 570.586443,819.653303 570.586443,1085 C570.586443,1350.3467 1134.04188,1547.32241 1134.04188,1547.32241 Z" id="duplicate_59_original_original_Oval-5_73078322_54695110" transform="translate(1134.041875, 1085.000000) rotate(208.800000) translate(-1134.041875, -1085.000000) "></path>
                    <path d="M1134.58644,1539.93927 C1134.58644,1539.93927 1689.04367,1346.1092 1689.04367,1085 C1689.04367,823.890805 1134.58644,630.060735 1134.58644,630.060735 C1134.58644,630.060735 580.129214,823.890805 580.129214,1085 C580.129214,1346.1092 1134.58644,1539.93927 1134.58644,1539.93927 Z" id="duplicate_58_original_original_Oval-5_73078322_54695110" transform="translate(1134.586443, 1085.000000) rotate(205.200000) translate(-1134.586443, -1085.000000) "></path>
                    <path d="M1135.12921,1532.43758 C1135.12921,1532.43758 1680.44376,1341.80365 1680.44376,1085 C1680.44376,828.196345 1135.12921,637.562422 1135.12921,637.562422 C1135.12921,637.562422 589.814666,828.196345 589.814666,1085 C589.814666,1341.80365 1135.12921,1532.43758 1135.12921,1532.43758 Z" id="duplicate_57_original_original_Oval-5_73078322_54695110" transform="translate(1135.129214, 1085.000000) rotate(201.600000) translate(-1135.129214, -1085.000000) "></path>
                    <path d="M1135.31467,1524.64947 C1135.31467,1524.64947 1671.13745,1337.33372 1671.13745,1085 C1671.13745,832.666277 1135.31467,645.350534 1135.31467,645.350534 C1135.31467,645.350534 599.491879,832.666277 599.491879,1085 C599.491879,1337.33372 1135.31467,1524.64947 1135.31467,1524.64947 Z" id="duplicate_56_original_original_Oval-5_73078322_54695110" transform="translate(1135.314666, 1085.000000) rotate(198.000000) translate(-1135.314666, -1085.000000) "></path>
                    <path d="M1135.49188,1516.64271 C1135.49188,1516.64271 1661.55643,1332.7383 1661.55643,1085 C1661.55643,837.261698 1135.49188,653.357289 1135.49188,653.357289 C1135.49188,653.357289 609.427325,837.261698 609.427325,1085 C609.427325,1332.7383 1135.49188,1516.64271 1135.49188,1516.64271 Z" id="duplicate_55_original_original_Oval-5_73078322_54695110" transform="translate(1135.491879, 1085.000000) rotate(194.400000) translate(-1135.491879, -1085.000000) "></path>
                    <path d="M1135.92733,1508.85055 C1135.92733,1508.85055 1652.49518,1328.26605 1652.49518,1085 C1652.49518,841.733955 1135.92733,661.149451 1135.92733,661.149451 C1135.92733,661.149451 619.359468,841.733955 619.359468,1085 C619.359468,1328.26605 1135.92733,1508.85055 1135.92733,1508.85055 Z" id="duplicate_54_original_original_Oval-5_73078322_54695110" transform="translate(1135.927325, 1085.000000) rotate(190.800000) translate(-1135.927325, -1085.000000) "></path>
                    <path d="M1136.35947,1501.34801 C1136.35947,1501.34801 1643.78361,1323.96002 1643.78361,1085 C1643.78361,846.039984 1136.35947,668.651989 1136.35947,668.651989 C1136.35947,668.651989 628.93533,846.039984 628.93533,1085 C628.93533,1323.96002 1136.35947,1501.34801 1136.35947,1501.34801 Z" id="duplicate_53_original_original_Oval-5_73078322_54695110" transform="translate(1136.359468, 1085.000000) rotate(187.200000) translate(-1136.359468, -1085.000000) "></path>
                    <path d="M1136.93533,1493.96359 C1136.93533,1493.96359 1635.35971,1319.72178 1635.35971,1085 C1635.35971,850.278218 1136.93533,676.036405 1136.93533,676.036405 C1136.93533,676.036405 638.510948,850.278218 638.510948,1085 C638.510948,1319.72178 1136.93533,1493.96359 1136.93533,1493.96359 Z" id="duplicate_52_original_original_Oval-5_73078322_54695110" transform="translate(1136.935330, 1085.000000) rotate(183.600000) translate(-1136.935330, -1085.000000) "></path>
                    <path d="M1137.51095,1486.46311 C1137.51095,1486.46311 1626.79411,1315.41693 1626.79411,1085 C1626.79411,854.583071 1137.51095,683.536894 1137.51095,683.536894 C1137.51095,683.536894 648.227788,854.583071 648.227788,1085 C648.227788,1315.41693 1137.51095,1486.46311 1137.51095,1486.46311 Z" id="duplicate_51_original_original_Oval-5_73078322_54695110" transform="translate(1137.510948, 1085.000000) rotate(180.000000) translate(-1137.510948, -1085.000000) "></path>
                    <path d="M1137.72779,1478.67439 C1137.72779,1478.67439 1617.51845,1310.94665 1617.51845,1085 C1617.51845,859.053349 1137.72779,691.325609 1137.72779,691.325609 C1137.72779,691.325609 657.937124,859.053349 657.937124,1085 C657.937124,1310.94665 1137.72779,1478.67439 1137.72779,1478.67439 Z" id="duplicate_50_original_original_Oval-5_73078322_54695110" transform="translate(1137.727788, 1085.000000) rotate(176.400000) translate(-1137.727788, -1085.000000) "></path>
                    <path d="M1137.93712,1470.6682 C1137.93712,1470.6682 1607.97024,1306.35155 1607.97024,1085 C1607.97024,863.648448 1137.93712,699.331804 1137.93712,699.331804 C1137.93712,699.331804 667.90401,863.648448 667.90401,1085 C667.90401,1306.35155 1137.93712,1470.6682 1137.93712,1470.6682 Z" id="duplicate_49_original_original_Oval-5_73078322_54695110" transform="translate(1137.937124, 1085.000000) rotate(172.800000) translate(-1137.937124, -1085.000000) "></path>
                    <path d="M1138.40401,1462.87497 C1138.40401,1462.87497 1598.93913,1301.87869 1598.93913,1085 C1598.93913,868.121314 1138.40401,707.125028 1138.40401,707.125028 C1138.40401,707.125028 677.868888,868.121314 677.868888,1085 C677.868888,1301.87869 1138.40401,1462.87497 1138.40401,1462.87497 Z" id="duplicate_48_original_original_Oval-5_73078322_54695110" transform="translate(1138.404010, 1085.000000) rotate(169.200000) translate(-1138.404010, -1085.000000) "></path>
                    <path d="M1138.86889,1455.37349 C1138.86889,1455.37349 1590.26158,1297.57326 1590.26158,1085 C1590.26158,872.426738 1138.86889,714.626511 1138.86889,714.626511 C1138.86889,714.626511 687.476198,872.426738 687.476198,1085 C687.476198,1297.57326 1138.86889,1455.37349 1138.86889,1455.37349 Z" id="duplicate_47_original_original_Oval-5_73078322_54695110" transform="translate(1138.868888, 1085.000000) rotate(165.600000) translate(-1138.868888, -1085.000000) "></path>
                    <path d="M1138.9762,1447.58618 C1138.9762,1447.58618 1580.8781,1293.10379 1580.8781,1085 C1580.8781,876.89621 1138.9762,722.413822 1138.9762,722.413822 C1138.9762,722.413822 697.074294,876.89621 697.074294,1085 C697.074294,1293.10379 1138.9762,1447.58618 1138.9762,1447.58618 Z" id="duplicate_46_original_original_Oval-5_73078322_54695110" transform="translate(1138.976198, 1085.000000) rotate(162.000000) translate(-1138.976198, -1085.000000) "></path>
                    <path d="M1139.57429,1439.9798 C1139.57429,1439.9798 1572.20593,1288.73816 1572.20593,1085 C1572.20593,881.261837 1139.57429,730.020199 1139.57429,730.020199 C1139.57429,730.020199 706.942662,881.261837 706.942662,1085 C706.942662,1288.73816 1139.57429,1439.9798 1139.57429,1439.9798 Z" id="duplicate_45_original_original_Oval-5_73078322_54695110" transform="translate(1139.574294, 1085.000000) rotate(158.400000) translate(-1139.574294, -1085.000000) "></path>
                    <path d="M1139.94266,1432.29546 C1139.94266,1432.29546 1563.209,1284.32779 1563.209,1085 C1563.209,885.672213 1139.94266,737.704544 1139.94266,737.704544 C1139.94266,737.704544 716.676325,885.672213 716.676325,1085 C716.676325,1284.32779 1139.94266,1432.29546 1139.94266,1432.29546 Z" id="duplicate_44_original_original_Oval-5_73078322_54695110" transform="translate(1139.942662, 1085.000000) rotate(154.800000) translate(-1139.942662, -1085.000000) "></path>
                    <path d="M1140.17632,1424.68742 C1140.17632,1424.68742 1554.17037,1279.96121 1554.17037,1085 C1554.17037,890.038791 1140.17632,745.31258 1140.17632,745.31258 C1140.17632,745.31258 726.182281,890.038791 726.182281,1085 C726.182281,1279.96121 1140.17632,1424.68742 1140.17632,1424.68742 Z" id="duplicate_43_original_original_Oval-5_73078322_54695110" transform="translate(1140.176325, 1085.000000) rotate(151.200000) translate(-1140.176325, -1085.000000) "></path>
                    <path d="M1140.68228,1416.90514 C1140.68228,1416.90514 1545.19167,1275.49462 1545.19167,1085 C1545.19167,894.505378 1140.68228,753.094862 1140.68228,753.094862 C1140.68228,753.094862 736.172895,894.505378 736.172895,1085 C736.172895,1275.49462 1140.68228,1416.90514 1140.68228,1416.90514 Z" id="duplicate_42_original_original_Oval-5_73078322_54695110" transform="translate(1140.682281, 1085.000000) rotate(147.600000) translate(-1140.682281, -1085.000000) "></path>
                    <path d="M1141.17289,1409.39297 C1141.17289,1409.39297 1536.52682,1271.18306 1536.52682,1085 C1536.52682,898.816936 1141.17289,760.607033 1141.17289,760.607033 C1141.17289,760.607033 745.818967,898.816936 745.818967,1085 C745.818967,1271.18306 1141.17289,1409.39297 1141.17289,1409.39297 Z" id="duplicate_41_original_original_Oval-5_73078322_54695110" transform="translate(1141.172895, 1085.000000) rotate(144.000000) translate(-1141.172895, -1085.000000) "></path>
                    <path d="M1141.31897,1401.61694 C1141.31897,1401.61694 1527.19586,1266.72007 1527.19586,1085 C1527.19586,903.279933 1141.31897,768.383062 1141.31897,768.383062 C1141.31897,768.383062 755.442074,903.279933 755.442074,1085 C755.442074,1266.72007 1141.31897,1401.61694 1141.31897,1401.61694 Z" id="duplicate_40_original_original_Oval-5_73078322_54695110" transform="translate(1141.318967, 1085.000000) rotate(140.400000) translate(-1141.318967, -1085.000000) "></path>
                    <path d="M1141.44207,1393.59842 C1141.44207,1393.59842 1517.5464,1262.1179 1517.5464,1085 C1517.5464,907.882104 1141.44207,776.401579 1141.44207,776.401579 C1141.44207,776.401579 765.337748,907.882104 765.337748,1085 C765.337748,1262.1179 1141.44207,1393.59842 1141.44207,1393.59842 Z" id="duplicate_39_original_original_Oval-5_73078322_54695110" transform="translate(1141.442074, 1085.000000) rotate(136.800000) translate(-1141.442074, -1085.000000) "></path>
                    <path d="M1141.83775,1385.81614 C1141.83775,1385.81614 1508.45741,1257.65131 1508.45741,1085 C1508.45741,912.348692 1141.83775,784.183864 1141.83775,784.183864 C1141.83775,784.183864 775.218082,912.348692 775.218082,1085 C775.218082,1257.65131 1141.83775,1385.81614 1141.83775,1385.81614 Z" id="duplicate_38_original_original_Oval-5_73078322_54695110" transform="translate(1141.837748, 1085.000000) rotate(133.200000) translate(-1141.837748, -1085.000000) "></path>
                    <path d="M1142.21808,1378.30396 C1142.21808,1378.30396 1499.68228,1253.33975 1499.68228,1085 C1499.68228,916.660252 1142.21808,791.696039 1142.21808,791.696039 C1142.21808,791.696039 784.75388,916.660252 784.75388,1085 C784.75388,1253.33975 1142.21808,1378.30396 1142.21808,1378.30396 Z" id="duplicate_37_original_original_Oval-5_73078322_54695110" transform="translate(1142.218082, 1085.000000) rotate(129.600000) translate(-1142.218082, -1085.000000) "></path>
                    <path d="M1142.75388,1370.92793 C1142.75388,1370.92793 1491.22855,1249.10633 1491.22855,1085 C1491.22855,920.893672 1142.75388,799.072068 1142.75388,799.072068 C1142.75388,799.072068 794.279213,920.893672 794.279213,1085 C794.279213,1249.10633 1142.75388,1370.92793 1142.75388,1370.92793 Z" id="duplicate_36_original_original_Oval-5_73078322_54695110" transform="translate(1142.753880, 1085.000000) rotate(126.000000) translate(-1142.753880, -1085.000000) "></path>
                    <path d="M1143.27921,1363.41909 C1143.27921,1363.41909 1482.60248,1244.79668 1482.60248,1085 C1482.60248,925.203318 1143.27921,806.580909 1143.27921,806.580909 C1143.27921,806.580909 803.955946,925.203318 803.955946,1085 C803.955946,1244.79668 1143.27921,1363.41909 1143.27921,1363.41909 Z" id="duplicate_35_original_original_Oval-5_73078322_54695110" transform="translate(1143.279213, 1085.000000) rotate(122.400000) translate(-1143.279213, -1085.000000) "></path>
                    <path d="M1143.45595,1355.64089 C1143.45595,1355.64089 1473.29953,1240.33244 1473.29953,1085 C1473.29953,929.667564 1143.45595,814.359113 1143.45595,814.359113 C1143.45595,814.359113 813.612365,929.667564 813.612365,1085 C813.612365,1240.33244 1143.45595,1355.64089 1143.45595,1355.64089 Z" id="duplicate_34_original_original_Oval-5_73078322_54695110" transform="translate(1143.455946, 1085.000000) rotate(118.800000) translate(-1143.455946, -1085.000000) "></path>
                    <path d="M1143.61237,1347.62448 C1143.61237,1347.62448 1463.68595,1235.73148 1463.68595,1085 C1463.68595,934.268523 1143.61237,822.375517 1143.61237,822.375517 C1143.61237,822.375517 823.538776,934.268523 823.538776,1085 C823.538776,1235.73148 1143.61237,1347.62448 1143.61237,1347.62448 Z" id="duplicate_33_original_original_Oval-5_73078322_54695110" transform="translate(1143.612365, 1085.000000) rotate(115.200000) translate(-1143.612365, -1085.000000) "></path>
                    <path d="M1144.03878,1339.83905 C1144.03878,1339.83905 1454.62387,1231.26308 1454.62387,1085 C1454.62387,938.736916 1144.03878,830.160948 1144.03878,830.160948 C1144.03878,830.160948 833.453681,938.736916 833.453681,1085 C833.453681,1231.26308 1144.03878,1339.83905 1144.03878,1339.83905 Z" id="duplicate_32_original_original_Oval-5_73078322_54695110" transform="translate(1144.038776, 1085.000000) rotate(111.600000) translate(-1144.038776, -1085.000000) "></path>
                    <path d="M1144.45368,1332.32996 C1144.45368,1332.32996 1445.88707,1226.95329 1445.88707,1085 C1445.88707,943.046705 1144.45368,837.670037 1144.45368,837.670037 C1144.45368,837.670037 843.020289,943.046705 843.020289,1085 C843.020289,1226.95329 1144.45368,1332.32996 1144.45368,1332.32996 Z" id="duplicate_31_original_original_Oval-5_73078322_54695110" transform="translate(1144.453681, 1085.000000) rotate(108.000000) translate(-1144.453681, -1085.000000) "></path>
                    <path d="M1145.02029,1324.95019 C1145.02029,1324.95019 1437.45958,1222.71773 1437.45958,1085 C1437.45958,947.282274 1145.02029,845.049809 1145.02029,845.049809 C1145.02029,845.049809 852.580994,947.282274 852.580994,1085 C852.580994,1222.71773 1145.02029,1324.95019 1145.02029,1324.95019 Z" id="duplicate_30_original_original_Oval-5_73078322_54695110" transform="translate(1145.020289, 1085.000000) rotate(104.400000) translate(-1145.020289, -1085.000000) "></path>
                    <path d="M1145.58099,1317.44482 C1145.58099,1317.44482 1428.87312,1218.41007 1428.87312,1085 C1428.87312,951.589927 1145.58099,852.555177 1145.58099,852.555177 C1145.58099,852.555177 862.288866,951.589927 862.288866,1085 C862.288866,1218.41007 1145.58099,1317.44482 1145.58099,1317.44482 Z" id="duplicate_29_original_original_Oval-5_73078322_54695110" transform="translate(1145.580994, 1085.000000) rotate(100.800000) translate(-1145.580994, -1085.000000) "></path>
                    <path d="M1145.78887,1309.66473 C1145.78887,1309.66473 1419.59901,1213.94474 1419.59901,1085 C1419.59901,956.055255 1145.78887,860.335268 1145.78887,860.335268 C1145.78887,860.335268 871.978724,956.055255 871.978724,1085 C871.978724,1213.94474 1145.78887,1309.66473 1145.78887,1309.66473 Z" id="duplicate_28_original_original_Oval-5_73078322_54695110" transform="translate(1145.788866, 1085.000000) rotate(97.200000) translate(-1145.788866, -1085.000000) "></path>
                    <path d="M1145.97872,1301.65012 C1145.97872,1301.65012 1410.02106,1209.34481 1410.02106,1085 C1410.02106,960.655186 1145.97872,868.349881 1145.97872,868.349881 C1145.97872,868.349881 881.936391,960.655186 881.936391,1085 C881.936391,1209.34481 1145.97872,1301.65012 1145.97872,1301.65012 Z" id="duplicate_27_original_original_Oval-5_73078322_54695110" transform="translate(1145.978724, 1085.000000) rotate(93.600000) translate(-1145.978724, -1085.000000) "></path>
                    <path d="M1146.43639,1293.8614 C1146.43639,1293.8614 1400.98622,1204.87453 1400.98622,1085 C1400.98622,965.125469 1146.43639,876.138605 1146.43639,876.138605 C1146.43639,876.138605 891.886566,965.125469 891.886566,1085 C891.886566,1204.87453 1146.43639,1293.8614 1146.43639,1293.8614 Z" id="duplicate_26_original_original_Oval-5_73078322_54695110" transform="translate(1146.436391, 1085.000000) rotate(90.000000) translate(-1146.436391, -1085.000000) "></path>
                    <path d="M1146.88657,1286.35547 C1146.88657,1286.35547 1392.28855,1200.56656 1392.28855,1085 C1392.28855,969.433442 1146.88657,883.644529 1146.88657,883.644529 C1146.88657,883.644529 901.484585,969.433442 901.484585,1085 C901.484585,1200.56656 1146.88657,1286.35547 1146.88657,1286.35547 Z" id="duplicate_25_original_original_Oval-5_73078322_54695110" transform="translate(1146.886566, 1085.000000) rotate(86.400000) translate(-1146.886566, -1085.000000) "></path>
                    <path d="M1146.98459,1278.57729 C1146.98459,1278.57729 1382.90691,1196.10232 1382.90691,1085 C1382.90691,973.897675 1146.98459,891.422711 1146.98459,891.422711 C1146.98459,891.422711 911.062265,973.897675 911.062265,1085 C911.062265,1196.10232 1146.98459,1278.57729 1146.98459,1278.57729 Z" id="duplicate_24_original_original_Oval-5_73078322_54695110" transform="translate(1146.984585, 1085.000000) rotate(82.800000) translate(-1146.984585, -1085.000000) "></path>
                    <path d="M1147.56226,1270.95422 C1147.56226,1270.95422 1374.19396,1191.72712 1374.19396,1085 C1374.19396,978.272884 1147.56226,899.045785 1147.56226,899.045785 C1147.56226,899.045785 920.930565,978.272884 920.930565,1085 C920.930565,1191.72712 1147.56226,1270.95422 1147.56226,1270.95422 Z" id="duplicate_23_original_original_Oval-5_73078322_54695110" transform="translate(1147.562265, 1085.000000) rotate(79.200000) translate(-1147.562265, -1085.000000) "></path>
                    <path d="M1147.93056,1263.28927 C1147.93056,1263.28927 1365.22061,1187.32787 1365.22061,1085 C1365.22061,982.672127 1147.93056,906.710732 1147.93056,906.710732 C1147.93056,906.710732 930.640519,982.672127 930.640519,1085 C930.640519,1187.32787 1147.93056,1263.28927 1147.93056,1263.28927 Z" id="duplicate_22_original_original_Oval-5_73078322_54695110" transform="translate(1147.930565, 1085.000000) rotate(75.600000) translate(-1147.930565, -1085.000000) "></path>
                    <path d="M1148.14052,1255.66474 C1148.14052,1255.66474 1356.13818,1182.95183 1356.13818,1085 C1356.13818,987.048169 1148.14052,914.335256 1148.14052,914.335256 C1148.14052,914.335256 940.142863,987.048169 940.142863,1085 C940.142863,1182.95183 1148.14052,1255.66474 1148.14052,1255.66474 Z" id="duplicate_21_original_original_Oval-5_73078322_54695110" transform="translate(1148.140519, 1085.000000) rotate(72.000000) translate(-1148.140519, -1085.000000) "></path>
                    <path d="M1148.64286,1247.89246 C1148.64286,1247.89246 1347.16805,1178.49098 1347.16805,1085 C1347.16805,991.509017 1148.64286,922.10754 1148.64286,922.10754 C1148.64286,922.10754 950.117677,991.509017 950.117677,1085 C950.117677,1178.49098 1148.64286,1247.89246 1148.64286,1247.89246 Z" id="duplicate_20_original_original_Oval-5_73078322_54695110" transform="translate(1148.642863, 1085.000000) rotate(68.400000) translate(-1148.642863, -1085.000000) "></path>
                    <path d="M1149.11768,1240.37071 C1149.11768,1240.37071 1338.47573,1174.17393 1338.47573,1085 C1338.47573,995.82607 1149.11768,929.629286 1149.11768,929.629286 C1149.11768,929.629286 959.759618,995.82607 959.759618,1085 C959.759618,1174.17393 1149.11768,1240.37071 1149.11768,1240.37071 Z" id="duplicate_19_original_original_Oval-5_73078322_54695110" transform="translate(1149.117677, 1085.000000) rotate(64.800000) translate(-1149.117677, -1085.000000) "></path>
                    <path d="M1149.25962,1232.61057 C1149.25962,1232.61057 1329.15999,1169.72005 1329.15999,1085 C1329.15999,1000.27995 1149.25962,937.389435 1149.25962,937.389435 C1149.25962,937.389435 969.359242,1000.27995 969.359242,1085 C969.359242,1169.72005 1149.25962,1232.61057 1149.25962,1232.61057 Z" id="duplicate_18_original_original_Oval-5_73078322_54695110" transform="translate(1149.259618, 1085.000000) rotate(61.200000) translate(-1149.259618, -1085.000000) "></path>
                    <path d="M1149.35924,1224.57725 C1149.35924,1224.57725 1319.46902,1165.10938 1319.46902,1085 C1319.46902,1004.89062 1149.35924,945.422749 1149.35924,945.422749 C1149.35924,945.422749 979.249467,1004.89062 979.249467,1085 C979.249467,1165.10938 1149.35924,1224.57725 1149.35924,1224.57725 Z" id="duplicate_17_original_original_Oval-5_73078322_54695110" transform="translate(1149.359242, 1085.000000) rotate(57.600000) translate(-1149.359242, -1085.000000) "></path>
                    <path d="M1149.74947,1216.80166 C1149.74947,1216.80166 1310.38274,1160.64663 1310.38274,1085 C1310.38274,1009.35337 1149.74947,953.198344 1149.74947,953.198344 C1149.74947,953.198344 989.116199,1009.35337 989.116199,1085 C989.116199,1160.64663 1149.74947,1216.80166 1149.74947,1216.80166 Z" id="duplicate_16_original_original_Oval-5_73078322_54695110" transform="translate(1149.749467, 1085.000000) rotate(54.000000) translate(-1149.749467, -1085.000000) "></path>
                    <path d="M1150.1162,1209.2831 C1150.1162,1209.2831 1301.58622,1156.33141 1301.58622,1085 C1301.58622,1013.66859 1150.1162,960.716903 1150.1162,960.716903 C1150.1162,960.716903 998.646175,1013.66859 998.646175,1085 C998.646175,1156.33141 1150.1162,1209.2831 1150.1162,1209.2831 Z" id="duplicate_15_original_original_Oval-5_73078322_54695110" transform="translate(1150.116199, 1085.000000) rotate(50.400000) translate(-1150.116199, -1085.000000) "></path>
                    <path d="M1150.64617,1201.90762 C1150.64617,1201.90762 1293.12734,1152.09831 1293.12734,1085 C1293.12734,1017.90169 1150.64617,968.09238 1150.64617,968.09238 C1150.64617,968.09238 1008.16501,1017.90169 1008.16501,1085 C1008.16501,1152.09831 1150.64617,1201.90762 1150.64617,1201.90762 Z" id="duplicate_14_original_original_Oval-5_73078322_54695110" transform="translate(1150.646175, 1085.000000) rotate(46.800000) translate(-1150.646175, -1085.000000) "></path>
                    <path d="M1151.16501,1194.39692 C1151.16501,1194.39692 1284.49251,1147.78759 1284.49251,1085 C1284.49251,1022.21241 1151.16501,975.603082 1151.16501,975.603082 C1151.16501,975.603082 1017.83752,1022.21241 1017.83752,1085 C1017.83752,1147.78759 1151.16501,1194.39692 1151.16501,1194.39692 Z" id="duplicate_13_original_original_Oval-5_73078322_54695110" transform="translate(1151.165013, 1085.000000) rotate(43.200000) translate(-1151.165013, -1085.000000) "></path>
                    <path d="M1151.33752,1186.63133 C1151.33752,1186.63133 1275.2007,1143.33059 1275.2007,1085 C1275.2007,1026.66941 1151.33752,983.368674 1151.33752,983.368674 C1151.33752,983.368674 1027.47434,1026.66941 1027.47434,1085 C1027.47434,1143.33059 1151.33752,1186.63133 1151.33752,1186.63133 Z" id="duplicate_12_original_original_Oval-5_73078322_54695110" transform="translate(1151.337519, 1085.000000) rotate(39.600000) translate(-1151.337519, -1085.000000) "></path>
                    <path d="M1151.47434,1178.60328 C1151.47434,1178.60328 1265.55334,1138.72295 1265.55334,1085 C1265.55334,1031.27705 1151.47434,991.396718 1151.47434,991.396718 C1151.47434,991.396718 1037.39534,1031.27705 1037.39534,1085 C1037.39534,1138.72295 1151.47434,1178.60328 1151.47434,1178.60328 Z" id="duplicate_11_original_original_Oval-5_73078322_54695110" transform="translate(1151.474341, 1085.000000) rotate(36.000000) translate(-1151.474341, -1085.000000) "></path>
                    <path d="M1151.89534,1170.81553 C1151.89534,1170.81553 1256.48302,1134.25322 1256.48302,1085 C1256.48302,1035.74678 1151.89534,999.184469 1151.89534,999.184469 C1151.89534,999.184469 1047.30766,1035.74678 1047.30766,1085 C1047.30766,1134.25322 1151.89534,1170.81553 1151.89534,1170.81553 Z" id="duplicate_10_original_original_Oval-5_73078322_54695110" transform="translate(1151.895341, 1085.000000) rotate(32.400000) translate(-1151.895341, -1085.000000) "></path>
                    <path d="M1152.30766,1163.3075 C1152.30766,1163.3075 1247.74493,1129.94404 1247.74493,1085 C1247.74493,1040.05596 1152.30766,1006.6925 1152.30766,1006.6925 C1152.30766,1006.6925 1056.87039,1040.05596 1056.87039,1085 C1056.87039,1129.94404 1152.30766,1163.3075 1152.30766,1163.3075 Z" id="duplicate_9_original_original_Oval-5_73078322_54695110" transform="translate(1152.307662, 1085.000000) rotate(28.800000) translate(-1152.307662, -1085.000000) "></path>
                    <path d="M1152.37039,1155.54634 C1152.37039,1155.54634 1238.34874,1125.48958 1238.34874,1085 C1238.34874,1044.51042 1152.37039,1014.45366 1152.37039,1014.45366 C1152.37039,1014.45366 1066.39204,1044.51042 1066.39204,1085 C1066.39204,1125.48958 1152.37039,1155.54634 1152.37039,1155.54634 Z" id="duplicate_8_original_original_Oval-5_73078322_54695110" transform="translate(1152.370392, 1085.000000) rotate(25.200000) translate(-1152.370392, -1085.000000) "></path>
                    <path d="M1152.89204,1147.8792 C1152.89204,1147.8792 1229.52607,1121.08908 1229.52607,1085 C1229.52607,1048.91092 1152.89204,1022.1208 1152.89204,1022.1208 C1152.89204,1022.1208 1076.25802,1048.91092 1076.25802,1085 C1076.25802,1121.08908 1152.89204,1147.8792 1152.89204,1147.8792 Z" id="duplicate_7_original_original_Oval-5_73078322_54695110" transform="translate(1152.892041, 1085.000000) rotate(21.600000) translate(-1152.892041, -1085.000000) "></path>
                    <path d="M1153.25802,1140.26266 C1153.25802,1140.26266 1220.60938,1116.71761 1220.60938,1085 C1220.60938,1053.28239 1153.25802,1029.73734 1153.25802,1029.73734 C1153.25802,1029.73734 1085.90665,1053.28239 1085.90665,1085 C1085.90665,1116.71761 1153.25802,1140.26266 1153.25802,1140.26266 Z" id="duplicate_6_original_original_Oval-5_73078322_54695110" transform="translate(1153.258015, 1085.000000) rotate(18.000000) translate(-1153.258015, -1085.000000) "></path>
                    <path d="M1153.90665,1132.95745 C1153.90665,1132.95745 1212.3548,1112.52484 1212.3548,1085 C1212.3548,1057.47516 1153.90665,1037.04255 1153.90665,1037.04255 C1153.90665,1037.04255 1095.4585,1057.47516 1095.4585,1085 C1095.4585,1112.52484 1153.90665,1132.95745 1153.90665,1132.95745 Z" id="duplicate_5_original_original_Oval-5_73078322_54695110" transform="translate(1153.906650, 1085.000000) rotate(14.400000) translate(-1153.906650, -1085.000000) "></path>
                    <path d="M1153.9585,1125.03549 C1153.9585,1125.03549 1202.75175,1107.97809 1202.75175,1085 C1202.75175,1062.02191 1153.9585,1044.96451 1153.9585,1044.96451 C1153.9585,1044.96451 1105.16525,1062.02191 1105.16525,1085 C1105.16525,1107.97809 1153.9585,1125.03549 1153.9585,1125.03549 Z" id="duplicate_4_original_original_Oval-5_73078322_54695110" transform="translate(1153.958503, 1085.000000) rotate(10.800000) translate(-1153.958503, -1085.000000) "></path>
                    <path d="M1154.16525,1117.13559 C1154.16525,1117.13559 1193.33051,1103.444 1193.33051,1085 C1193.33051,1066.556 1154.16525,1052.86441 1154.16525,1052.86441 C1154.16525,1052.86441 1115,1066.556 1115,1085 C1115,1103.444 1154.16525,1117.13559 1154.16525,1117.13559 Z" id="duplicate_3_original_original_Oval-5_73078322_54695110" transform="translate(1154.165254, 1085.000000) rotate(7.200000) translate(-1154.165254, -1085.000000) "></path>
                    <path d="M1154.5,1109.20513 C1154.5,1109.20513 1184,1098.89236 1184,1085 C1184,1071.10764 1154.5,1060.79487 1154.5,1060.79487 C1154.5,1060.79487 1125,1071.10764 1125,1085 C1125,1098.89236 1154.5,1109.20513 1154.5,1109.20513 Z" id="duplicate_2_original_original_Oval-5_73078322_54695110" transform="translate(1154.500000, 1085.000000) rotate(3.600000) translate(-1154.500000, -1085.000000) "></path>
                    <path d="M1154.5,1101 C1154.5,1101 1174,1094.18309 1174,1085 C1174,1075.81691 1154.5,1069 1154.5,1069 C1154.5,1069 1135,1075.81691 1135,1085 C1135,1094.18309 1154.5,1101 1154.5,1101 Z" id="duplicate_1_original_original_Oval-5_73078322_54695110"></path>
                </g>
            </g>
        </g>
    </g>
</svg>