<?xml version="1.0" encoding="UTF-8"?>
<svg width="34px" height="34px" viewBox="0 0 34 34" version="1.1" xmlns="http://www.w3.org/2000/svg" xmlns:xlink="http://www.w3.org/1999/xlink">
    <!-- Generator: Sketch 43.2 (39069) - http://www.bohemiancoding.com/sketch -->
    <title>bronze</title>
    <desc>Created with Sketch.</desc>
    <defs></defs>
    <g id="Page-1" stroke="none" stroke-width="1" fill="none" fill-rule="evenodd">
        <g id="bronze" fill-rule="nonzero">
            <g id="Page-1">
                <g id="bronze">
                    <path d="M17,0 C7.61154762,0 0,7.61114287 0,17 C0,26.3888571 7.61154762,34 17,34 C26.3888571,34 34,26.3888571 34,17 C34,7.61114287 26.3888571,0 17,0" id="Path" fill="#35312E"></path>
                    <g id="Group-3" transform="translate(0.755556, 1.133333)" fill="#F77E24">
                        <path d="M12.9757978,15.8666667 C12.9757978,17.6471333 14.4241978,19.0959111 16.2050422,19.0959111 C17.9855089,19.0959111 19.4342867,17.6471333 19.4342867,15.8666667 C19.4342867,14.0862 17.9855089,12.6374222 16.2050422,12.6374222 C14.4241978,12.6374222 12.9757978,14.0862 12.9757978,15.8666667" id="Fill-8"></path>
                        <path d="M16.2049667,28.4220733 C9.73552222,28.4220733 4.41074444,23.5287178 3.72583333,17.24174 C3.7247,17.2334289 3.72356667,17.2251178 3.72243333,17.2164289 C3.70127778,17.0192289 3.68541111,16.8205178 3.6737,16.6206733 C3.67218889,16.5934733 3.66916667,16.5670289 3.66765556,16.5402067 C3.65594444,16.3173178 3.64952222,16.09254 3.64952222,15.8666289 C3.64952222,15.6407178 3.65594444,15.4163178 3.66765556,15.1930511 C3.66916667,15.1662289 3.67218889,15.1397844 3.6737,15.1129622 C3.68541111,14.91274 3.70127778,14.7140289 3.72243333,14.5168289 C3.72356667,14.50814 3.7247,14.4998289 3.72583333,14.4915178 C4.41074444,8.20454 9.73552222,3.31118444 16.2049667,3.31118444 C22.2241,3.31118444 27.2508111,7.54758444 28.4740556,13.2006511 L28.4740556,13.2006511 C28.5647222,13.6199844 28.6346111,14.0464956 28.6822111,14.4801844 C28.6837222,14.4930289 28.6859889,14.5058733 28.6875,14.5187178 C28.7079,14.7102511 28.7230111,14.90254 28.7343444,15.09634 C28.7366111,15.1292067 28.7403889,15.1620733 28.7422778,15.19494 C28.7532333,15.4098956 28.7592778,15.6259844 28.7596556,15.8435844 C28.7596556,15.85114 28.7600333,15.8590733 28.7600333,15.8666289 C28.7600333,15.8745622 28.7596556,15.8821178 28.7596556,15.8900511 C28.7592778,16.1072733 28.7532333,16.3233622 28.7422778,16.53794 C28.7403889,16.5711844 28.7366111,16.6040511 28.7343444,16.6369178 C28.7230111,16.8307178 28.7079,17.0233844 28.6875,17.21454 C28.6859889,17.2273844 28.6837222,17.2402289 28.6822111,17.2530733 C28.6346111,17.6867622 28.5647222,18.1132733 28.4740556,18.5326067 L28.4740556,18.5329844 C27.2508111,24.1856733 22.2241,28.4220733 16.2049667,28.4220733 M16.2049667,-3.77777778e-05 C7.44203333,-3.77777778e-05 0.3383,7.10369556 0.3383,15.8666289 C0.3383,24.6295622 7.44203333,31.7332956 16.2049667,31.7332956 C24.9675222,31.7332956 32.0716333,24.6295622 32.0716333,15.8666289 C32.0716333,7.10369556 24.9675222,-3.77777778e-05 16.2049667,-3.77777778e-05" id="Fill-12"></path>
                        <path d="M7.51792889,14.25042 C8.28670667,10.10242 11.9417067,7.02239778 16.2049289,7.02239778 C19.4217067,7.02239778 22.3883956,8.77226444 23.9478622,11.5889756 L22.62564,12.3211089 C21.3325067,9.98455333 18.8724178,8.53350889 16.2049289,8.53350889 C12.6179289,8.53350889 9.54848444,11.1620867 8.97426222,14.6773089 L11.4876178,15.4139756 C11.7154178,13.0082867 13.7399289,11.1261978 16.2049289,11.1261978 C18.6703067,11.1261978 20.69444,13.0082867 20.92224,15.4139756 L27.0203289,13.6267089 C25.9821956,8.60717556 21.52744,4.82222 16.2049289,4.82222 C10.88204,4.82222 6.42728444,8.60717556 5.38915111,13.6267089 L7.51792889,14.25042 Z" id="Fill-10"></path>
                        <path d="M16.2049667,24.7108978 C12.8027,24.7108978 9.75856667,22.8121867 8.25992222,19.7555867 L9.6169,19.0906978 C10.8594111,21.6252089 13.3837222,23.1997867 16.2049667,23.1997867 C19.7878111,23.1997867 22.8621667,20.5700756 23.4360111,17.0559867 L20.9222778,16.31932 C20.6944778,18.7250089 18.6699667,20.6070978 16.2049667,20.6070978 C13.7399667,20.6070978 11.7154556,18.7250089 11.4876556,16.31932 L5.38918889,18.1069644 C6.42732222,23.1264978 10.8820778,26.9110756 16.2049667,26.9110756 C21.5274778,26.9110756 25.9822333,23.1264978 27.0203667,18.1069644 L24.8919667,17.4828756 C24.1231889,21.6293644 20.4632778,24.7108978 16.2049667,24.7108978" id="Fill-15"></path>
                    </g>
                </g>
            </g>
        </g>
    </g>
</svg>