<?xml version="1.0" encoding="UTF-8"?>
<svg width="54px" height="56px" viewBox="0 0 54 56" version="1.1" xmlns="http://www.w3.org/2000/svg" xmlns:xlink="http://www.w3.org/1999/xlink">
    <!-- Generator: Sketch 43.2 (39069) - http://www.bohemiancoding.com/sketch -->
    <title>Group 11</title>
    <desc>Created with Sketch.</desc>
    <defs>
        <polygon id="path-1" points="7.31836466e-20 0.821305227 7.31836466e-20 40.1019484 53.47701 40.1019484 53.47701 0.821305227 0 0.821305227"></polygon>
    </defs>
    <g id="Page-1" stroke="none" stroke-width="1" fill="none" fill-rule="evenodd">
        <g id="decentralandv2" transform="translate(-693.000000, -1413.000000)">
            <g id="Group-11" transform="translate(693.000000, 1412.000000)">
                <path d="M26.738505,43.2324597 C15.692805,43.2324597 6.237405,38.8729312 2.160405,32.6662142 C0.857655,34.6725494 0.131355,36.8693165 0.131355,39.1762619 C0.131355,48.567271 12.043755,56.1791028 26.739855,56.1791028 C41.435955,56.1791028 53.349705,48.567271 53.349705,39.1762619 C53.349705,36.8679562 52.622055,34.669829 51.317955,32.6634937 C47.242305,38.871571 37.785555,43.2324597 26.738505,43.2324597" id="Fill-1" fill="#9B9B9B"></path>
                <g id="Group-5" transform="translate(0.000000, 0.539602)">
                    <mask id="mask-2" fill="white">
                        <use xlink:href="#path-1"></use>
                    </mask>
                    <g id="Clip-4"></g>
                    <path d="M51.41151,18.4471302 C49.58361,11.1427098 39.24396,5.54129386 26.72406,5.54129386 C13.07286,5.54129386 1.98261,12.1955257 1.72746,20.4616268 C1.72476,20.36097 1.71531,20.2616734 1.71531,20.1610166 C1.71531,11.4365189 12.91221,4.36333705 26.72406,4.36333705 C39.60576,4.36333705 50.20191,10.5170052 51.57351,18.4240064 L51.41151,18.4471302 Z M38.62296,20.6466177 C38.29086,21.8028109 37.49436,22.8161802 36.25236,23.6812848 C35.01306,24.5463893 33.42411,25.1952177 31.47876,25.615528 L23.74191,27.2886075 L17.24976,14.3950132 L25.16346,12.6838473 C27.08721,12.268978 28.91511,12.179203 30.65931,12.3981995 C32.40351,12.6171961 33.94386,13.1259211 35.26146,13.9257348 C36.55206,14.717387 37.52676,15.7457189 38.16531,17.0134507 C38.79711,18.2689405 38.95371,19.4890643 38.62296,20.6466177 L38.62296,20.6466177 Z M53.41356,22.7005609 C53.48916,20.8016836 53.18541,18.1927677 53.18541,18.1927677 C53.19486,16.7631689 52.93161,15.3308495 52.43211,13.9842245 C51.92046,12.6389598 51.17256,11.3848302 50.28156,10.2476802 C48.48876,7.96657909 46.12221,6.17243932 43.57071,4.78908818 C38.42991,2.03054727 32.54661,0.84987 26.73891,0.821305227 C20.92986,0.84987 15.04656,2.03054727 9.90576,4.79044841 C7.35426,6.17379955 4.98906,7.96929955 3.19761,10.2490405 C2.30661,11.3861905 1.55871,12.6389598 1.04706,13.9842245 C0.54756,15.3322098 0.28431,16.7631689 0.29376,18.1927677 C0.32076,19.6223666 0.62046,21.0383632 1.14966,22.3605041 C1.68966,23.6799245 2.45916,24.8986882 3.36636,25.9977518 C5.18751,28.2067609 7.57026,29.8961632 10.10151,31.2183041 C12.64356,32.5458859 15.39081,33.455878 18.19071,34.0720609 C20.99196,34.6991257 23.86881,34.9670905 26.73891,34.976612 C29.60901,34.9698109 32.48451,34.6991257 35.28711,34.0734211 C36.01206,33.9142745 36.73161,33.7333643 37.44576,33.5334109 L37.44576,36.2742689 C33.96951,37.2672348 30.34071,37.7269916 26.73891,37.7460348 C20.84886,37.71747 14.88186,36.5259109 9.63306,33.7102405 C7.02756,32.2996848 4.60026,30.463378 2.74131,28.1033836 C1.81791,26.9240666 1.03896,25.6196086 0.50166,24.2104132 C0.28971,23.640478 0.12906,23.0514995 -0.00054,22.4570802 L-0.00054,23.515337 L0.02916,23.515337 C0.66231,32.7444791 12.37626,40.1019484 26.73891,40.1019484 C41.10021,40.1019484 52.81416,32.7444791 53.44731,23.515337 L53.47701,23.515337 L53.47701,22.443478 C53.45946,22.5291723 53.43381,22.6148666 53.41356,22.7005609 L53.41356,22.7005609 Z" id="Fill-3" fill="#35312E" mask="url(#mask-2)"></path>
                </g>
                <path d="M31.662495,16.8341727 C30.965895,16.3580932 30.162645,16.057483 29.236545,15.9064977 C28.329345,15.7500716 27.409995,15.7813568 26.447445,15.9894716 L23.422095,16.6423807 L27.165645,24.0760227 L30.425895,23.371425 C31.349295,23.1714716 32.089095,22.8273341 32.643945,22.371658 C33.198795,21.9146216 33.545745,21.3501273 33.653745,20.6999386 C33.787395,20.0592716 33.659145,19.3696364 33.289245,18.6378341 C32.923395,17.907392 32.379345,17.3061716 31.662495,16.8341727" id="Fill-6" fill="#35312E"></path>
            </g>
        </g>
    </g>
</svg>