<?xml version="1.0" encoding="UTF-8"?>
<svg width="15px" height="15px" viewBox="0 0 15 15" version="1.1" xmlns="http://www.w3.org/2000/svg" xmlns:xlink="http://www.w3.org/1999/xlink">
    <!-- Generator: Sketch 43.2 (39069) - http://www.bohemiancoding.com/sketch -->
    <title>Group</title>
    <desc>Created with Sketch.</desc>
    <defs></defs>
    <g id="Page-1" stroke="none" stroke-width="1" fill="none" fill-rule="evenodd">
        <g id="Group">
            <g id="forum-icon" fill-rule="nonzero" fill="#4E4E4E">
                <path d="M14.9997946,7.49989733 C14.9997946,9.13642524 14.4700278,10.6456448 13.5798962,11.8786875 L14.6250564,14.9997946 L11.3376271,13.9351275 C10.2134125,14.6065762 8.90439556,14.9997946 7.49989733,14.9997946 C3.35827025,14.9997946 0,11.6415245 0,7.49989733 C0,3.35724357 3.35827025,-8.8817842e-16 7.49989733,-8.8817842e-16 C11.642551,-8.8817842e-16 14.9997946,3.35724357 14.9997946,7.49989733 Z M3.73506181,5.57487235 L11.3499473,5.57487235 L11.3499473,4.54819236 L3.73506181,4.54819236 L3.73506181,5.57487235 Z M3.69194124,7.94855649 L11.3068267,7.94855649 L11.3068267,6.9218765 L3.69194124,6.9218765 L3.69194124,7.94855649 Z M3.56360625,10.3232673 L8.09845177,10.3232673 L8.09845177,9.29658732 L3.56360625,9.29658732 L3.56360625,10.3232673 Z" id="Shape"></path>
            </g>
            <rect id="Rectangle" x="0" y="0" width="15" height="15"></rect>
        </g>
    </g>
</svg>