<?xml version="1.0" encoding="UTF-8"?>
<svg width="93px" height="118px" viewBox="0 0 93 118" version="1.1" xmlns="http://www.w3.org/2000/svg" xmlns:xlink="http://www.w3.org/1999/xlink">
    <!-- Generator: Sketch 43.2 (39069) - http://www.bohemiancoding.com/sketch -->
    <title>Page 1</title>
    <desc>Created with Sketch.</desc>
    <defs></defs>
    <g id="Page-1" stroke="none" stroke-width="1" fill="none" fill-rule="evenodd">
        <g fill="#35312E">
            <g id="Group-3" transform="translate(0.000000, 17.905554)">
                <path d="M23.3425159,36.9661166 C23.3669481,36.9660046 23.3913803,36.9660046 23.4156999,36.9658926 C23.3912677,36.9663405 23.3669481,36.9657807 23.3425159,36.9661166 M22.8917023,36.9674603 C22.9021732,36.9674603 22.9127568,36.9675722 22.9233403,36.9675722 C22.9156841,36.9674603 22.908028,36.9677962 22.9003718,36.9676842 C22.8974444,36.9675722 22.8945171,36.9674603 22.8917023,36.9674603 M6.40424346,18.2353243 L11.3233355,12.4466719 L11.3697229,12.4466719 C11.4968379,14.8228445 16.6300776,16.7342184 22.944057,16.7342184 C29.2189674,16.7342184 34.3276623,14.8464707 34.5155764,12.4909012 L39.4843209,18.2353243 L39.4840958,18.2353243 C40.2899081,19.0030091 40.7330655,19.840005 40.7330655,20.7161913 C40.7330655,24.4313333 32.7687301,27.4430629 22.944057,27.4430629 C13.1194965,27.4430629 5.15504855,24.4313333 5.15504855,20.7161913 C5.15504855,19.840005 5.59820593,19.0030091 6.40424346,18.2353243 M45.8139505,28.4456664 C45.8139505,17.4564422 36.1623294,8.48015122 24.3846563,7.90192423 C23.8550292,6.03601125 23.4636636,4.13180361 23.2163016,2.20430566 L22.9894311,0.0839907179 L22.7172992,2.20430566 C22.4688113,4.14031354 22.0746309,6.05280715 21.5414008,7.92667019 C10.2212967,8.67711119 0.588478329,17.1330651 0.0958935835,27.6046395 C0.0326175545,27.7450533 -3.37772397e-05,27.9318237 -3.37772397e-05,28.1701016 C-3.37772397e-05,28.660654 0.0919529056,29.1635233 0.263316102,29.6745667 C0.32085,29.857754 0.390093341,30.0378061 0.472734988,30.2140512 C2.20179189,34.1651196 8.37672167,38.5238807 13.8681127,41.549159 C18.5495255,44.128226 21.45662,49.0283751 21.45662,54.3506612 L21.45662,98.4905212 C21.45662,99.0722193 21.9307398,99.5437363 22.515649,99.5437363 L23.3725776,99.5437363 C23.9573742,99.5437363 24.4314941,99.0722193 24.4314941,98.4905212 L24.4314941,54.3342012 C24.4314941,49.0208729 27.3291309,44.1278901 31.9979335,41.545016 C37.0599033,38.7444669 42.7005897,34.8029161 44.8756188,31.0997552 C45.4819202,30.2972469 45.8139505,29.4126626 45.8139505,28.4456664" id="Fill-1"></path>
            </g>
            <path d="M73.0695483,36.9511682 C73.0910531,36.9510563 73.112558,36.9510563 73.1341754,36.9509443 C73.112558,36.9513922 73.0910531,36.9508323 73.0695483,36.9511682 M72.671765,36.9523999 C72.68111,36.9523999 72.6904551,36.9525119 72.6998001,36.9525119 C72.6930447,36.9523999 72.6861766,36.9526239 72.6794212,36.9525119 C72.6769442,36.9525119 72.6743546,36.9523999 72.671765,36.9523999 M58.1269478,20.4272458 L62.4664224,15.3207311 L62.5072929,15.3207311 C62.6195459,17.4168599 67.1479478,19.1031687 72.7180398,19.1031687 C78.2535665,19.1031687 82.760351,17.4376868 82.9261972,15.3596976 L87.3094696,20.4272458 L87.3092444,20.4272458 C88.0202553,21.1045686 88.4111706,21.8429166 88.4111706,22.6158641 C88.4111706,25.8933048 81.3851669,28.5501929 72.7180398,28.5501929 C64.0510253,28.5501929 57.0250217,25.8933048 57.0250217,22.6158641 C57.0250217,21.8429166 57.4159369,21.1045686 58.1269478,20.4272458 M92.8932977,29.4346652 C92.8932977,19.7401813 84.3788437,11.8214724 73.9888522,11.3113248 C73.521713,9.6653262 73.1765096,7.98539987 72.958196,6.28509451 L72.7581222,4.41459065 L72.517966,6.28509451 C72.2987517,7.99301401 71.9510713,9.68021857 71.4806669,11.3331595 C61.4943134,11.995254 52.9964103,19.4549869 52.5619224,28.6927342 C52.5059648,28.816576 52.4772541,28.9813998 52.4772541,29.1915725 C52.4772541,29.624347 52.5583195,30.0678708 52.7095289,30.5187848 C52.7603074,30.6803614 52.8214442,30.8392507 52.894403,30.9946688 C54.4196706,34.4802668 59.8670386,38.3254091 64.7114829,40.9942783 C68.8413134,43.2694515 71.4059067,47.5922693 71.4059067,52.2873963 L71.4059067,91.2267965 C71.4059067,91.7398554 71.8240689,92.155834 72.3400725,92.155834 L73.0961197,92.155834 C73.6120108,92.155834 74.0302856,91.7398554 74.0302856,91.2266845 L74.0302856,52.2729518 C74.0302856,47.5856629 76.5864345,43.2692275 80.7051185,40.9905832 C85.1706948,38.5200177 90.1468703,35.0429296 92.0656427,31.7760143 C92.600449,31.0681229 92.8932977,30.2877852 92.8932977,29.4346652" id="Fill-4"></path>
            <g id="Group-8" transform="translate(31.300242, 0.101895)">
                <path d="M17.3281406,27.7978596 C17.3258887,27.7978596 17.3237495,27.7977476 17.3216103,27.7977476 C17.3296042,27.7977476 17.3374856,27.7978596 17.3454795,27.7978596 C17.3397374,27.7977476 17.3338827,27.7979716 17.3281406,27.7978596 M18.6390352,30.7231462 C18.5601091,30.5550752 18.4941309,30.3833091 18.4392992,30.2086317 C18.2758173,29.7212145 18.1882217,29.2417475 18.1882217,28.7739256 C18.1882217,28.546621 18.2192967,28.3684724 18.2796454,28.2345531 C18.4100255,25.4623331 19.2130231,22.8387009 20.5348391,20.4787644 C19.5173561,20.5722616 18.4547241,20.6222014 17.3611297,20.6222014 C9.95941053,20.6222014 3.95910908,18.3531868 3.95910908,15.5542053 C3.95910908,14.8941263 4.2929408,14.2634961 4.90014298,13.6851571 L8.60606913,9.3241566 L8.64108487,9.3241566 C8.73689964,11.1142641 12.6041684,12.5542329 17.3611297,12.5542329 C22.0884795,12.5542329 25.9372834,11.1320677 26.0789226,9.35741249 L28.7384299,12.4320707 C29.3482217,12.0901061 29.9759154,11.7732234 30.6204977,11.4845578 C27.6537301,8.26008009 23.2886975,6.13786161 18.4463924,5.90014358 C18.0473706,4.49432641 17.7526079,3.05973225 17.5661575,1.60767035 L17.3952447,0.0101559234 L17.1902168,1.60767035 C17.0029783,3.06622667 16.7060764,4.50697932 16.3043524,5.91873105 C7.77593717,6.48408118 0.518672034,12.8547676 0.14757276,20.7439158 C0.0998342615,20.84973 0.0752894673,20.9904796 0.0752894673,21.1699719 C0.0752894673,21.5394818 0.144532809,21.9182854 0.273674455,22.3033595 C0.317021913,22.4414218 0.369151453,22.5770207 0.431526755,22.7098204 C1.7342023,25.6865025 6.38611634,28.9703257 10.5233778,31.2495298 C14.0502846,33.19248 16.2405134,36.8842198 16.2405134,40.8939619 L16.2405134,74.1483965 C16.2405134,74.5866576 16.5976515,74.941835 17.0382192,74.941835 L17.6839275,74.941835 C18.1244953,74.941835 18.4817459,74.5866576 18.4817459,74.1483965 L18.4817459,40.8816449 C18.4817459,38.3231809 19.3745909,35.894941 20.9365631,33.9669952 C19.906695,32.8796283 19.1041478,31.7858791 18.6390352,30.7231462" id="Fill-6"></path>
            </g>
        </g>
    </g>
</svg>