<?xml version="1.0" encoding="UTF-8"?>
<svg width="15px" height="15px" viewBox="0 0 15 15" version="1.1" xmlns="http://www.w3.org/2000/svg" xmlns:xlink="http://www.w3.org/1999/xlink">
    <!-- Generator: Sketch 43.2 (39069) - http://www.bohemiancoding.com/sketch -->
    <title>Page 1</title>
    <desc>Created with Sketch.</desc>
    <defs></defs>
    <g id="Page-1" stroke="none" stroke-width="1" fill="none" fill-rule="evenodd">
        <g id="decentralandv2" transform="translate(-1035.000000, -5545.000000)" fill="#000000">
            <g id="Page-1" transform="translate(1035.000000, 5545.000000)">
                <path d="M7.40390909,-0.000227272727 C3.31527273,-0.000227272727 -0.000181818182,3.31522727 -0.000181818182,7.40477273 C-0.000181818182,10.6756818 2.12118182,13.4511364 5.06390909,14.4302273 C5.43436364,14.4979545 5.56936364,14.2697727 5.56936364,14.0734091 C5.56936364,13.8975 5.563,13.4320455 5.55936364,12.8138636 C3.49981818,13.2615909 3.06527273,11.8215909 3.06527273,11.8215909 C2.72845455,10.9661364 2.243,10.7384091 2.243,10.7384091 C1.57072727,10.2788636 2.29390909,10.2884091 2.29390909,10.2884091 C3.03709091,10.3406818 3.428,11.0511364 3.428,11.0511364 C4.08845455,12.1829545 5.16072727,11.8561364 5.583,11.6665909 C5.65027273,11.1879545 5.84118182,10.8615909 6.053,10.6765909 C4.40890909,10.4897727 2.68027273,9.85477273 2.68027273,7.01704545 C2.68027273,6.20886364 2.96890909,5.54795455 3.44254545,5.03022727 C3.36618182,4.84295455 3.11209091,4.09022727 3.51481818,3.07113636 C3.51481818,3.07113636 4.13663636,2.87159091 5.55118182,3.82977273 C6.14163636,3.66568182 6.77527273,3.58340909 7.40481818,3.58068182 C8.03345455,3.58340909 8.66709091,3.66568182 9.25845455,3.82977273 C10.6720909,2.87159091 11.2925455,3.07113636 11.2925455,3.07113636 C11.6966364,4.09022727 11.4425455,4.84295455 11.3661818,5.03022727 C11.8407273,5.54795455 12.1275455,6.20886364 12.1275455,7.01704545 C12.1275455,9.86159091 10.3961818,10.4875 8.74663636,10.6711364 C9.01254545,10.8993182 9.24936364,11.3515909 9.24936364,12.0420455 C9.24936364,13.0320455 9.24027273,13.8306818 9.24027273,14.0734091 C9.24027273,14.2711364 9.37345455,14.5015909 9.74936364,14.4293182 C12.6889091,13.4484091 14.8089091,10.6747727 14.8089091,7.40477273 C14.8089091,3.31522727 11.4934545,-0.000227272727 7.40390909,-0.000227272727" id="Fill-1"></path>
            </g>
        </g>
    </g>
</svg>