<?xml version="1.0" encoding="UTF-8"?>
<svg width="34px" height="34px" viewBox="0 0 34 34" version="1.1" xmlns="http://www.w3.org/2000/svg" xmlns:xlink="http://www.w3.org/1999/xlink">
    <!-- Generator: Sketch 43.2 (39069) - http://www.bohemiancoding.com/sketch -->
    <title>iron</title>
    <desc>Created with Sketch.</desc>
    <defs></defs>
    <g id="Page-1" stroke="none" stroke-width="1" fill="none" fill-rule="evenodd">
        <g id="iron" fill-rule="nonzero">
            <g id="Page-1">
                <g id="iron">
                    <path d="M17,0 C7.61154762,0 0,7.61114287 0,17 C0,26.3888571 7.61154762,34 17,34 C26.3888571,34 34,26.3888571 34,17 C34,7.61114287 26.3888571,0 17,0" id="Path-Copy-2" fill="#35312E"></path>
                    <g id="Group-4" transform="translate(1.133333, 1.133333)" fill="#D7D1C6">
                        <path d="M17.4621778,13.2752667 L17.4621778,10.9424889 L10.1374444,10.9424889 L10.1374444,9.43137778 L13.1921556,9.43137778 C12.8706667,8.04115556 11.6247556,7 10.1374444,7 C8.40722222,7 7,8.4076 7,10.1378222 C7,11.8676667 8.40722222,13.2752667 10.1374444,13.2752667 L17.4621778,13.2752667 Z" id="Fill-17"></path>
                        <polygon id="Fill-19" points="15 17.6025111 17.7490889 17.6025111 17.7490889 15 15 15"></polygon>
                        <path d="M11.0086,15 L11.0086,22.3247333 L9.49748889,22.3247333 L9.49748889,19.2530222 C8.07326667,19.5495778 7,20.814 7,22.3247333 C7,24.0549556 8.40722222,25.4625556 10.1374444,25.4625556 C11.8676667,25.4625556 13.2752667,24.0549556 13.2752667,22.3247333 L13.2752667,15 L11.0086,15 Z" id="Fill-21"></path>
                        <path d="M21.2666667,17.3156 L21.2666667,10.1378222 L22.7777778,10.1378222 L22.7777778,13.2095333 C24.202,12.9129778 25.2752667,11.6485556 25.2752667,10.1378222 C25.2752667,8.4076 23.8680444,7 22.1378222,7 C20.4076,7 19,8.4076 19,10.1378222 L19,17.3156 L21.2666667,17.3156 Z" id="Fill-22"></path>
                        <path d="M26.5543756,22.5488956 C26.5543756,25.1121178 24.4686644,27.1974511 21.9054422,27.1974511 C19.5518867,27.1974511 17.6055756,25.4373844 17.3025978,23.1646733 L14.5463311,23.1646733 C14.2765978,25.4728956 12.3117756,27.2711178 9.93215333,27.2711178 C7.36893111,27.2711178 5.28322,25.1854067 5.28322,22.6221844 C5.28322,20.2765622 7.03119778,18.3366733 9.29219778,18.0231178 L9.29219778,15.2370067 C7.06708667,14.8917178 5.35688667,12.9692067 5.35688667,10.6488956 C5.35688667,8.08567333 7.44222,5.99996222 10.0054422,5.99996222 C12.3283978,5.99996222 14.2527978,7.71394 14.5950644,9.94245111 L17.4011978,9.94245111 C17.7736867,7.75020667 19.6818422,6.07362889 21.9791089,6.07362889 C24.5423311,6.07362889 26.6276644,8.15896222 26.6276644,10.7221844 C26.6276644,13.0678067 24.8796867,15.0084511 22.6190644,15.3220067 L22.6190644,17.9607844 C24.8441756,18.3060733 26.5543756,20.2289622 26.5543756,22.5488956 M16.1498867,-3.77777778e-05 C7.38733111,-3.77777778e-05 0.28322,7.10369556 0.28322,15.8666289 C0.28322,24.6295622 7.38733111,31.7332956 16.1498867,31.7332956 C24.91282,31.7332956 32.0165533,24.6295622 32.0165533,15.8666289 C32.0165533,7.10369556 24.91282,-3.77777778e-05 16.1498867,-3.77777778e-05" id="Fill-23"></path>
                        <path d="M15,19 L15,21.2424889 L22.8914,21.2424889 L22.8914,22.7536 L19.2484889,22.7536 C19.5356,24.1895333 20.8053111,25.2752667 22.3247333,25.2752667 C24.0549556,25.2752667 25.4621778,23.8676667 25.4621778,22.1378222 C25.4621778,20.4076 24.0549556,19 22.3247333,19 L15,19 Z" id="Fill-24"></path>
                    </g>
                </g>
            </g>
        </g>
    </g>
</svg>