<?xml version="1.0" encoding="UTF-8"?>
<svg width="40px" height="47px" viewBox="0 0 40 47" version="1.1" xmlns="http://www.w3.org/2000/svg" xmlns:xlink="http://www.w3.org/1999/xlink">
    <!-- Generator: Sketch 43.2 (39069) - http://www.bohemiancoding.com/sketch -->
    <title>Page 1</title>
    <desc>Created with Sketch.</desc>
    <defs>
        <polygon id="path-1" points="8.31957589 0.259879348 0.127912854 0.259879348 0.127912854 30.7781748 8.31957589 30.7781748 8.31957589 0.259879348"></polygon>
        <polygon id="path-3" points="0 0.44080125 0 12.2447676 23.5414437 12.2447676 23.5414437 0.44080125 1.61409909e-20 0.44080125"></polygon>
        <polygon id="path-5" points="11.6491213 30.5388247 11.6491213 0.0197018527 0.16876398 0.0197018527 0.16876398 30.5388247 11.6491213 30.5388247"></polygon>
    </defs>
    <g id="Page-1" stroke="none" stroke-width="1" fill="none" fill-rule="evenodd">
        <g id="decentralandv2" transform="translate(-716.000000, -2035.000000)">
            <g id="Group-21" transform="translate(-7.000000, 2035.000000)">
                <g id="Group-7-Copy" transform="translate(250.000000, 0.000000)">
                    <g id="Page-1" transform="translate(473.000000, 0.000000)">
                        <g id="Group-3" transform="translate(16.495280, 0.429915)">
                            <mask id="mask-2" fill="white">
                                <use xlink:href="#path-1"></use>
                            </mask>
                            <g id="Clip-2"></g>
                            <path d="M8.31957589,18.4954145 L7.25601743,7.40599435 C7.18098475,6.64124815 6.60216122,6.00496011 5.90542919,5.91611989 L5.90542919,5.9137188 L4.88236456,5.85369163 C5.20750617,5.53674815 5.41593028,4.99050087 5.38377342,4.1849362 C5.35161656,3.38057207 5.30278577,2.12120196 5.30278577,2.12120196 C5.26467393,1.14876174 4.51792012,0.313183478 3.62824691,0.261560109 C2.73738272,0.211137283 2.05256064,0.9626775 2.09186347,1.93511772 C2.09186347,1.93511772 2.14188526,3.19328728 2.17285113,3.99765141 C2.202626,4.76840033 2.51466667,5.36507043 2.93389688,5.74084054 L1.9203602,5.68201391 L1.9203602,5.68321446 C1.22720116,5.66880793 0.685298475,6.21865685 0.649568627,6.96899652 L0.127912854,18.0199992 L1.07594481,18.0740237 L1.98110094,8.11551554 L2.20500799,17.1171905 L2.73261874,30.5272612 L3.61276398,30.5788846 L3.94624256,17.2180362 L4.77755701,17.2660579 L6.16506609,30.7265514 L7.04640232,30.7781748 L6.51879158,17.3669036 L6.11147131,9.77826826 L7.37154394,18.4401895 L8.31957589,18.4954145 Z" id="Fill-1" fill="#35312E" mask="url(#mask-2)"></path>
                        </g>
                        <g id="Group-6" transform="translate(0.000000, 30.443502)">
                            <mask id="mask-4" fill="white">
                                <use xlink:href="#path-3"></use>
                            </mask>
                            <g id="Clip-5"></g>
                            <path d="M7.60831373,9.72460397 L13.8503181,6.47353223 L23.5414437,0.764947989 L22.8232738,0.534443641 L12.4306521,6.01612516 L11.751785,5.79762625 L20.200703,0.671305598 L19.483724,0.44080125 L10.3309281,5.34141973 L5.25490777,8.1350844 L10.3678489,4.75315342 L9.59489325,4.50464092 L2.57874219,8.70054038 C2.09758025,8.9910719 2.13688308,9.35723766 2.6716398,9.55652788 L2.6704488,9.55772842 L3.50414524,9.82544962 C2.9991634,9.86026538 2.42986783,10.0043306 1.87962818,10.2996643 C1.32462455,10.5961985 0.467108206,11.0560067 0.467108206,11.0560067 C-0.197466957,11.4113676 -0.147445171,11.8843817 0.579061728,12.1184877 C1.30437763,12.3513931 2.42272186,12.2529485 3.08610603,11.8987882 C3.08610603,11.8987882 3.94481336,11.4389801 4.49981699,11.1412453 C5.02504575,10.8603181 5.18463907,10.5733882 5.09531445,10.3380817 L5.92067393,10.6034018 L5.92186492,10.6034018 C6.50545243,10.7750795 7.36296877,10.7114507 7.93107335,10.4533339 L16.2775657,6.65361375 L15.50461,6.40510125 L7.60831373,9.72460397 Z" id="Fill-4" fill="#9B9B9B" mask="url(#mask-4)"></path>
                        </g>
                        <g id="Group-9" transform="translate(28.405229, 4.721219)">
                            <mask id="mask-6" fill="white">
                                <use xlink:href="#path-5"></use>
                            </mask>
                            <g id="Clip-8"></g>
                            <path d="M10.6411823,2.74264158 L5.94628032,5.67436875 L4.92321569,5.61434158 C5.2483573,5.2973981 5.45559041,4.75235136 5.42462455,3.9443856 C5.39365868,3.14122201 5.34363689,1.8818519 5.34363689,1.8818519 C5.30552505,0.909411685 4.55877124,0.0750339674 3.66909804,0.0222100543 C2.77823384,-0.0294133152 2.09460276,0.722126902 2.1315236,1.69576766 C2.1315236,1.69576766 2.18154539,2.95513777 2.21370225,3.75830136 C2.24347712,4.52905027 2.55551779,5.12572038 2.974748,5.50149049 L1.96121133,5.44266386 L1.96121133,5.4438644 C1.26924328,5.42945788 0.727340595,5.97930679 0.690419753,6.72964647 L0.16876398,17.7794486 L1.11679593,17.8346736 L2.02195207,7.87616549 L2.24705011,16.8766399 L2.77466086,30.2879111 L3.6548061,30.3395345 L3.98709368,16.9786861 L4.81959913,17.0267079 L6.20710821,30.4872014 L7.08844444,30.5388247 L6.5608337,17.1275535 L6.24164706,9.28440299 C6.18686129,7.93859375 6.78354975,6.64921005 7.84115323,5.82683777 L11.649955,2.86989918 L10.6411823,2.74264158 Z" id="Fill-7" fill="#35312E" mask="url(#mask-6)"></path>
                        </g>
                        <path d="M25.8012375,40.9682678 L35.4935541,35.2608841 L34.7741932,35.0291792 L24.3815715,40.5108607 L23.7027044,40.2935623 L32.1516224,35.1672417 L31.4334524,34.9367373 L22.2830385,39.8361553 L17.2070182,42.6298199 L22.3187683,39.247889 L21.5470036,38.9993765 L14.5296616,43.1952759 C14.0484996,43.4858074 14.0889935,43.8531738 14.6225592,44.052464 L14.6213682,44.0536645 L15.4550646,44.3213857 C14.9512738,44.3562015 14.3807872,44.4990661 13.8305476,44.7943998 C13.2755439,45.0921346 12.4180276,45.5507422 12.4180276,45.5507422 C11.7534524,45.9061031 11.8046652,46.3803178 12.5299811,46.6132232 C13.256488,46.8461286 14.3736412,46.7488846 15.0370254,46.3935238 C15.0370254,46.3935238 15.8957328,45.9337156 16.4495454,45.6371814 C16.9759651,45.3550536 17.1355585,45.0681238 17.0450428,44.8328172 L19.0637792,45.0981373 C19.6473667,45.2710156 25.8012375,40.9682678 25.8012375,40.9682678" id="Fill-10" fill="#9B9B9B"></path>
                    </g>
                </g>
            </g>
        </g>
    </g>
</svg>