<?xml version="1.0" encoding="UTF-8"?>
<svg width="138px" height="80px" viewBox="0 0 138 80" version="1.1" xmlns="http://www.w3.org/2000/svg" xmlns:xlink="http://www.w3.org/1999/xlink">
    <!-- Generator: Sketch 43.2 (39069) - http://www.bohemiancoding.com/sketch -->
    <title>Page 1</title>
    <desc>Created with Sketch.</desc>
    <defs>
        <polygon id="path-1" points="40.3812417 159.010704 0 159.010704 0 0 40.3812417 0"></polygon>
    </defs>
    <g id="Page-1" stroke="none" stroke-width="1" fill="none" fill-rule="evenodd">
        <g id="decentralandv2" transform="translate(-644.000000, -2639.000000)">
            <g id="Group-16" transform="translate(0.000000, 2622.000000)">
                <g id="Group-10" transform="translate(250.000000, 0.000000)">
                    <g id="Group-8" transform="translate(229.000000, 0.000000)">
                        <g id="Page-1" transform="translate(233.500000, 58.000000) rotate(-300.000000) translate(-233.500000, -58.000000) translate(213.000000, -22.000000)">
                            <mask id="mask-2" fill="white">
                                <use xlink:href="#path-1"></use>
                            </mask>
                            <g id="Clip-2"></g>
                            <path d="M32.6402139,64.0884507 C28.3044639,58.7971831 26.0039083,52.1819718 26.0061861,45.3707042 L26.0061861,45.2659155 C26.0061861,25.6039437 23.8434361,10.736338 20.1898806,-0.000563380282 C16.5374639,10.736338 14.3747139,25.6039437 14.3747139,45.2659155 L14.3747139,45.3707042 C14.3781306,52.1819718 12.0764361,58.7971831 7.741825,64.0884507 L-0.000341666667,73.536338 L0.525825,87.0630986 L11.5274917,82.7904225 C14.0911306,81.7943662 16.9212694,83.4304225 17.3073528,86.1267606 C17.6182694,88.2901408 17.9496861,90.4264789 18.3027417,92.5323944 L19.621575,92.5323944 L20.1910194,159.011268 L20.7604639,92.5323944 L22.0792972,92.5323944 C22.4323528,90.4264789 22.7637694,88.2901408 23.0746861,86.1267606 C23.4584917,83.4304225 26.2909083,81.7943662 28.8534083,82.7904225 L39.8562139,87.0630986 L40.3812417,73.536338 L32.6402139,64.0884507 Z" id="Fill-1" fill="#35312E" mask="url(#mask-2)"></path>
                        </g>
                    </g>
                </g>
            </g>
        </g>
    </g>
</svg>