<?xml version="1.0" encoding="UTF-8"?>
<svg width="118px" height="130px" viewBox="0 0 118 130" version="1.1" xmlns="http://www.w3.org/2000/svg" xmlns:xlink="http://www.w3.org/1999/xlink">
    <!-- Generator: Sketch 43.2 (39069) - http://www.bohemiancoding.com/sketch -->
    <title>Page 1</title>
    <desc>Created with Sketch.</desc>
    <defs>
        <polygon id="path-1" points="0.783349722 0.30523 73.6230769 0.30523 73.6230769 85.1963012 0.783349722 85.1963012 0.783349722 0.30523"></polygon>
        <polygon id="path-3" points="8.96760297e-18 28.7851215 8.96760297e-18 0.693331962 32.0916713 0.693331962 32.0916713 28.7851215 0 28.7851215"></polygon>
    </defs>
    <g id="Page-1" stroke="none" stroke-width="1" fill="none" fill-rule="evenodd">
        <g>
            <g id="Group-3" transform="translate(44.461538, 0.005163)">
                <mask id="mask-2" fill="white">
                    <use xlink:href="#path-1"></use>
                </mask>
                <g id="Clip-2"></g>
                <path d="M6.28136923,84.463691 C7.71198462,82.366381 73.6236,0.304051 73.6236,0.304051 C73.6236,0.304051 3.34821538,78.374811 1.39321538,79.991351 C-1.04563077,82.007441 4.49898462,87.078451 6.28136923,84.463691" id="Fill-1" fill="#35312E" mask="url(#mask-2)"></path>
            </g>
            <path d="M70.8499846,113.071394 C73.1515231,113.980534 78.5967538,104.572114 79.2479846,102.920204 L87.6459846,77.863834 C88.0409077,76.859064 87.2262154,75.596224 85.8256769,75.042094 C84.4251385,74.487964 82.9696769,74.854764 82.5734462,75.859534 L71.6319846,99.911134 C70.9820615,101.563044 68.5471385,112.162254 70.8499846,113.071394" id="Fill-4" fill="#35312E"></path>
            <g id="Group-8" transform="translate(0.000000, 62.885163)">
                <mask id="mask-4" fill="white">
                    <use xlink:href="#path-3"></use>
                </mask>
                <g id="Clip-7"></g>
                <path d="M0.2346,28.408791 C1.84175385,30.293881 11.0557538,24.542981 12.4052923,23.388871 L31.5512154,5.204761 C32.3711385,4.502601 32.2442923,3.003961 31.2648308,1.856401 C30.2879846,0.710151 28.8299077,0.349901 28.0099846,1.052061 L7.08690769,17.153271 C5.73867692,18.306071 -1.37255385,26.523701 0.2346,28.408791" id="Fill-6" fill="#35312E" mask="url(#mask-4)"></path>
            </g>
            <polygon id="Fill-9" fill="#35312E" points="47.6358308 79.74185 40.7508308 85.20062 45.5291385 74.35251 45.8848308 73.51673 49.7372923 69.12561"></polygon>
            <path d="M52.5128692,66.331642 C52.4710231,65.850872 52.0486385,65.497172 51.5687154,65.539092 C51.3071769,65.562672 51.1214846,65.732972 50.9410231,65.896722 C49.5182538,67.183142 45.2931,71.140652 45.2931,71.140652 C44.5411769,71.738012 43.1955615,74.136622 43.6231769,74.495562 C44.1671769,74.952752 46.5288692,73.501272 47.1212538,72.696932 L52.2879462,66.995812 L52.2866385,66.995812 C52.4448692,66.821582 52.5351,66.584472 52.5128692,66.331642" id="Fill-11" fill="#35312E"></path>
            <path d="M49.7417385,80.943775 C47.2375077,78.704985 44.0062,78.237315 42.5232769,79.899705 C42.5232769,79.899705 11.7258154,108.951575 11.5335846,109.166415 C9.09735385,111.900385 3.43504615,124.978115 7.54904615,128.659215 C11.6643538,132.341625 23.9985077,125.232255 26.4360462,122.498285 C26.6152,122.296545 51.5908154,88.011225 51.5908154,88.011225 C53.0737385,86.347525 52.2459692,83.183875 49.7417385,80.943775" id="Fill-13" fill="#35312E"></path>
            <polygon id="Fill-15" fill="#35312E" points="74.7666538 89.712129 47.0278846 90.663189 36.8265769 106.366159 70.7049615 98.643709"></polygon>
            <path d="M33.4671154,86.937942 L20.4673462,78.682322 L21.6939615,73.207832 L9.21334615,83.824072 L20.7236538,98.966362 C24.7487308,95.164742 29.4577308,90.721222 33.4671154,86.937942" id="Fill-17" fill="#35312E"></path>
        </g>
    </g>
</svg>