<?xml version="1.0" encoding="UTF-8"?>
<svg width="34px" height="34px" viewBox="0 0 34 34" version="1.1" xmlns="http://www.w3.org/2000/svg" xmlns:xlink="http://www.w3.org/1999/xlink">
    <!-- Generator: Sketch 43.2 (39069) - http://www.bohemiancoding.com/sketch -->
    <title>silicon</title>
    <desc>Created with Sketch.</desc>
    <defs></defs>
    <g id="Page-1" stroke="none" stroke-width="1" fill="none" fill-rule="evenodd">
        <g id="silicon" fill-rule="nonzero">
            <g id="Page-1">
                <g id="silicon">
                    <path d="M17,0 C7.61154762,0 0,7.61114287 0,17 C0,26.3888571 7.61154762,34 17,34 C26.3888571,34 34,26.3888571 34,17 C34,7.61114287 26.3888571,0 17,0" id="Path-Copy-3" fill="#35312E"></path>
                    <g id="Group-5" transform="translate(1.133333, 1.133333)" fill="#D7D1C6">
                        <path d="M20.1391822,18.4792267 C20.1391822,17.80716 19.5929156,17.2605156 18.9208489,17.2605156 C18.24916,17.2605156 17.7025156,17.80716 17.7025156,18.4792267 C17.7025156,19.1509156 18.24916,19.69756 18.9208489,19.69756 C19.5929156,19.69756 20.1391822,19.1509156 20.1391822,18.4792267" id="Fill-25"></path>
                        <path d="M26.4444444,4.04343111 L26.4444444,7.28967556 L26.4444444,14.0095867 L26.4444444,24.9651422 L15.0559556,24.9651422 C14.7265333,26.1037644 13.6774444,26.9394089 12.4345556,26.9394089 C10.9298667,26.9394089 9.70511111,25.7150311 9.70511111,24.2095867 C9.70511111,22.70452 10.9298667,21.4801422 12.4345556,21.4801422 C13.6774444,21.4801422 14.7265333,22.3157867 15.0559556,23.4540311 L24.9333333,23.4540311 L24.9333333,14.0095867 L15.0559556,14.0095867 C14.7265333,15.1482089 13.6774444,15.9838533 12.4345556,15.9838533 C10.9298667,15.9838533 9.70511111,14.7594756 9.70511111,13.2540311 C9.70511111,11.7489644 10.9298667,10.5245867 12.4345556,10.5245867 C13.6774444,10.5245867 14.7265333,11.3602311 15.0559556,12.4984756 L24.9333333,12.4984756 L24.9333333,7.28967556 L24.9333333,2.84889778 C22.3625556,1.05520889 19.2387111,7.55555557e-05 15.8666667,7.55555557e-05 C7.10411111,7.55555557e-05 0,7.10380889 0,15.8667422 C0,20.3792978 1.887,24.44872 4.91111111,27.3375867 L4.91111111,25.1993644 L4.91111111,17.72352 L4.91111111,7.52352 L16.2996,7.52352 C16.6290222,6.38527556 17.6781111,5.54963111 18.921,5.54963111 C20.4256889,5.54963111 21.6504444,6.77400889 21.6504444,8.27907556 C21.6504444,9.78414222 20.4256889,11.00852 18.921,11.00852 C17.6781111,11.00852 16.6290222,10.1732533 16.2996,9.03463111 L6.42222222,9.03463111 L6.42222222,17.72352 L16.2996,17.72352 C16.6290222,16.5852756 17.6781111,15.7496311 18.921,15.7496311 C20.4256889,15.7496311 21.6504444,16.9740089 21.6504444,18.4790756 C21.6504444,19.9841422 20.4256889,21.2088978 18.921,21.2088978 C17.6781111,21.2088978 16.6290222,20.3732533 16.2996,19.2346311 L6.42222222,19.2346311 L6.42222222,25.1993644 L6.42222222,28.6159867 C9.061,30.5740089 12.3284,31.7334089 15.8666667,31.7334089 C24.6292222,31.7334089 31.7333333,24.6296756 31.7333333,15.8667422 C31.7333333,11.16832 29.6895556,6.94854222 26.4444444,4.04343111" id="Fill-26"></path>
                        <path d="M20.1391822,8.27922667 C20.1391822,7.60716 19.5929156,7.06051556 18.9208489,7.06051556 C18.24916,7.06051556 17.7025156,7.60716 17.7025156,8.27922667 C17.7025156,8.95091556 18.24916,9.49756 18.9208489,9.49756 C19.5929156,9.49756 20.1391822,8.95091556 20.1391822,8.27922667" id="Fill-27"></path>
                        <path d="M11.2163733,13.2541444 C11.2163733,13.9262111 11.76264,14.4728556 12.4347067,14.4728556 C13.1063956,14.4728556 13.65304,13.9262111 13.65304,13.2541444 C13.65304,12.5824556 13.1063956,12.0358111 12.4347067,12.0358111 C11.76264,12.0358111 11.2163733,12.5824556 11.2163733,13.2541444" id="Fill-28"></path>
                        <path d="M11.2163733,24.2097 C11.2163733,24.8817667 11.76264,25.4284111 12.4347067,25.4284111 C13.1063956,25.4284111 13.65304,24.8817667 13.65304,24.2097 C13.65304,23.5380111 13.1063956,22.9913667 12.4347067,22.9913667 C11.76264,22.9913667 11.2163733,23.5380111 11.2163733,24.2097" id="Fill-29"></path>
                    </g>
                </g>
            </g>
        </g>
    </g>
</svg>