<?xml version="1.0" encoding="UTF-8"?>
<svg width="15px" height="15px" viewBox="0 0 15 15" version="1.1" xmlns="http://www.w3.org/2000/svg" xmlns:xlink="http://www.w3.org/1999/xlink">
    <!-- Generator: Sketch 43.2 (39069) - http://www.bohemiancoding.com/sketch -->
    <title>Slack_Mark_Monochrome_White</title>
    <desc>Created with Sketch.</desc>
    <defs></defs>
    <g id="Page-1" stroke="none" stroke-width="1" fill="none" fill-rule="evenodd">
        <g id="decentralandv2" transform="translate(-1215.000000, -5545.000000)" fill-rule="nonzero">
            <g id="Group-6" transform="translate(1215.000000, 5543.000000)">
                <g id="Slack_Mark_Monochrome_White" transform="translate(0.000000, 2.000000)">
                    <g id="Layer_2">
                        <g id="Group">
                            <rect id="Rectangle-path" fill="#000000" transform="translate(7.535505, 7.475676) rotate(-18.518296) translate(-7.535505, -7.475676) " x="6.48791033" y="6.46379521" width="2.09518886" height="2.02376196"></rect>
                            <g>
                                <rect id="Rectangle-path" fill="#000000" transform="translate(7.535505, 7.475676) rotate(-18.518296) translate(-7.535505, -7.475676) " x="6.48791033" y="6.46379521" width="2.09518886" height="2.02376196"></rect>
                                <path d="M14.3571429,5.41666667 C12.8214286,0.297619048 10.6071429,-0.892857143 5.48809524,0.642857143 C0.369047619,2.17857143 -0.821428571,4.39285714 0.714285714,9.51190476 C2.25,14.6309524 4.46428571,15.8214286 9.58333333,14.2857143 C14.702381,12.75 15.8928571,10.5357143 14.3571429,5.41666667 Z M11.7738095,8.73809524 L10.8095238,9.05952381 L11.1428571,10.0595238 C11.2738095,10.4642857 11.0595238,10.9047619 10.6547619,11.0357143 C10.5714286,11.0595238 10.4761905,11.0833333 10.3928571,11.0714286 C10.0833333,11.0595238 9.78571429,10.8571429 9.67857143,10.547619 L9.3452381,9.54761905 L7.35714286,10.2142857 L7.69047619,11.2142857 C7.82142857,11.6190476 7.60714286,12.0595238 7.20238095,12.1904762 C7.11904762,12.2142857 7.02380952,12.2380952 6.94047619,12.2261905 C6.63095238,12.2142857 6.33333333,12.0119048 6.22619048,11.702381 L5.89285714,10.702381 L4.92857143,11.0238095 C4.8452381,11.047619 4.75,11.0714286 4.66666667,11.0595238 C4.35714286,11.047619 4.05952381,10.8452381 3.95238095,10.5357143 C3.82142857,10.1309524 4.03571429,9.69047619 4.44047619,9.55952381 L5.4047619,9.23809524 L4.76190476,7.32142857 L3.79761905,7.64285714 C3.71428571,7.66666667 3.61904762,7.69047619 3.53571429,7.67857143 C3.22619048,7.66666667 2.92857143,7.46428571 2.82142857,7.1547619 C2.69047619,6.75 2.9047619,6.30952381 3.30952381,6.17857143 L4.27380952,5.85714286 L3.94047619,4.85714286 C3.80952381,4.45238095 4.02380952,4.01190476 4.42857143,3.88095238 C4.83333333,3.75 5.27380952,3.96428571 5.4047619,4.36904762 L5.73809524,5.36904762 L7.72619048,4.70238095 L7.39285714,3.70238095 C7.26190476,3.29761905 7.47619048,2.85714286 7.88095238,2.72619048 C8.28571429,2.5952381 8.72619048,2.80952381 8.85714286,3.21428571 L9.19047619,4.21428571 L10.1547619,3.89285714 C10.5595238,3.76190476 11,3.97619048 11.1309524,4.38095238 C11.2619048,4.78571429 11.047619,5.22619048 10.6428571,5.35714286 L9.67857143,5.67857143 L10.3214286,7.5952381 L11.2857143,7.27380952 C11.6904762,7.14285714 12.1309524,7.35714286 12.2619048,7.76190476 C12.3928571,8.16666667 12.1785714,8.60714286 11.7738095,8.73809524 Z" id="Shape" fill="#4F4F4F"></path>
                            </g>
                        </g>
                    </g>
                </g>
            </g>
        </g>
    </g>
</svg>