<?xml version="1.0" encoding="UTF-8"?>
<svg width="34px" height="34px" viewBox="0 0 34 34" version="1.1" xmlns="http://www.w3.org/2000/svg" xmlns:xlink="http://www.w3.org/1999/xlink">
    <!-- Generator: Sketch 43.2 (39069) - http://www.bohemiancoding.com/sketch -->
    <title>Page-1</title>
    <desc>Created with Sketch.</desc>
    <defs></defs>
    <g id="Page-1" stroke="none" stroke-width="1" fill="none" fill-rule="evenodd">
        <g id="stone" fill-rule="nonzero">
            <g>
                <path d="M17,0.677325581 C7.98505012,0.677325581 0.676314063,7.9628344 0.676314063,16.95 C0.676314063,25.9371656 7.98505012,33.2226744 17,33.2226744 C26.0153385,33.2226744 33.3236859,25.9371656 33.3236859,16.95 C33.3236859,7.9628344 26.0153385,0.677325581 17,0.677325581" id="Path-Copy" fill="#35312E"></path>
                <g id="Group-2" transform="translate(1.372093, 1.370930)" fill="#D7D1C6">
                    <path d="M15.1202605,7.95997733 C15.1649116,1.58665407 10.1729116,3.62306105 8.15467907,1.8937843 C10.3749581,0.686777326 12.9208186,0.000185465116 15.6277953,0.000185465116 C22.8233302,0.000185465116 28.8787721,4.84898547 30.6953302,11.4467215 C25.9388651,10.0553622 20.7838884,7.84239244 16.1476093,8.30123314 C15.9883535,8.02637384 16.998586,6.12461453 16.0694698,6.17617384 C15.8052837,6.59458314 15.462586,7.2774657 15.1202605,7.95997733 Z" id="Fill-1"></path>
                    <path d="M12.7234605,6.93595023 C13.6328558,3.61204442 8.51620465,4.40101302 7.67825116,2.16727116 C7.08066977,2.52002581 6.50950698,2.91209907 5.96587907,3.33903977 C6.36327442,7.03906884 10.2442047,6.00899558 12.7234605,6.93595023" id="Fill-3"></path>
                    <path d="M25.0065488,24.5192673 C23.6863628,24.5333627 17.8597581,20.9308883 16.6061767,27.0868464 C16.0662698,27.2137045 15.8013395,27.7441348 15.3845953,27.7048162 C14.7777116,27.4162324 15.8050605,24.0029324 17.2201302,22.6438441 C16.147386,18.8829824 10.8967814,23.7481034 9.85454884,24.8683127 C7.24506047,21.9546557 17.3775256,20.1014883 14.5298977,13.1995894 C10.563386,13.9169685 10.6307349,14.8947406 8.78143256,12.425458 C8.78329302,12.4280545 11.3213395,9.22470105 11.1285953,8.73507314 C10.7885023,7.8708057 4.47966512,7.66605221 5.00989767,4.15185919 C1.92933953,6.99763593 3.72093024e-05,11.0626603 3.72093024e-05,15.5791069 C3.72093024e-05,24.1832045 6.99724651,31.1581766 15.6279442,31.1581766 C21.3723163,31.1581766 26.3899907,28.0664731 29.1055256,23.462858 C27.3708279,23.989579 25.6205023,24.5125906 25.0065488,24.5192673" id="Fill-5"></path>
                </g>
            </g>
        </g>
    </g>
</svg>