<?xml version="1.0" encoding="UTF-8"?>
<svg width="15px" height="13px" viewBox="0 0 15 13" version="1.1" xmlns="http://www.w3.org/2000/svg" xmlns:xlink="http://www.w3.org/1999/xlink">
    <!-- Generator: Sketch 43.2 (39069) - http://www.bohemiancoding.com/sketch -->
    <title>Fill 453</title>
    <desc>Created with Sketch.</desc>
    <defs></defs>
    <g id="Page-1" stroke="none" stroke-width="1" fill="none" fill-rule="evenodd">
        <g id="decentralandv2" transform="translate(-1125.000000, -5546.000000)" fill="#4F4F4F">
            <path d="M1129.7175,5558.1905 C1135.3782,5558.1905 1138.4736,5553.5009 1138.4736,5549.4344 C1138.4736,5549.3012 1138.4709,5549.1686 1138.4649,5549.0366 C1139.0658,5548.6022 1139.5881,5548.0601 1140,5547.443 C1139.4486,5547.6881 1138.8552,5547.8531 1138.2327,5547.9275 C1138.8681,5547.5465 1139.3559,5546.9438 1139.586,5546.2253 C1138.9914,5546.5778 1138.3329,5546.834 1137.6318,5546.9723 C1137.0702,5546.3741 1136.2707,5546 1135.3854,5546 C1133.6859,5546 1132.3077,5547.3782 1132.3077,5549.0771 C1132.3077,5549.3186 1132.3347,5549.5535 1132.3875,5549.7788 C1129.8297,5549.6501 1127.5617,5548.4255 1126.044,5546.5634 C1125.7797,5547.0182 1125.6273,5547.5465 1125.6273,5548.1102 C1125.6273,5549.1779 1126.1706,5550.1205 1126.9968,5550.6719 C1126.4919,5550.6563 1126.0176,5550.5177 1125.603,5550.287 C1125.6024,5550.2999 1125.6024,5550.3125 1125.6024,5550.3263 C1125.6024,5551.8167 1126.6632,5553.0611 1128.0714,5553.3431 C1127.8128,5553.4136 1127.5407,5553.4514 1127.2599,5553.4514 C1127.0619,5553.4514 1126.869,5553.4319 1126.6815,5553.3959 C1127.0733,5554.6187 1128.2094,5555.5085 1129.5564,5555.5334 C1128.5031,5556.359 1127.1762,5556.8507 1125.7341,5556.8507 C1125.486,5556.8507 1125.2409,5556.8366 1125,5556.8081 C1126.362,5557.6811 1127.9793,5558.1905 1129.7175,5558.1905" id="Fill-453"></path>
        </g>
    </g>
</svg>