<?xml version="1.0" encoding="UTF-8"?>
<svg width="70px" height="68px" viewBox="0 0 70 68" version="1.1" xmlns="http://www.w3.org/2000/svg" xmlns:xlink="http://www.w3.org/1999/xlink">
    <!-- Generator: Sketch 43.2 (39069) - http://www.bohemiancoding.com/sketch -->
    <title>Page 1</title>
    <desc>Created with Sketch.</desc>
    <defs></defs>
    <g id="Page-1" stroke="none" stroke-width="1" fill="none" fill-rule="evenodd">
        <g id="decentralandv2" transform="translate(-681.000000, -3415.000000)">
            <g id="Group-20" transform="translate(-7.000000, 3415.000000)">
                <g id="Page-1" transform="translate(688.000000, 0.000000)">
                    <path d="M33.747,27.1075534 C27.9342,25.940186 22.6324,23.964533 18.116,21.455186 C18.5906,28.3242064 24.1696,34.4750636 31.9732,36.0423493 C39.7768,37.609635 47.2766,34.0878187 50.3384,27.9285126 C45.2102,28.5002268 39.5598,28.2749207 33.747,27.1075534" id="Fill-1" fill="#35312E"></path>
                    <g id="Group-5" transform="translate(0.000000, 0.019139)" fill="#35312E">
                        <path d="M52.83698,14.8212 C52.19718,8.09722041 46.67558,2.13083265 39.00918,0.591710204 C29.84898,-1.24875918 21.10038,3.92342449 19.46798,12.1428735 C19.27198,13.1342204 19.58418,14.1016286 20.28278,15.0239755 C20.66638,14.0875469 21.98518,11.6584653 25.59298,8.91817959 L27.70978,10.327751 C27.70978,10.327751 25.45718,13.3130571 24.16498,18.0444857 C31.18458,21.8239959 44.10378,23.8855469 49.83258,21.6071388 C45.49118,26.7511592 15.86438,20.4397714 17.15238,13.9579959 C17.58358,11.7753429 18.75398,9.88136327 20.44098,8.37040408 C9.06458,7.9212 0.86198,9.90389388 0.06398,13.9256082 C-1.08962,19.7258327 13.60618,27.569302 32.88278,31.441751 C52.16078,35.3142 68.72278,33.7497306 69.87358,27.9495061 C70.68138,23.8855469 63.70938,18.8217918 52.83698,14.8212" id="Fill-3"></path>
                    </g>
                    <g id="Group-8" transform="translate(8.166667, 60.570159)" fill="#D7D1C6">
                        <path d="M50.6176533,3.67699592 C50.6176533,5.53436327 39.3112533,7.04109796 25.3630533,7.04109796 C11.4148533,7.04109796 0.108453333,5.53436327 0.108453333,3.67699592 C0.108453333,1.81962857 11.4148533,0.312893878 25.3630533,0.312893878 C39.3112533,0.312893878 50.6176533,1.81962857 50.6176533,3.67699592" id="Fill-6"></path>
                    </g>
                </g>
            </g>
        </g>
    </g>
</svg>